<?xml version="1.0" encoding="utf-8"?>
<!-- Generator: Adobe Illustrator 24.1.0, SVG Export Plug-In . SVG Version: 6.00 Build 0)  -->
<svg version="1.1" id="Capa_1" xmlns="http://www.w3.org/2000/svg" xmlns:xlink="http://www.w3.org/1999/xlink" x="0px" y="0px"
	 viewBox="0 0 675 698" style="enable-background:new 0 0 675 698;" xml:space="preserve">
<style type="text/css">
	.st0{opacity:0.3;}
	.st1{fill:#3C5185;fill-opacity:0;}
	.st2{opacity:0.024;fill:#3C5185;enable-background:new    ;}
	.st3{opacity:0.049;fill:#3C5185;enable-background:new    ;}
	.st4{opacity:0.073;fill:#3C5185;enable-background:new    ;}
	.st5{opacity:0.098;fill:#3C5185;enable-background:new    ;}
	.st6{opacity:0.122;fill:#3C5185;enable-background:new    ;}
	.st7{opacity:0.146;fill:#3C5185;enable-background:new    ;}
	.st8{opacity:0.171;fill:#3C5185;enable-background:new    ;}
	.st9{opacity:0.195;fill:#3C5185;enable-background:new    ;}
	.st10{opacity:0.22;fill:#3C5185;enable-background:new    ;}
	.st11{opacity:0.244;fill:#3C5185;enable-background:new    ;}
	.st12{opacity:0.268;fill:#3C5185;enable-background:new    ;}
	.st13{opacity:0.293;fill:#3C5185;enable-background:new    ;}
	.st14{opacity:0.317;fill:#3C5185;enable-background:new    ;}
	.st15{opacity:0.341;fill:#3C5185;enable-background:new    ;}
	.st16{opacity:0.366;fill:#3C5185;enable-background:new    ;}
	.st17{opacity:0.39;fill:#3C5185;enable-background:new    ;}
	.st18{opacity:0.415;fill:#3C5185;enable-background:new    ;}
	.st19{opacity:0.439;fill:#3C5185;enable-background:new    ;}
	.st20{opacity:0.463;fill:#3C5185;enable-background:new    ;}
	.st21{opacity:0.488;fill:#3C5185;enable-background:new    ;}
	.st22{opacity:0.512;fill:#3C5185;enable-background:new    ;}
	.st23{opacity:0.537;fill:#3C5185;enable-background:new    ;}
	.st24{opacity:0.561;fill:#3C5185;enable-background:new    ;}
	.st25{opacity:0.585;fill:#3C5185;enable-background:new    ;}
	.st26{opacity:0.61;fill:#3C5185;enable-background:new    ;}
	.st27{opacity:0.634;fill:#3C5185;enable-background:new    ;}
	.st28{opacity:0.659;fill:#3C5185;enable-background:new    ;}
	.st29{opacity:0.683;fill:#3C5185;enable-background:new    ;}
	.st30{opacity:0.707;fill:#3C5185;enable-background:new    ;}
	.st31{opacity:0.732;fill:#3C5185;enable-background:new    ;}
	.st32{opacity:0.756;fill:#3C5185;enable-background:new    ;}
	.st33{opacity:0.78;fill:#3C5185;enable-background:new    ;}
	.st34{opacity:0.805;fill:#3C5185;enable-background:new    ;}
	.st35{opacity:0.829;fill:#3C5185;enable-background:new    ;}
	.st36{opacity:0.854;fill:#3C5185;enable-background:new    ;}
	.st37{opacity:0.878;fill:#3C5185;enable-background:new    ;}
	.st38{opacity:0.902;fill:#3C5185;enable-background:new    ;}
	.st39{opacity:0.927;fill:#3C5185;enable-background:new    ;}
	.st40{opacity:0.951;fill:#3C5185;enable-background:new    ;}
	.st41{opacity:0.976;fill:#3C5185;enable-background:new    ;}
	.st42{fill:#3C5185;}
	.st43{fill:url(#Trazado_2634_1_);}
	.st44{fill:#F3F8FE;}
	.st45{fill:#A5CBEF;}
	.st46{fill:url(#Trazado_2638_1_);}
	.st47{fill:url(#Trazado_2639_1_);}
	.st48{fill:url(#Trazado_2640_1_);}
	.st49{fill:url(#Trazado_2641_1_);}
	.st50{fill:url(#Trazado_2642_1_);}
	.st51{fill:url(#Trazado_2643_1_);}
	.st52{fill:url(#Trazado_2644_1_);}
	.st53{opacity:0.3;fill:#3C5185;enable-background:new    ;}
	.st54{fill:url(#Trazado_2646_1_);}
	.st55{fill:url(#Trazado_2648_1_);}
	.st56{fill:url(#Trazado_2650_1_);}
	.st57{fill:#FFFFFF;}
	.st58{fill:url(#Trazado_2653_1_);}
	.st59{fill:#7EA7DF;}
	.st60{fill:#4A65A3;}
	.st61{fill:url(#Trazado_2659_1_);}
	.st62{fill:#5D7DBE;}
	.st63{fill:#FEFEFF;}
	.st64{opacity:0.5;fill:url(#Trazado_2665_1_);enable-background:new    ;}
	.st65{opacity:0.5;fill:url(#Trazado_2666_1_);enable-background:new    ;}
	.st66{fill:url(#Trazado_2668_1_);}
	.st67{fill:url(#Trazado_2669_1_);}
	.st68{fill:url(#Trazado_2670_1_);}
	.st69{fill:#F2B1B5;}
	.st70{opacity:0.3;fill:#EF9EA3;enable-background:new    ;}
	.st71{fill:url(#Trazado_2682_1_);}
	.st72{opacity:0.15;fill:#EF9EA3;enable-background:new    ;}
	.st73{fill:#D1E1F2;}
	.st74{fill:url(#Trazado_2686_1_);}
	.st75{opacity:0.15;fill:#7EA7DF;enable-background:new    ;}
	.st76{opacity:0.33;fill:#7EA7DF;enable-background:new    ;}
	.st77{fill:url(#Trazado_2707_1_);}
	.st78{fill:#BF9105;}
	.st79{fill:#2D3D64;}
	.st80{fill:#363650;}
	.st81{fill:#FFCD39;}
	.st82{fill:url(#Trazado_2717_1_);}
	.st83{fill:#63749D;}
	.st84{fill:#4F6291;}
	.st85{fill:#6785C2;}
	.st86{fill:#7D97CB;}
	.st87{fill:url(#Trazado_2729_1_);}
	.st88{fill:url(#Trazado_2734_1_);}
	.st89{fill:url(#Trazado_2737_1_);}
	.st90{fill:#C9E0F5;}
	.st91{opacity:0.5;fill:url(#Trazado_2745_1_);enable-background:new    ;}
	.st92{fill:url(#Trazado_2746_1_);}
	.st93{fill:url(#Trazado_2747_1_);}
</style>
<g id="Grupo_1126" transform="translate(0 276.105)">
	<g id="Grupo_1122" transform="translate(0 14.15)" class="st0">
		<path id="Trazado_2592" class="st1" d="M673.43,136.43l-1.23-2.52c-0.83-1.61-2.01-3-3.45-4.09c-0.26-0.24-0.58-0.46-0.88-0.7
			c-0.18-0.12-0.32-0.29-0.5-0.4l-0.32-0.19c-0.36-0.25-0.66-0.52-1.06-0.75L450.26,3.24c-7.85-4.53-20.7-4.53-28.55,0L10.56,240.61
			c-4.82,2.78-6.65,6.65-5.55,10.27l-0.33,0.2v7.84c0,8.22,4.39,15.82,11.52,19.93l210.09,120.93c7.85,4.53,20.7,4.53,28.55,0
			l410.48-236.91C674.55,157.55,678.09,146,673.43,136.43z"/>
		<path id="Trazado_2593" class="st2" d="M671.93,136.26l-1.22-2.51c-0.82-1.6-2-2.99-3.43-4.07c-0.26-0.24-0.58-0.46-0.88-0.69
			c-0.18-0.12-0.32-0.29-0.5-0.4l-0.32-0.18c-0.36-0.25-0.65-0.51-1.05-0.75L449.94,3.77c-7.81-4.51-20.59-4.51-28.4,0L11.87,240.35
			c-4.79,2.77-6.61,6.62-5.52,10.22l-0.34,0.2v7.8c0,8.18,4.37,15.74,11.46,19.82l208.98,120.28c7.81,4.5,20.59,4.5,28.4,0
			l409.01-236.12C673.04,157.26,676.56,145.78,671.93,136.26z"/>
		<path id="Trazado_2594" class="st3" d="M670.43,136.08l-1.21-2.5c-0.82-1.59-1.99-2.97-3.42-4.04c-0.26-0.24-0.57-0.46-0.87-0.69
			c-0.18-0.12-0.31-0.29-0.5-0.39l-0.32-0.18c-0.35-0.25-0.65-0.51-1.05-0.74L449.63,4.31c-7.77-4.48-20.48-4.48-28.25,0
			L13.19,240.1c-4.77,2.75-6.58,6.58-5.49,10.16l-0.33,0.2v7.76c0,8.14,4.35,15.66,11.4,19.72l207.86,119.63
			c7.77,4.48,20.48,4.48,28.25,0l407.54-235.32C671.53,156.98,675.03,145.56,670.43,136.08z"/>
		<path id="Trazado_2595" class="st4" d="M668.93,135.91l-1.21-2.48c-0.81-1.58-1.98-2.95-3.4-4.02c-0.26-0.24-0.57-0.46-0.86-0.69
			c-0.18-0.12-0.31-0.29-0.5-0.39l-0.32-0.18c-0.36-0.24-0.65-0.51-1.04-0.74L449.31,4.84c-7.73-4.46-20.37-4.46-28.09,0
			l-406.72,235c-4.74,2.74-6.55,6.55-5.46,10.11l-0.33,0.2v7.72c0,8.09,4.33,15.57,11.34,19.61l206.75,119
			c7.73,4.46,20.37,4.46,28.09,0l406.07-234.55C670.03,156.69,673.51,145.34,668.93,135.91z"/>
		<path id="Trazado_2596" class="st5" d="M667.43,135.74l-1.2-2.46c-0.81-1.57-1.97-2.94-3.38-4c-0.26-0.24-0.57-0.46-0.86-0.68
			c-0.18-0.12-0.31-0.29-0.5-0.39l-0.32-0.18c-0.35-0.24-0.64-0.51-1.03-0.73L449,5.38c-7.68-4.44-20.26-4.44-27.94,0L15.8,239.58
			c-4.71,2.72-6.51,6.51-5.43,10.05l-0.33,0.2v7.67c0,8.05,4.3,15.49,11.28,19.51l205.63,118.35c7.69,4.43,20.26,4.43,27.95,0
			l404.6-233.75C668.52,156.41,671.98,145.11,667.43,135.74z"/>
		<path id="Trazado_2597" class="st6" d="M665.93,135.56l-1.2-2.45c-0.81-1.56-1.95-2.92-3.36-3.98c-0.26-0.23-0.57-0.45-0.86-0.68
			c-0.18-0.12-0.31-0.29-0.49-0.39l-0.32-0.18c-0.35-0.24-0.64-0.5-1.03-0.73l-210-121.24c-7.64-4.41-20.15-4.41-27.79,0
			L17.12,239.32c-4.69,2.71-6.48,6.48-5.41,10l-0.32,0.2v7.63c0,8.01,4.28,15.4,11.21,19.4l204.52,117.71
			c7.64,4.41,20.15,4.41,27.79,0l403.13-232.95C667.02,156.13,670.46,144.89,665.93,135.56z"/>
		<path id="Trazado_2598" class="st7" d="M664.43,135.39l-1.18-2.44c-0.8-1.55-1.95-2.91-3.34-3.96c-0.25-0.23-0.56-0.45-0.85-0.68
			c-0.18-0.11-0.31-0.28-0.49-0.39l-0.32-0.18c-0.35-0.24-0.63-0.5-1.02-0.73L448.37,6.44c-7.6-4.39-20.04-4.39-27.64,0
			L18.43,239.07c-4.67,2.7-6.44,6.44-5.38,9.95l-0.32,0.19v7.59c0,7.97,4.25,15.32,11.16,19.3l203.4,117.07
			c7.6,4.39,20.04,4.39,27.64,0l401.65-232.17C665.51,155.84,668.94,144.66,664.43,135.39z"/>
		<path id="Trazado_2599" class="st8" d="M662.93,135.22l-1.18-2.43c-0.8-1.55-1.93-2.89-3.32-3.93c-0.25-0.23-0.56-0.45-0.85-0.67
			c-0.17-0.11-0.3-0.28-0.48-0.39l-0.31-0.18c-0.35-0.24-0.63-0.5-1.02-0.72L448.05,6.98c-7.56-4.36-19.93-4.36-27.49,0
			L19.74,238.81c-4.64,2.68-6.4,6.41-5.34,9.89l-0.32,0.19v7.55c0,7.92,4.23,15.24,11.09,19.19l202.28,116.43
			c7.56,4.36,19.93,4.36,27.49,0l400.18-231.38C664,155.56,667.41,144.44,662.93,135.22z"/>
		<path id="Trazado_2600" class="st9" d="M661.43,135.05l-1.17-2.41c-0.79-1.54-1.93-2.87-3.31-3.91c-0.25-0.23-0.56-0.45-0.84-0.67
			c-0.18-0.11-0.3-0.28-0.48-0.38l-0.31-0.18c-0.35-0.23-0.63-0.5-1.02-0.72L447.74,7.51c-7.52-4.34-19.82-4.34-27.34,0
			L21.05,238.55c-4.62,2.66-6.37,6.37-5.32,9.84l-0.32,0.19v7.5c0,7.88,4.21,15.15,11.03,19.09l201.17,115.79
			c7.52,4.34,19.82,4.34,27.34,0l398.71-230.58C662.49,155.27,665.88,144.22,661.43,135.05z"/>
		<path id="Trazado_2601" class="st10" d="M659.93,134.88l-1.17-2.4c-0.79-1.53-1.91-2.86-3.29-3.89c-0.25-0.23-0.55-0.44-0.84-0.66
			c-0.17-0.11-0.3-0.28-0.48-0.38l-0.31-0.18c-0.34-0.23-0.63-0.49-1.01-0.71L447.42,8.05c-7.48-4.32-19.71-4.32-27.19,0
			L22.36,238.29c-4.59,2.65-6.33,6.34-5.29,9.78l-0.32,0.19v7.46c0,7.84,4.18,15.08,10.97,18.99l200.05,115.14
			c7.48,4.31,19.71,4.31,27.18,0l397.24-229.79C660.99,154.99,664.36,144,659.93,134.88z"/>
		<path id="Trazado_2602" class="st11" d="M658.43,134.71l-1.16-2.39c-0.78-1.52-1.9-2.84-3.27-3.87c-0.25-0.23-0.55-0.44-0.83-0.66
			c-0.17-0.11-0.3-0.28-0.48-0.38l-0.3-0.18c-0.34-0.23-0.62-0.49-1-0.71L447.11,8.58c-7.43-4.29-19.6-4.29-27.03,0L23.68,238.03
			c-4.56,2.64-6.3,6.3-5.26,9.73l-0.32,0.18v7.43c0,7.79,4.16,14.98,10.91,18.87l198.93,114.5c7.43,4.29,19.6,4.29,27.03,0
			l395.77-229C659.48,154.7,662.84,143.77,658.43,134.71z"/>
		<path id="Trazado_2603" class="st12" d="M656.93,134.53l-1.16-2.38c-0.78-1.51-1.89-2.82-3.25-3.84
			c-0.25-0.23-0.55-0.44-0.83-0.66c-0.17-0.11-0.3-0.28-0.48-0.38l-0.3-0.18c-0.34-0.23-0.62-0.49-1-0.71L446.79,9.12
			c-7.39-4.27-19.49-4.27-26.88,0L24.99,237.78c-4.54,2.62-6.27,6.27-5.23,9.68l-0.32,0.18v7.38c0,7.75,4.14,14.9,10.85,18.76
			l197.82,113.86c7.39,4.27,19.49,4.27,26.88,0l394.3-228.21C657.98,154.42,661.31,143.55,656.93,134.53z"/>
		<path id="Trazado_2604" class="st13" d="M655.43,134.36l-1.15-2.36c-0.78-1.5-1.88-2.81-3.23-3.83c-0.25-0.23-0.54-0.43-0.82-0.65
			c-0.17-0.11-0.29-0.27-0.47-0.38l-0.3-0.17c-0.34-0.23-0.61-0.48-0.99-0.7L446.48,9.65c-7.35-4.24-19.38-4.24-26.73,0
			L26.29,237.52c-4.51,2.6-6.23,6.23-5.2,9.62l-0.31,0.18v7.34c0,7.7,4.11,14.82,10.79,18.66l196.71,113.22
			c7.35,4.24,19.38,4.24,26.73,0l392.83-227.43C656.47,154.13,659.78,143.32,655.43,134.36z"/>
		<path id="Trazado_2605" class="st14" d="M653.92,134.19l-1.14-2.35c-0.77-1.49-1.87-2.79-3.22-3.8c-0.24-0.22-0.54-0.43-0.82-0.65
			c-0.17-0.11-0.3-0.27-0.47-0.37l-0.3-0.18c-0.34-0.23-0.61-0.48-0.98-0.7L446.16,10.19c-7.31-4.22-19.27-4.22-26.58,0
			L27.61,237.26c-4.49,2.59-6.19,6.2-5.17,9.57l-0.31,0.18v7.3c0,7.66,4.09,14.73,10.73,18.55l195.59,112.58
			c7.31,4.22,19.27,4.22,26.58,0L646.38,158.8C654.96,153.85,658.26,143.1,653.92,134.19z"/>
		<path id="Trazado_2606" class="st15" d="M652.42,134.01l-1.13-2.34c-0.77-1.48-1.86-2.78-3.2-3.78c-0.25-0.22-0.54-0.43-0.82-0.64
			c-0.17-0.11-0.29-0.27-0.47-0.37l-0.3-0.17c-0.34-0.23-0.61-0.48-0.98-0.7L445.85,10.72c-7.27-4.2-19.16-4.2-26.43,0L28.92,237
			c-4.46,2.58-6.16,6.16-5.14,9.51l-0.31,0.18v7.25c0,7.61,4.07,14.65,10.67,18.45l194.47,111.93c7.27,4.2,19.16,4.2,26.43,0
			l389.89-225.84C653.46,153.56,656.73,142.88,652.42,134.01z"/>
		<path id="Trazado_2607" class="st16" d="M650.93,133.84l-1.13-2.32c-0.76-1.48-1.85-2.76-3.18-3.76
			c-0.24-0.22-0.53-0.43-0.81-0.64c-0.17-0.11-0.29-0.27-0.47-0.37l-0.3-0.17c-0.33-0.23-0.6-0.48-0.97-0.69L445.53,11.26
			c-7.23-4.17-19.05-4.17-26.27,0L30.23,236.75c-4.44,2.56-6.12,6.12-5.11,9.45l-0.31,0.18v7.22c0,7.57,4.04,14.57,10.61,18.34
			l193.36,111.29c7.23,4.17,19.05,4.17,26.27,0l388.42-225.05C651.95,153.28,655.21,142.66,650.93,133.84z"/>
		<path id="Trazado_2608" class="st17" d="M649.43,133.67l-1.12-2.31c-0.76-1.47-1.84-2.75-3.16-3.74c-0.24-0.22-0.53-0.43-0.8-0.64
			c-0.16-0.11-0.29-0.27-0.46-0.37l-0.3-0.17c-0.33-0.23-0.6-0.47-0.97-0.69L445.21,11.79c-7.18-4.15-18.94-4.15-26.12,0
			L31.54,236.49c-4.41,2.54-6.09,6.08-5.08,9.4l-0.31,0.18v7.18c0,7.53,4.02,14.48,10.55,18.23l192.24,110.65
			c7.18,4.15,18.94,4.15,26.13,0L642,157.86C650.44,153,653.68,142.43,649.43,133.67z"/>
		<path id="Trazado_2609" class="st18" d="M647.93,133.5l-1.12-2.3c-0.75-1.46-1.83-2.73-3.14-3.71c-0.24-0.22-0.53-0.43-0.8-0.64
			c-0.17-0.11-0.29-0.27-0.46-0.36l-0.3-0.17c-0.33-0.23-0.59-0.47-0.96-0.68L444.9,12.33c-7.15-4.13-18.83-4.13-25.97,0
			L32.84,236.23c-4.38,2.53-6.05,6.05-5.05,9.35l-0.3,0.18v7.13c0,7.48,4,14.4,10.48,18.13l191.13,110c7.14,4.12,18.83,4.12,25.97,0
			l385.47-223.47C648.93,152.71,652.15,142.21,647.93,133.5z"/>
		<path id="Trazado_2610" class="st19" d="M646.43,133.33l-1.11-2.29c-0.75-1.45-1.82-2.72-3.13-3.7c-0.23-0.21-0.52-0.42-0.79-0.63
			c-0.16-0.11-0.28-0.27-0.46-0.36l-0.29-0.17c-0.33-0.22-0.59-0.47-0.96-0.68L444.59,12.87c-7.1-4.1-18.72-4.1-25.82,0
			L34.17,235.98c-4.36,2.52-6.02,6.01-5.02,9.29l-0.3,0.18v7.09c0,7.44,3.97,14.31,10.42,18.02l190,109.36
			c7.1,4.1,18.72,4.1,25.82,0l384-222.68C647.43,152.43,650.63,141.99,646.43,133.33z"/>
		<path id="Trazado_2611" class="st20" d="M644.92,133.15l-1.1-2.27c-0.75-1.44-1.81-2.7-3.11-3.68c-0.24-0.21-0.52-0.42-0.79-0.63
			c-0.16-0.11-0.28-0.27-0.45-0.36l-0.29-0.17c-0.33-0.22-0.59-0.46-0.95-0.68L444.27,13.4c-7.06-4.07-18.61-4.07-25.67,0
			L35.47,235.72c-4.34,2.5-5.98,5.98-5,9.23l-0.3,0.18v7.05c0,7.4,3.95,14.23,10.36,17.92l188.89,108.73
			c7.06,4.07,18.61,4.07,25.67,0l382.53-221.9C645.92,152.14,649.11,141.76,644.92,133.15z"/>
		<path id="Trazado_2612" class="st21" d="M643.43,132.98l-1.1-2.25c-0.74-1.44-1.79-2.68-3.09-3.65c-0.23-0.21-0.52-0.41-0.78-0.62
			c-0.16-0.11-0.28-0.26-0.45-0.36l-0.29-0.17c-0.32-0.22-0.59-0.46-0.95-0.67L443.95,13.93c-7.02-4.05-18.5-4.05-25.52,0
			L36.78,235.46c-4.31,2.48-5.95,5.94-4.96,9.18l-0.3,0.18v7.01c0,7.35,3.93,14.15,10.3,17.81L229.6,377.72
			c7.02,4.05,18.5,4.05,25.52,0l381.06-221.1C644.42,151.86,647.58,141.54,643.43,132.98z"/>
		<path id="Trazado_2613" class="st22" d="M641.92,132.81l-1.09-2.24c-0.74-1.43-1.79-2.67-3.07-3.63
			c-0.23-0.21-0.52-0.41-0.78-0.62c-0.16-0.11-0.28-0.26-0.45-0.36l-0.28-0.16c-0.32-0.22-0.58-0.46-0.94-0.67L443.64,14.47
			c-6.98-4.02-18.39-4.02-25.37,0L38.1,235.2c-4.29,2.47-5.91,5.91-4.93,9.13l-0.3,0.18v6.97c0,7.31,3.9,14.06,10.23,17.71
			l186.67,107.44c6.98,4.03,18.39,4.03,25.36,0L634.72,156.3C642.91,151.57,646.06,141.31,641.92,132.81z"/>
		<path id="Trazado_2614" class="st23" d="M640.42,132.63l-1.08-2.23c-0.73-1.42-1.77-2.65-3.05-3.61
			c-0.23-0.21-0.51-0.41-0.77-0.62c-0.16-0.1-0.28-0.26-0.45-0.36l-0.29-0.16c-0.32-0.22-0.58-0.46-0.93-0.66L443.32,15
			c-6.93-4-18.28-4-25.21,0L39.4,234.94c-4.25,2.46-5.88,5.87-4.9,9.07l-0.3,0.18v6.92c0,7.26,3.88,13.97,10.18,17.6l185.55,106.8
			c6.93,4,18.28,4,25.21,0l378.12-219.52C641.4,151.29,644.53,141.09,640.42,132.63z"/>
		<path id="Trazado_2615" class="st24" d="M638.92,132.46l-1.07-2.21c-0.73-1.41-1.76-2.63-3.03-3.59
			c-0.23-0.21-0.51-0.41-0.77-0.61c-0.16-0.1-0.28-0.26-0.44-0.35l-0.29-0.16c-0.32-0.21-0.58-0.45-0.93-0.66L443.01,15.54
			c-6.89-3.98-18.17-3.98-25.06,0L40.72,234.69c-4.23,2.44-5.84,5.84-4.88,9.02l-0.29,0.18v6.88c0,7.22,3.85,13.9,10.11,17.5
			L230.1,374.41c6.89,3.98,18.17,3.98,25.06,0L631.8,155.67C639.9,151,643,140.87,638.92,132.46z"/>
		<path id="Trazado_2616" class="st25" d="M637.42,132.29l-1.07-2.2c-0.72-1.4-1.75-2.62-3.01-3.56c-0.23-0.21-0.51-0.41-0.77-0.61
			c-0.16-0.11-0.28-0.26-0.44-0.35l-0.28-0.16c-0.32-0.22-0.57-0.45-0.92-0.66L442.69,16.07c-6.85-3.95-18.06-3.95-24.91,0
			L42.03,234.43c-4.21,2.43-5.8,5.8-4.85,8.96l-0.29,0.17v6.84c0,7.18,3.83,13.81,10.05,17.39L230.26,373.3
			c6.85,3.95,18.06,3.95,24.91,0l375.18-217.94C638.39,150.72,641.48,140.65,637.42,132.29z"/>
		<path id="Trazado_2617" class="st26" d="M635.92,132.12l-1.06-2.19c-0.72-1.39-1.74-2.61-3-3.54c-0.23-0.21-0.5-0.41-0.76-0.61
			c-0.16-0.11-0.27-0.25-0.44-0.35l-0.28-0.16c-0.32-0.21-0.57-0.45-0.92-0.65L442.38,16.61c-6.81-3.93-17.95-3.93-24.76,0
			L43.34,234.17c-4.18,2.41-5.77,5.77-4.82,8.91l-0.29,0.17v6.8c0,7.13,3.81,13.72,9.99,17.28l182.2,104.87
			c6.81,3.93,17.95,3.93,24.76,0l373.7-217.15C636.88,150.44,639.96,140.43,635.92,132.12z"/>
		<path id="Trazado_2618" class="st27" d="M634.42,131.94l-1.06-2.17c-0.71-1.39-1.73-2.59-2.98-3.52c-0.23-0.21-0.5-0.4-0.75-0.6
			c-0.16-0.1-0.28-0.25-0.44-0.34l-0.28-0.16c-0.31-0.21-0.57-0.45-0.91-0.65L442.06,17.14c-6.77-3.91-17.84-3.91-24.6,0
			L44.65,233.91c-4.16,2.4-5.73,5.73-4.79,8.85l-0.29,0.17v6.76c0,7.09,3.79,13.64,9.93,17.18L230.59,371.1
			c6.77,3.9,17.84,3.9,24.61,0l372.23-216.37C635.38,150.15,638.43,140.2,634.42,131.94z"/>
		<path id="Trazado_2619" class="st28" d="M632.92,131.77l-1.05-2.16c-0.71-1.37-1.72-2.57-2.96-3.5c-0.23-0.21-0.5-0.4-0.75-0.6
			c-0.16-0.1-0.27-0.25-0.43-0.34l-0.28-0.16c-0.31-0.21-0.56-0.44-0.91-0.64L441.74,17.68c-6.72-3.88-17.73-3.88-24.45,0
			L45.96,233.65c-4.13,2.38-5.7,5.7-4.75,8.8l-0.29,0.17v6.72c0,7.05,3.76,13.55,9.87,17.07l179.97,103.59
			c6.73,3.88,17.73,3.88,24.46,0l370.76-215.57C633.87,149.86,636.9,139.98,632.92,131.77z"/>
		<path id="Trazado_2620" class="st29" d="M631.42,131.6l-1.04-2.14c-0.7-1.37-1.71-2.56-2.94-3.48c-0.23-0.21-0.5-0.39-0.75-0.59
			c-0.15-0.1-0.27-0.25-0.43-0.34l-0.27-0.16c-0.31-0.21-0.56-0.44-0.9-0.64L441.43,18.21c-6.68-3.86-17.62-3.86-24.3,0L47.27,233.4
			c-4.1,2.37-5.66,5.66-4.73,8.75l-0.29,0.16v6.68c0,7,3.74,13.47,9.81,16.96l178.85,102.95c6.68,3.86,17.62,3.86,24.3,0
			l369.29-214.78C632.36,149.58,635.38,139.75,631.42,131.6z"/>
		<path id="Trazado_2621" class="st30" d="M629.92,131.43l-1.03-2.13c-0.7-1.36-1.7-2.54-2.92-3.46c-0.22-0.21-0.49-0.39-0.74-0.59
			c-0.16-0.1-0.27-0.25-0.43-0.34l-0.27-0.16c-0.3-0.21-0.55-0.44-0.9-0.64L441.12,18.75c-6.64-3.83-17.51-3.83-24.15,0
			L48.58,233.14c-4.08,2.35-5.63,5.63-4.7,8.69L43.6,242v6.63c0,6.96,3.72,13.39,9.75,16.86l177.74,102.3
			c6.64,3.84,17.51,3.84,24.15,0L623.06,153.8C630.86,149.3,633.85,139.53,629.92,131.43z"/>
		<path id="Trazado_2622" class="st31" d="M628.42,131.26l-1.03-2.12c-0.7-1.35-1.69-2.52-2.91-3.43c-0.22-0.2-0.49-0.39-0.74-0.59
			c-0.15-0.1-0.27-0.25-0.43-0.34l-0.27-0.16c-0.3-0.21-0.55-0.43-0.89-0.63L440.8,19.28c-6.6-3.81-17.4-3.81-24,0L49.89,232.88
			c-4.05,2.34-5.59,5.59-4.67,8.64l-0.28,0.16v6.59c0,6.92,3.69,13.3,9.69,16.75l176.62,101.66c6.6,3.81,17.4,3.81,24,0
			l366.35-213.2C629.35,149.01,632.33,139.31,628.42,131.26z"/>
		<path id="Trazado_2623" class="st32" d="M626.92,131.08l-1.02-2.11c-0.69-1.34-1.68-2.51-2.88-3.41c-0.22-0.2-0.49-0.39-0.73-0.58
			c-0.15-0.1-0.27-0.24-0.43-0.33l-0.27-0.16c-0.3-0.21-0.55-0.43-0.88-0.63L440.49,19.82c-6.56-3.79-17.29-3.79-23.85,0
			L51.2,232.62c-4.03,2.32-5.56,5.55-4.64,8.58l-0.28,0.16v6.55c0,6.87,3.67,13.22,9.63,16.65l175.5,101.02
			c6.56,3.78,17.29,3.78,23.85,0l364.88-212.41C627.85,148.73,630.8,139.08,626.92,131.08z"/>
		<path id="Trazado_2624" class="st33" d="M625.42,130.91l-1.02-2.1c-0.69-1.33-1.67-2.49-2.87-3.39c-0.22-0.2-0.48-0.38-0.73-0.58
			c-0.15-0.1-0.26-0.24-0.42-0.33l-0.27-0.16c-0.3-0.2-0.54-0.43-0.88-0.62L440.17,20.35c-6.52-3.76-17.18-3.76-23.7,0L52.51,232.37
			c-4,2.31-5.52,5.52-4.61,8.53l-0.28,0.16v6.5c0,6.83,3.65,13.14,9.57,16.54l174.39,100.38c6.52,3.76,17.18,3.76,23.7,0
			l363.4-211.61C626.34,148.44,629.28,138.86,625.42,130.91z"/>
		<path id="Trazado_2625" class="st34" d="M623.92,130.74l-1.01-2.08c-0.68-1.32-1.66-2.48-2.85-3.37c-0.22-0.2-0.48-0.38-0.73-0.57
			c-0.15-0.1-0.26-0.24-0.41-0.33l-0.27-0.15c-0.3-0.2-0.54-0.43-0.87-0.62L439.85,20.89c-6.48-3.74-17.07-3.74-23.54,0
			L53.83,232.11c-3.98,2.29-5.48,5.48-4.58,8.47l-0.28,0.16v6.47c0,6.78,3.62,13.05,9.5,16.43l173.27,99.73
			c6.48,3.74,17.07,3.74,23.55,0l361.94-210.83C624.83,148.16,627.75,138.64,623.92,130.74z"/>
		<path id="Trazado_2626" class="st35" d="M622.42,130.56l-1-2.07c-0.68-1.32-1.65-2.46-2.83-3.35c-0.22-0.2-0.48-0.38-0.72-0.57
			c-0.15-0.1-0.26-0.24-0.41-0.33l-0.27-0.15c-0.3-0.2-0.54-0.43-0.87-0.62L439.54,21.42c-6.43-3.71-16.96-3.71-23.39,0
			L55.14,231.85c-3.95,2.28-5.45,5.45-4.55,8.42l-0.27,0.16v6.43c0,6.74,3.6,12.97,9.44,16.33l172.16,99.09
			c6.43,3.71,16.96,3.71,23.39,0l360.46-210.04C623.33,147.87,626.23,138.41,622.42,130.56z"/>
		<path id="Trazado_2627" class="st36" d="M620.92,130.39l-1-2.05c-0.67-1.31-1.63-2.45-2.81-3.33c-0.21-0.2-0.47-0.38-0.72-0.57
			c-0.15-0.1-0.26-0.24-0.41-0.33l-0.27-0.15c-0.29-0.2-0.53-0.42-0.86-0.61L439.22,21.96c-6.39-3.69-16.85-3.69-23.24,0
			L56.45,231.59c-3.92,2.27-5.41,5.41-4.52,8.36l-0.27,0.16v6.38c0,6.7,3.58,12.88,9.38,16.23l171.04,98.45
			c6.39,3.69,16.85,3.69,23.24,0l358.99-209.25C621.82,147.59,624.7,138.19,620.92,130.39z"/>
		<path id="Trazado_2628" class="st37" d="M619.41,130.22l-0.99-2.04c-0.67-1.3-1.62-2.43-2.79-3.3c-0.22-0.2-0.47-0.38-0.71-0.57
			c-0.15-0.09-0.26-0.23-0.41-0.32l-0.26-0.15c-0.29-0.2-0.53-0.42-0.86-0.61L438.91,22.49c-6.35-3.67-16.74-3.67-23.09,0
			L57.76,231.33c-3.9,2.25-5.38,5.38-4.49,8.31L53,239.8v6.34c0,6.65,3.55,12.8,9.32,16.12l169.93,97.8
			c6.35,3.66,16.74,3.66,23.09,0L612.85,151.6C620.31,147.3,623.18,137.96,619.41,130.22z"/>
		<path id="Trazado_2629" class="st38" d="M617.91,130.05l-0.98-2.03c-0.66-1.29-1.61-2.41-2.77-3.28c-0.21-0.2-0.47-0.38-0.71-0.56
			c-0.15-0.09-0.25-0.23-0.41-0.32l-0.26-0.15c-0.29-0.2-0.53-0.41-0.85-0.6L438.59,23.03c-6.31-3.64-16.63-3.64-22.94,0
			L59.07,231.08c-3.87,2.23-5.34,5.34-4.46,8.25l-0.27,0.16v6.3c0,6.61,3.53,12.72,9.26,16.02l168.81,97.16
			c6.31,3.64,16.63,3.64,22.94,0L611.4,151.29C618.81,147.02,621.65,137.74,617.91,130.05z"/>
		<path id="Trazado_2630" class="st39" d="M616.41,129.88l-0.98-2.02c-0.66-1.28-1.6-2.4-2.76-3.26c-0.21-0.19-0.46-0.37-0.7-0.55
			c-0.15-0.09-0.25-0.23-0.4-0.32l-0.26-0.15c-0.29-0.2-0.52-0.41-0.84-0.6l-172.2-99.42c-6.27-3.62-16.52-3.62-22.78,0
			L60.38,230.82c-3.85,2.22-5.31,5.31-4.43,8.2l-0.27,0.16v6.26c0,6.57,3.51,12.63,9.2,15.91l167.7,96.52
			c6.27,3.62,16.52,3.62,22.79,0l354.57-206.88C617.3,146.73,620.13,137.52,616.41,129.88z"/>
		<path id="Trazado_2631" class="st40" d="M614.91,129.71l-0.97-2c-0.66-1.27-1.59-2.38-2.74-3.24c-0.21-0.19-0.46-0.37-0.7-0.55
			c-0.15-0.09-0.25-0.23-0.4-0.32l-0.25-0.14c-0.29-0.2-0.52-0.41-0.84-0.6L437.96,24.1c-6.23-3.59-16.41-3.59-22.64,0L61.69,230.56
			c-3.82,2.21-5.27,5.27-4.4,8.15l-0.27,0.16v6.22c0,6.52,3.48,12.54,9.13,15.8l166.58,95.88c6.23,3.59,16.41,3.59,22.64,0
			l353.11-206.09C615.79,146.45,618.6,137.3,614.91,129.71z"/>
		<path id="Trazado_2632" class="st41" d="M613.41,129.53l-0.97-1.98c-0.65-1.26-1.58-2.36-2.72-3.22c-0.21-0.19-0.46-0.37-0.7-0.55
			c-0.14-0.09-0.25-0.23-0.4-0.32l-0.25-0.15c-0.28-0.2-0.52-0.41-0.83-0.59l-169.9-98.09c-6.18-3.57-16.3-3.57-22.48,0L63,230.3
			c-3.8,2.19-5.24,5.24-4.37,8.09l-0.27,0.16v6.18c0,6.48,3.46,12.47,9.07,15.7l165.46,95.23c6.18,3.57,16.3,3.57,22.48,0
			l351.64-205.3C614.29,146.16,617.08,137.07,613.41,129.53z"/>
		<path id="Trazado_2633" class="st42" d="M611.91,129.36l-0.96-1.97c-0.65-1.26-1.57-2.35-2.7-3.2c-0.21-0.19-0.46-0.36-0.69-0.55
			c-0.15-0.09-0.25-0.23-0.4-0.31l-0.25-0.14c-0.28-0.2-0.52-0.41-0.83-0.59L437.33,25.17c-6.14-3.55-16.19-3.55-22.33,0
			L64.31,230.05c-3.77,2.18-5.2,5.2-4.34,8.03l-0.26,0.16v6.13c0,6.43,3.44,12.38,9.01,15.59l164.35,94.59
			c6.14,3.54,16.19,3.54,22.34,0l350.17-204.51C612.78,145.88,615.55,136.85,611.91,129.36z"/>
	</g>
	<g id="Grupo_1125" transform="translate(15.849)">
		<g id="Grupo_1124">
			
				<linearGradient id="Trazado_2634_1_" gradientUnits="userSpaceOnUse" x1="-183.1292" y1="431.9322" x2="-184.1242" y2="432.6632" gradientTransform="matrix(653.092 0 0 -392.1843 119512.3281 169409.3438)">
				<stop  offset="0.038" style="stop-color:#A5CBEF"/>
				<stop  offset="0.223" style="stop-color:#B9D6F2"/>
				<stop  offset="0.525" style="stop-color:#D3E6F7"/>
				<stop  offset="0.794" style="stop-color:#E4EFF9"/>
				<stop  offset="1" style="stop-color:#EAF3FB"/>
			</linearGradient>
			<path id="Trazado_2634" class="st43" d="M4.68,252.09v-7.63L411.84,5.29c7.65-4.41,16.64-7.11,24.28-2.69l213.76,122.72
				c2.04,1.17,3.68,2.93,4.71,5.05l1.19,2.46c4.53,9.32,1.08,20.56-7.9,25.75L248.24,389.22c-7.65,4.41-20.15,4.41-27.79,0
				L15.9,271.49C8.96,267.49,4.68,260.09,4.68,252.09z"/>
			<path id="Trazado_2635" class="st44" d="M10.41,250.31c-7.64-4.41-7.64-11.63,0-16.05L410.71,3.15c7.64-4.41,20.15-4.41,27.79,0
				l210.03,121.26c7.64,4.41,7.64,11.64,0,16.05l-400.3,231.11c-7.65,4.41-20.15,4.41-27.79,0L10.41,250.31z"/>
			<path id="Trazado_2636" class="st45" d="M19.25,249.7c-7.36-4.25-7.36-11.2,0-15.45L410.75,8.28c7.36-4.25,19.4-4.25,26.75,0
				l36.72,21.75c1.7,0.99,2.27,3.18,1.28,4.88c-0.26,0.44-0.61,0.82-1.03,1.12l-4.05,2.84c-1.94,1.13-2.61,3.61-1.48,5.55
				c0.36,0.61,0.87,1.12,1.48,1.48l99.91,57.33c2.66,1.54,5.92,1.59,8.62,0.13l8.68-4.68c1.99-1.07,4.39-1.04,6.35,0.09l45.73,26.23
				c7.36,4.25,7.36,11.2,0,15.45l-391.5,225.97c-7.36,4.25-19.4,4.25-26.75,0L19.25,249.7z"/>
			<g id="Grupo_1123" transform="translate(497.813 53.154)">
				<path id="Trazado_2637" class="st45" d="M49.97,27.69c-0.22,0-0.43-0.06-0.62-0.17L5.29,2.15C4.71,1.8,4.52,1.04,4.86,0.45
					C5.21-0.13,5.95-0.32,6.53,0L50.6,25.38c0.59,0.34,0.79,1.1,0.45,1.69C50.82,27.46,50.42,27.69,49.97,27.69L49.97,27.69z"/>
			</g>
		</g>
	</g>
</g>
<linearGradient id="Trazado_2638_1_" gradientUnits="userSpaceOnUse" x1="-166.2725" y1="708.0537" x2="-167.3285" y2="707.2127" gradientTransform="matrix(291.266 0 0 -231.709 48945.7656 164420.0313)">
	<stop  offset="0" style="stop-color:#4A65A3"/>
	<stop  offset="0.356" style="stop-color:#47619D"/>
	<stop  offset="0.783" style="stop-color:#40578F"/>
	<stop  offset="1" style="stop-color:#3C5185"/>
</linearGradient>
<path id="Trazado_2638" class="st46" d="M218.26,575.22l-4.33-7.24l83.99-50.25l15.26,8.81l74.88-42.05l-83.26-49.39l156.62-91.58
	l43.78,25.28l-4.22,7.31l-39.57-22.84l-139.91,81.93l83.44,49.49l-91.82,51.56l-15.12-8.72L218.26,575.22z"/>
<linearGradient id="Trazado_2639_1_" gradientUnits="userSpaceOnUse" x1="-168.4985" y1="708.2625" x2="-167.4985" y2="708.2625" gradientTransform="matrix(60.341 0 0 -34.836 10338.5166 25250.0332)">
	<stop  offset="0" style="stop-color:#4A65A3"/>
	<stop  offset="0.356" style="stop-color:#47619D"/>
	<stop  offset="0.783" style="stop-color:#40578F"/>
	<stop  offset="1" style="stop-color:#3C5185"/>
</linearGradient>
<path id="Trazado_2639" class="st47" d="M179.96,589.31c11.75,6.79,30.97,6.79,42.72,0c11.75-6.78,11.75-17.88,0-24.66
	s-30.97-6.79-42.72,0C168.21,571.43,168.22,582.53,179.96,589.31z"/>
<linearGradient id="Trazado_2640_1_" gradientUnits="userSpaceOnUse" x1="-168.4986" y1="708.2625" x2="-167.4986" y2="708.2625" gradientTransform="matrix(60.338 0 0 -34.8355 10645.1172 25051.5762)">
	<stop  offset="0" style="stop-color:#4A65A3"/>
	<stop  offset="0.356" style="stop-color:#47619D"/>
	<stop  offset="0.783" style="stop-color:#40578F"/>
	<stop  offset="1" style="stop-color:#3C5185"/>
</linearGradient>
<path id="Trazado_2640" class="st48" d="M487.06,391.22c11.75,6.78,30.97,6.78,42.72,0c11.75-6.78,11.75-17.88,0-24.66
	c-11.75-6.78-30.97-6.78-42.72,0S475.32,384.44,487.06,391.22z"/>
<g id="Grupo_1127" transform="translate(161.032 130.2)">
	
		<linearGradient id="Trazado_2641_1_" gradientUnits="userSpaceOnUse" x1="-306.8221" y1="577.7698" x2="-305.8221" y2="577.7698" gradientTransform="matrix(42.912 0 0 -56.5403 14171.6152 32695.4102)">
		<stop  offset="0" style="stop-color:#3C5185"/>
		<stop  offset="0.128" style="stop-color:#41578D"/>
		<stop  offset="0.695" style="stop-color:#5572B0"/>
		<stop  offset="1" style="stop-color:#5D7DBE"/>
	</linearGradient>
	<path id="Trazado_2641" class="st49" d="M4.68,39.88c0-13.63,9.66-30.35,21.46-37.16c4.18-2.41,8.07-3.24,11.38-2.75l0.02-0.02
		L37.7,0c0.81,0.13,1.6,0.36,2.36,0.66l5.3,1.5L43.7,3.2c2.45,2.61,3.89,6.66,3.89,11.91c0,13.63-9.66,30.36-21.46,37.17
		c-2.29,1.37-4.82,2.3-7.46,2.72l0.22,1.38l-4.65-1.42c-0.68-0.14-1.35-0.34-2-0.61l-0.12-0.04l-0.01-0.02
		C7.57,52.35,4.68,47.33,4.68,39.88z"/>
	
		<linearGradient id="Trazado_2642_1_" gradientUnits="userSpaceOnUse" x1="-317.6719" y1="565.8005" x2="-318.6489" y2="566.7784" gradientTransform="matrix(42.918 0 0 -55.3749 14179.6104 32023.7715)">
		<stop  offset="0" style="stop-color:#3C5185"/>
		<stop  offset="0.128" style="stop-color:#41578D"/>
		<stop  offset="0.695" style="stop-color:#5572B0"/>
		<stop  offset="1" style="stop-color:#5D7DBE"/>
	</linearGradient>
	<path id="Trazado_2642" class="st50" d="M32.16,4.49c11.8-6.81,21.46-1.24,21.46,12.39s-9.66,30.35-21.46,37.17
		S10.7,55.29,10.7,41.66S20.36,11.31,32.16,4.49z"/>
	
		<linearGradient id="Trazado_2643_1_" gradientUnits="userSpaceOnUse" x1="-135.948" y1="578.1809" x2="-134.948" y2="578.1809" gradientTransform="matrix(24.5248 0 0 -30.1535 8155.2305 17463.4531)">
		<stop  offset="0.15" style="stop-color:#FF9800"/>
		<stop  offset="1" style="stop-color:#FFC107"/>
	</linearGradient>
	<path id="Trazado_2643" class="st51" d="M32.96,14.35l2.92,6.45l8.02-4.42c0.17-0.09,0.39-0.03,0.48,0.15
		c0.05,0.1,0.06,0.23,0,0.33l-5.32,10.08l1.65,8.56c0.06,0.32-0.15,0.62-0.46,0.68c-0.04,0.01-0.07,0.01-0.11,0.01l-6.71-0.66
		l-7.15,8.71c-0.13,0.15-0.35,0.16-0.5,0.03c-0.09-0.08-0.13-0.19-0.12-0.3l1.03-9.54l-6.63-3.72c-0.15-0.08-0.2-0.26-0.13-0.41
		c0.03-0.05,0.07-0.1,0.13-0.13l8.59-4.96l3.83-10.84c0.05-0.14,0.2-0.21,0.33-0.16C32.87,14.24,32.93,14.28,32.96,14.35z"/>
</g>
<g id="Grupo_1130" transform="translate(149.93 384.971)">
	<g id="Grupo_1128">
		
			<linearGradient id="Trazado_2644_1_" gradientUnits="userSpaceOnUse" x1="-316.3977" y1="320.7098" x2="-316.8187" y2="321.5838" gradientTransform="matrix(91.5663 0 0 -160.8791 29127.9629 51995.0156)">
			<stop  offset="0" style="stop-color:#FFC107"/>
			<stop  offset="0.85" style="stop-color:#FF9800"/>
		</linearGradient>
		<path id="Trazado_2644" class="st52" d="M17.42,32.46c0,9.77,2.34,20.29,6.38,30.5l-0.01-0.01l27.65,69.02h-7.41l8.21,28.74
			l15.85-8.47l34.11-41.26l0,0c3.32-3.99,5.48-8.81,6.23-13.95c0.44-3.89,0.62-7.81,0.53-11.73c0-29.07-20.6-64.75-45.77-79.28
			C51.5-0.72,40.8-1.76,32.69,1.96l0,0l-0.02,0.01c-0.76,0.36-1.51,0.75-2.23,1.19l-13.02,6.97l4.5,2.14
			C19.04,17.52,17.42,24.32,17.42,32.46z M38.61,44.7c0-15.61,11.06-22,24.58-14.19s24.58,26.96,24.58,42.58s-11.06,22-24.58,14.19
			S38.61,60.31,38.61,44.7z"/>
		<path id="Trazado_2645" class="st53" d="M17.42,32.46c0,9.77,2.34,20.29,6.38,30.5l-0.01-0.01l27.65,69.02h-7.41l8.21,28.74
			l15.85-8.47l34.11-41.26l0,0c3.32-3.99,5.48-8.81,6.23-13.95c0.44-3.89,0.62-7.81,0.53-11.73c0-29.07-20.6-64.75-45.77-79.28
			C51.5-0.72,40.8-1.76,32.69,1.96l0,0l-0.02,0.01c-0.76,0.36-1.51,0.75-2.23,1.19l-13.02,6.97l4.5,2.14
			C19.04,17.52,17.42,24.32,17.42,32.46z M38.61,44.7c0-15.61,11.06-22,24.58-14.19s24.58,26.96,24.58,42.58s-11.06,22-24.58,14.19
			S38.61,60.31,38.61,44.7z"/>
		
			<linearGradient id="Trazado_2646_1_" gradientUnits="userSpaceOnUse" x1="-318.6017" y1="322.7004" x2="-317.6017" y2="322.7004" gradientTransform="matrix(91.5471 0 0 -154.9873 29109.1309 50098.1016)">
			<stop  offset="0.15" style="stop-color:#FF9800"/>
			<stop  offset="1" style="stop-color:#FFC107"/>
		</linearGradient>
		<path id="Trazado_2646" class="st54" d="M11.06,69.76L11.06,69.76l38.08,90.13c0.44,1.04,1.64,1.52,2.67,1.08
			c0.3-0.13,0.57-0.33,0.78-0.58L90.03,115h-0.02c3.94-5.52,6.22-13.26,6.22-22.89c0-28.98-20.47-64.52-45.54-79.14
			C24.48-2.32,4.73,8.82,4.68,39.17C4.66,48.97,7,59.52,11.06,69.76z"/>
	</g>
	<g id="Grupo_1129" transform="translate(30.867 31.405)">
		<path id="Trazado_2647" class="st42" d="M23.69,67.81L5.5,57.53L4.68-0.17l16.16,9.13c2.68,1.49,5.13,3.35,7.3,5.52
			c1.89,1.87,3.46,4.03,4.66,6.4c1.8,3.63,2.81,7.6,2.94,11.65c0.07,4.51-0.94,7.28-3.01,8.29c-0.46,0.27-0.95,0.47-1.46,0.61
			c-0.28,0.04-0.77,0.07-1.47,0.11c2.64,2.3,4.76,5.13,6.22,8.31c1.54,3.26,2.37,6.81,2.42,10.41c0.05,4.02-0.89,7.01-2.82,8.97
			C33.37,71.5,29.39,71.03,23.69,67.81z M14.29,28.44l4.39,2.49c2.58,1.45,4.48,2.15,5.72,2.08c1.23-0.07,1.83-1.38,1.8-3.93
			c0.09-2.16-0.54-4.29-1.8-6.05c-1.64-1.86-3.62-3.4-5.84-4.52l-4.46-2.52L14.29,28.44z M14.62,51.88l6.36,3.59
			c2.66,1.5,4.64,2.18,5.96,2.02c1.32-0.16,1.95-1.57,1.91-4.24c0.07-2.35-0.7-4.65-2.18-6.48c-1.96-2.06-4.24-3.78-6.76-5.09
			l-5.46-3.09L14.62,51.88z"/>
	</g>
</g>
<g id="Grupo_1134" transform="translate(451.853 200.332)">
	<g id="Grupo_1131">
		
			<linearGradient id="Trazado_2648_1_" gradientUnits="userSpaceOnUse" x1="-618.4518" y1="505.4336" x2="-618.8718" y2="506.3076" gradientTransform="matrix(82.0209 0 0 -144.1066 50853.9414 73184.7266)">
			<stop  offset="0" style="stop-color:#FFC107"/>
			<stop  offset="0.85" style="stop-color:#FF9800"/>
		</linearGradient>
		<path id="Trazado_2648" class="st55" d="M82.64,10.98l4.04-1.91L75.01,2.82c-0.64-0.4-1.31-0.75-2-1.07L73,1.75l0,0
			c-7.27-3.34-16.85-2.4-27.32,3.64c-22.55,13.02-41,44.98-41,71.02c-0.08,3.51,0.08,7.01,0.47,10.5c0.67,4.6,2.61,8.92,5.58,12.49
			l0,0l30.55,36.96l14.2,7.59l7.35-25.75H56.2l24.77-61.82l-0.01,0.01c3.59-8.67,5.53-17.94,5.72-27.32
			C86.68,21.76,85.23,15.67,82.64,10.98z M45.68,78.16c-12.11,6.99-22.02,1.27-22.02-12.71s9.91-31.14,22.02-38.14
			S67.7,26.03,67.7,40.02S57.79,71.17,45.68,78.16L45.68,78.16z"/>
		<path id="Trazado_2649" class="st53" d="M82.64,10.98l4.04-1.91L75.01,2.82c-0.64-0.4-1.31-0.75-2-1.07L73,1.75l0,0
			c-7.27-3.34-16.85-2.4-27.32,3.64c-22.55,13.02-41,44.98-41,71.02c-0.08,3.51,0.08,7.01,0.47,10.5c0.67,4.6,2.61,8.92,5.58,12.49
			l0,0l30.55,36.96l14.2,7.59l7.35-25.75H56.2l24.77-61.82l-0.01,0.01c3.59-8.67,5.53-17.94,5.72-27.32
			C86.68,21.76,85.23,15.67,82.64,10.98z M45.68,78.16c-12.11,6.99-22.02,1.27-22.02-12.71s9.91-31.14,22.02-38.14
			S67.7,26.03,67.7,40.02S57.79,71.17,45.68,78.16L45.68,78.16z"/>
		
			<linearGradient id="Trazado_2650_1_" gradientUnits="userSpaceOnUse" x1="-627.3657" y1="507.3593" x2="-626.3657" y2="507.3593" gradientTransform="matrix(82.004 0 0 -138.8301 50854.9492 70511.6719)">
			<stop  offset="0.15" style="stop-color:#FF9800"/>
			<stop  offset="1" style="stop-color:#FFC107"/>
		</linearGradient>
		<path id="Trazado_2650" class="st56" d="M98.09,35.06C98.05,7.88,80.36-2.1,56.87,11.6C34.42,24.7,16.09,56.53,16.09,82.49
			c0,8.63,2.04,15.56,5.57,20.51h-0.02l33.54,40.66c0.64,0.78,1.79,0.89,2.57,0.25c0.23-0.19,0.4-0.43,0.52-0.7l34.12-80.74
			l-0.01,0.01C96.01,53.3,98.1,43.84,98.09,35.06z"/>
	</g>
	<g id="Grupo_1133" transform="translate(36.859 32.974)">
		<g id="Grupo_1132">
			<path id="Trazado_2651" class="st42" d="M28.94,43.16l-2.37-8.54L14.5,41.4l-2.98,11.55l-6.84,3.84L18.54,3.33l6.22-3.5
				l11.03,39.48L28.94,43.16z M21.24,15.4l-4.04,15.53l7.21-4.05L21.24,15.4z"/>
		</g>
	</g>
</g>
<g id="Grupo_1137" transform="translate(101.106 129.364)">
	<g id="Grupo_1136">
		<g id="Grupo_1135">
			<path id="Trazado_2652" class="st57" d="M222.72,9.57v99.11c0,6.15-3.28,11.83-8.6,14.91L91.89,194.85l-20.78,37.74
				c-1.18,4.34-5.66,6.9-10.01,5.72c-0.54-0.15-1.06-0.35-1.56-0.6L46.67,221.3l-27.32,16.18c-4.62,2.73-10.59,1.21-13.32-3.42
				c-0.89-1.5-1.36-3.21-1.36-4.95V128.56c0-6.15,3.28-11.84,8.61-14.91L208.14,1.15c4.65-2.68,10.6-1.09,13.28,3.56
				C222.27,6.19,222.72,7.87,222.72,9.57z"/>
		</g>
		
			<linearGradient id="Trazado_2653_1_" gradientUnits="userSpaceOnUse" x1="-268.5245" y1="578.2471" x2="-267.5245" y2="578.2471" gradientTransform="matrix(216.04 0 0 -238.9663 58016.7148 138300.9531)">
			<stop  offset="0" style="stop-color:#7EA7DF"/>
			<stop  offset="1" style="stop-color:#FFFFFF"/>
		</linearGradient>
		<path id="Trazado_2653" class="st58" d="M14.5,238.83c-5.37,0.06-9.76-4.25-9.82-9.62c0-0.03,0-0.07,0-0.1V128.56
			c0-6.15,3.28-11.84,8.61-14.91L208.14,1.15c4.25-2.45,9.66-1.32,12.58,2.62c-1.67,0.01-3.32,0.45-4.77,1.29L21.1,117.55
			c-5.33,3.08-8.61,8.76-8.61,14.91v100.56C12.5,235.13,13.2,237.17,14.5,238.83z M49.91,219.38l-3.24,1.92l12.88,16.41
			c1.64,0.84,3.52,1.1,5.32,0.73L49.91,219.38z"/>
	</g>
	<path id="Trazado_2654" class="st59" d="M208.89,41.29L32.99,144.96v7.52l175.9-103.33V41.29z"/>
	<path id="Trazado_2655" class="st59" d="M208.89,64.67L32.99,168.33v7.52l175.9-103.33L208.89,64.67z"/>
	<path id="Trazado_2656" class="st59" d="M107.63,147.3l-75.51,44.31v7.52l75.51-43.98L107.63,147.3z"/>
</g>
<path id="Trazado_2657" class="st53" d="M323.82,138.94c0-3.81-2.25-7.26-5.74-8.79c-0.2-0.09-0.4-0.18-0.61-0.26
	c-0.97-0.39-2-0.61-3.05-0.66c-0.21-0.01-0.43,0.02-0.64,0.03c-0.56,0.02-1.12,0.08-1.68,0.2c-0.22,0.05-0.44,0.1-0.66,0.16
	c-0.77,0.21-1.51,0.51-2.21,0.91l-88.59,51.14v58.63v0.01c0,0.73,0.1,1.46,0.3,2.16c0.05,0.16,0.09,0.31,0.15,0.46
	c0.19,0.56,0.47,1.09,0.85,1.55l0.01,0.01c0.37,0.41,0.83,0.74,1.34,0.95c0.1,0.04,0.2,0.08,0.31,0.12
	c1.64,0.45,3.38,0.16,4.79-0.79l95.42-55.09V138.94z"/>
<g id="Grupo_1144" transform="translate(223.79 53.964)">
	<g id="Grupo_1138">
		<path id="Trazado_2658" class="st60" d="M12.44,83.21c-4.57,2.99-7.45,7.98-7.76,13.43v74.05c0,4.93,3.49,6.94,7.76,4.48
			l143.77-83c4.56-2.99,7.41-7.99,7.64-13.43L162.9,5.37c-0.06-4.93-3.61-6.94-7.87-4.48L12.44,83.21z"/>
		
			<linearGradient id="Trazado_2659_1_" gradientUnits="userSpaceOnUse" x1="-397.7523" y1="653.6866" x2="-396.7523" y2="653.6866" gradientTransform="matrix(157.704 0 0 -176.3642 61724.2383 115374.9453)">
			<stop  offset="0" style="stop-color:#3C5185"/>
			<stop  offset="0.6" style="stop-color:#435B95"/>
			<stop  offset="1" style="stop-color:#4A65A3"/>
		</linearGradient>
		<path id="Trazado_2659" class="st61" d="M8.87,173.49V99.44c0.31-5.46,3.19-10.44,7.76-13.43L159.22,3.68
			c0.96-0.59,2.04-0.94,3.16-1.02c-1.12-2.84-4-3.71-7.36-1.77L12.44,83.21c-4.57,2.99-7.45,7.98-7.76,13.43v74.05
			c0,3.66,1.93,5.7,4.67,5.5C9.03,175.33,8.86,174.42,8.87,173.49z"/>
	</g>
	<g id="Grupo_1139" transform="translate(18.423 63.63)">
		<path id="Trazado_2660" class="st62" d="M4.68,49.66L82.49,4.88l0.01-5.04L4.68,44.54L4.68,49.66z"/>
	</g>
	<g id="Grupo_1140" transform="translate(18.423 80.894)">
		<path id="Trazado_2661" class="st62" d="M4.68,49.52L82.5,4.87v-5.04L4.68,44.54L4.68,49.52z"/>
	</g>
	<g id="Grupo_1141" transform="translate(20.794 118.087)">
		<path id="Trazado_2662" class="st62" d="M4.68,29.64L47.97,4.87v-5.04L4.68,24.66V29.64z"/>
	</g>
	<g id="Grupo_1143" transform="translate(104.024 35.359)">
		<path id="Trazado_2663" class="st63" d="M27.85,2.98C40.6-4.38,51.03,1.64,51.03,16.36S40.6,49.14,27.85,56.5
			S4.68,57.83,4.68,43.12S15.11,10.34,27.85,2.98z"/>
		<g id="Grupo_1142" transform="translate(20.551 13.446)">
			<path id="Trazado_2664" class="st60" d="M7.25,7.42c-0.54,0.42-1.3,0.42-1.85,0C4.85,6.85,4.59,6.06,4.68,5.27
				c0.02-1.05,0.29-2.09,0.79-3.02c0.41-0.87,1.06-1.6,1.88-2.11c0.54-0.42,1.3-0.42,1.84,0c0.55,0.57,0.82,1.36,0.72,2.16
				c-0.03,1.05-0.3,2.09-0.8,3.01C8.72,6.19,8.07,6.92,7.25,7.42z M4.99,10.46l4.46-2.52L9.14,30.18L4.68,32.7L4.99,10.46z"/>
		</g>
	</g>
</g>
<radialGradient id="Trazado_2665_1_" cx="-167.9775" cy="708.3395" r="0.875" gradientTransform="matrix(61.1632 0 0 -31.6407 10476.6875 37683.0273)" gradientUnits="userSpaceOnUse">
	<stop  offset="0" style="stop-color:#3C5185"/>
	<stop  offset="0.079" style="stop-color:#61729C"/>
	<stop  offset="0.182" style="stop-color:#8B97B6"/>
	<stop  offset="0.29" style="stop-color:#AFB7CD"/>
	<stop  offset="0.403" style="stop-color:#CCD1DF"/>
	<stop  offset="0.523" style="stop-color:#E2E5ED"/>
	<stop  offset="0.653" style="stop-color:#F2F3F7"/>
	<stop  offset="0.799" style="stop-color:#FCFCFD"/>
	<stop  offset="1" style="stop-color:#FFFFFF"/>
</radialGradient>
<path id="Trazado_2665" class="st64" d="M165.12,554.58c20.64-11.91,54.41-11.91,75.05,0s20.64,31.41,0,43.33
	c-20.64,11.92-54.41,11.91-75.05,0S144.48,566.5,165.12,554.58z"/>
<radialGradient id="Trazado_2666_1_" cx="-167.9775" cy="708.3395" r="0.875" gradientTransform="matrix(61.1626 0 0 -31.6407 10781.9023 37396.0273)" gradientUnits="userSpaceOnUse">
	<stop  offset="0" style="stop-color:#3C5185"/>
	<stop  offset="0.079" style="stop-color:#61729C"/>
	<stop  offset="0.182" style="stop-color:#8B97B6"/>
	<stop  offset="0.29" style="stop-color:#AFB7CD"/>
	<stop  offset="0.403" style="stop-color:#CCD1DF"/>
	<stop  offset="0.523" style="stop-color:#E2E5ED"/>
	<stop  offset="0.653" style="stop-color:#F2F3F7"/>
	<stop  offset="0.799" style="stop-color:#FCFCFD"/>
	<stop  offset="1" style="stop-color:#FFFFFF"/>
</radialGradient>
<path id="Trazado_2666" class="st65" d="M470.43,356.75c20.64-11.91,54.41-11.91,75.04,0c20.64,11.91,20.64,31.41,0,43.33
	s-54.41,11.91-75.04,0S449.79,368.66,470.43,356.75z"/>
<path id="Trazado_2667" class="st53" d="M315.22,252.96c5.32-3.08,8.6-8.76,8.6-14.91v-38.85l-37.97,21.91
	c-2.71,1.57-4.38,4.46-4.38,7.59v43.94L315.22,252.96z"/>
<g id="Grupo_1145" transform="translate(284.602 123.054)">
	
		<linearGradient id="Trazado_2668_1_" gradientUnits="userSpaceOnUse" x1="-452.0839" y1="584.6061" x2="-451.0839" y2="584.6061" gradientTransform="matrix(187.62 0 0 -165.8471 84824.6641 97038.0078)">
		<stop  offset="0" style="stop-color:#3C5185"/>
		<stop  offset="0.128" style="stop-color:#41578D"/>
		<stop  offset="0.695" style="stop-color:#5572B0"/>
		<stop  offset="1" style="stop-color:#5D7DBE"/>
	</linearGradient>
	<path id="Trazado_2668" class="st66" d="M192.3,4.79v50.46c0,3.13-1.67,6.02-4.38,7.59L12.15,165c-2.35,1.39-5.39,0.61-6.78-1.74
		c-0.45-0.76-0.69-1.63-0.69-2.52v-51.19c0-3.13,1.67-6.03,4.38-7.59L184.87,0.51c2.37-1.37,5.4-0.56,6.76,1.81
		C192.07,3.07,192.3,3.92,192.3,4.79z"/>
	
		<linearGradient id="Trazado_2669_1_" gradientUnits="userSpaceOnUse" x1="-468.6749" y1="584.6062" x2="-467.6749" y2="584.6062" gradientTransform="matrix(186.481 0 0 -165.8363 84310.2813 97031.7109)">
		<stop  offset="0" style="stop-color:#5D7DBE"/>
		<stop  offset="0.305" style="stop-color:#5572B0"/>
		<stop  offset="0.872" style="stop-color:#41578D"/>
		<stop  offset="1" style="stop-color:#3C5185"/>
	</linearGradient>
	<path id="Trazado_2669" class="st67" d="M8.37,162.59V111.4c0-3.13,1.67-6.03,4.38-7.59L188.56,2.35c0.79-0.46,1.68-0.69,2.59-0.66
		c-1.52-1.89-4.18-2.39-6.28-1.18L9.06,101.96c-2.71,1.57-4.38,4.46-4.38,7.59v51.19c0,2.69,2.14,4.88,4.83,4.95
		C8.78,164.82,8.37,163.72,8.37,162.59z"/>
	
		<linearGradient id="Trazado_2670_1_" gradientUnits="userSpaceOnUse" x1="-452.1328" y1="584.6835" x2="-451.1328" y2="584.6835" gradientTransform="matrix(170.364 0 0 -111.8321 77040.8359 65473.0781)">
		<stop  offset="0.021" style="stop-color:#FFC107"/>
		<stop  offset="0.319" style="stop-color:#FFAF03"/>
		<stop  offset="0.71" style="stop-color:#FF9E01"/>
		<stop  offset="1" style="stop-color:#FF9800"/>
	</linearGradient>
	<path id="Trazado_2670" class="st68" d="M176.33,31.81c-3.53,2.04-6.5,6.55-7.39,10.83L133.89,62.9c-0.8-3.46-3.85-4.66-7.48-2.56
		s-6.69,6.82-7.48,11.21L81,93.48c-1.16-2.56-3.91-3.27-7.11-1.42s-5.96,5.74-7.11,9.64l-38.92,22.5c-1.37-1.7-3.76-1.99-6.49-0.42
		c-4.54,2.97-7.4,7.91-7.7,13.33c0,4.89,3.46,6.89,7.7,4.45c3.67-2.12,6.75-6.91,7.51-11.33l37.84-22c1.11,2.71,3.9,3.5,7.17,1.61
		c3.29-1.9,6.09-5.95,7.19-9.95l38.66-22.48c1.32,1.94,3.81,2.36,6.68,0.7c3.1-2.02,5.45-4.99,6.7-8.47l36.32-21.11
		c1.25,2.24,3.86,2.8,6.9,1.05c4.54-2.97,7.4-7.91,7.7-13.33C184.02,31.36,180.56,29.36,176.33,31.81z"/>
</g>
<g id="Grupo_1169" transform="translate(418.58 390.742)">
	<g id="Grupo_1146" transform="translate(38.045 40.578)">
		<path id="Trazado_2671" class="st69" d="M9.38,62.27c1.21,0.05,2.4-0.35,3.33-1.13c17.14-14.27,19.46-39.73,5.2-56.86
			c-0.56-0.67-1.14-1.32-1.74-1.95l-0.91-0.95c-1.8-2.02-4.89-2.21-6.92-0.41S6.14,5.85,7.94,7.87C8.01,7.95,8.08,8.03,8.15,8.1
			l0.91,0.96c11.63,12.25,11.12,31.61-1.13,43.23c-0.48,0.46-0.97,0.89-1.48,1.32c-2.08,1.74-2.35,4.83-0.62,6.9
			C6.71,61.57,8,62.21,9.38,62.27L9.38,62.27z"/>
	</g>
	<g id="Grupo_1147" transform="translate(39.245 39.458)">
		<path id="Trazado_2672" class="st57" d="M19.18,23.03c3-0.33,5.16-3.03,4.83-6.02c-0.06-0.57-0.21-1.13-0.45-1.65
			c-2.08-4.72-4.97-9.04-8.53-12.77l-1-1.06c-2.04-2.19-5.47-2.31-7.66-0.26S4.07,6.74,6.11,8.93c0.02,0.02,0.03,0.04,0.05,0.05
			l1,1.06c2.71,2.85,4.91,6.15,6.49,9.75C14.59,21.96,16.83,23.27,19.18,23.03L19.18,23.03z"/>
	</g>
	<path id="Trazado_2673" class="st42" d="M76.67,175.77l23.26,13.61l0.01,2.37c0.01,2.11-1.08,4.07-2.88,5.17l-4.46,2.73
		c-1.24,0.76-2.79,0.76-4.03,0.01L70.52,189.1c-1.75-1.07-2.82-2.97-2.82-5.03v-2.69L76.67,175.77z"/>
	<path id="Trazado_2674" class="st42" d="M82.2,176.66l15.3,8.84c2.4,1.45,3.18,4.58,1.72,6.98c-0.42,0.7-1,1.28-1.69,1.7l-4.09,2.5
		c-1.75,1.07-3.96,1.08-5.72,0.01l-17.3-10.11c-2.68-1.64-3.53-5.14-1.89-7.82c0.5-0.82,1.2-1.5,2.04-1.98l0.49-0.28
		C74.53,174.54,78.79,174.6,82.2,176.66z"/>
	<g id="Grupo_1148" transform="translate(66.695 176.464)">
		<path id="Trazado_2675" class="st69" d="M4.68,5.04c0.24-1.56,1.17-2.92,2.54-3.7l0.45-0.25C8.84,0.43,10.12,0,11.45-0.16
			c0.96,0.14,1.87,0.47,2.7,0.97l8.23,4.8c1.58,0.96,2.09,3.02,1.14,4.6c-0.28,0.46-0.66,0.84-1.12,1.12l-2.69,1.65
			c-1.16,0.71-2.62,0.71-3.77,0L6.38,7.36C5.52,6.84,4.91,6.01,4.68,5.04z"/>
	</g>
	<path id="Trazado_2676" class="st42" d="M56.39,186.81l23.26,13.62l0.01,2.37c0.01,2.11-1.09,4.07-2.88,5.17l-4.46,2.73
		c-1.24,0.76-2.79,0.76-4.03,0l-18.05-10.56c-1.75-1.07-2.83-2.98-2.83-5.03v-2.69L56.39,186.81z"/>
	<path id="Trazado_2677" class="st42" d="M61.92,187.71l15.3,8.85c2.4,1.45,3.17,4.57,1.72,6.98c-0.42,0.7-1,1.28-1.7,1.71
		l-4.08,2.5c-1.75,1.08-3.97,1.08-5.72,0.01l-17.3-10.11c-2.68-1.63-3.53-5.13-1.9-7.81c0.5-0.83,1.21-1.51,2.05-1.99l0.48-0.28
		C54.25,185.59,58.51,185.65,61.92,187.71z"/>
	<g id="Grupo_1149" transform="translate(46.413 187.514)">
		<path id="Trazado_2678" class="st69" d="M4.67,5.04c0.23-1.56,1.17-2.93,2.54-3.71l0.45-0.25C8.83,0.42,10.11,0,11.44-0.16
			c0.96,0.14,1.87,0.47,2.7,0.97l8.23,4.8c1.58,0.96,2.09,3.02,1.14,4.6c-0.28,0.46-0.66,0.84-1.12,1.12l-2.7,1.65
			c-1.16,0.71-2.61,0.71-3.77,0L6.36,7.35C5.51,6.84,4.91,6.01,4.67,5.04z"/>
	</g>
	<g id="Grupo_1151" transform="translate(66.417 143.444)">
		<g id="Grupo_1150">
			<path id="Trazado_2679" class="st69" d="M9.58,41.36c2.71,0,4.9-2.19,4.9-4.9V4.74c0-2.71-2.2-4.9-4.91-4.89
				c-2.7,0-4.89,2.19-4.89,4.89v31.73C4.68,39.17,6.87,41.36,9.58,41.36z"/>
		</g>
	</g>
	<path id="Trazado_2680" class="st70" d="M79.79,179.91v-31.73c0-2.49-1.88-4.57-4.35-4.84c0.18-0.03,0.37-0.05,0.55-0.05
		c2.71,0,4.9,2.19,4.9,4.9v31.73c0,2.71-2.19,4.9-4.9,4.9c-0.18-0.01-0.37-0.02-0.55-0.05C77.92,184.48,79.79,182.39,79.79,179.91z"
		/>
	<g id="Grupo_1153" transform="translate(46.163 139.858)">
		<g id="Grupo_1152">
			<path id="Trazado_2681" class="st69" d="M9.58,56.06c2.71,0,4.9-2.19,4.9-4.9V4.74c0-2.71-2.19-4.9-4.89-4.91
				c-2.71,0-4.9,2.19-4.91,4.89c0,0.01,0,0.01,0,0.02v46.42C4.68,53.87,6.87,56.06,9.58,56.06z"/>
		</g>
	</g>
	
		<linearGradient id="Trazado_2682_1_" gradientUnits="userSpaceOnUse" x1="-585.7703" y1="317.0844" x2="-584.7703" y2="317.0844" gradientTransform="matrix(73.3171 0 0 -81.3753 43033.1016 25920.3125)">
		<stop  offset="0" style="stop-color:#5D7DBE"/>
		<stop  offset="0.305" style="stop-color:#5572B0"/>
		<stop  offset="0.872" style="stop-color:#41578D"/>
		<stop  offset="1" style="stop-color:#3C5185"/>
	</linearGradient>
	<path id="Trazado_2682" class="st71" d="M42.43,76.79l9.44,26.18l16.63,8.91c7.46,4.36,13.99,9.83,13.99,23.29
		c0,0,0.33,3.74,0.49,8.49c0.29,8.78-28.19,11.9-34.43,14.43c-3.2,1.29-4.07-14.72-4.07-14.72s-0.24-4.29-6.05-7.64l-19.59-11.29
		c-8.75-5.03-11.77-16.2-6.74-24.96c1.61-2.79,3.92-5.11,6.71-6.72L42.43,76.79z"/>
	<path id="Trazado_2683" class="st72" d="M80.78,143.66c-0.16-4.75-0.49-8.49-0.49-8.49c0-13.46-6.53-18.93-13.99-23.29l-16.64-8.91
		l-9.01-24.98l1.77-1.2l9.44,26.18l16.63,8.91c7.46,4.36,13.99,9.83,13.99,23.29c0,0,0.33,3.74,0.49,8.49
		c0.29,8.78-28.19,11.9-34.43,14.43c-0.43,0.16-0.9,0.01-1.17-0.36C55.22,155.26,81.06,152.03,80.78,143.66z"/>
	<g id="Grupo_1155" transform="translate(20.055 101.501)">
		<path id="Trazado_2684" class="st73" d="M62.93,20.09v0.72c0,0.38-0.2,0.73-0.53,0.92L41.19,33.94c-0.88,0.44-1.92,0.44-2.8,0
			L5.4,14.95c-0.42-0.24-0.68-0.7-0.68-1.18v-0.28l21.7-12.52c0.88-0.45,1.92-0.45,2.8,0L62.93,20.09z"/>
		<path id="Trazado_2685" class="st57" d="M62.35,19.3c0.45,0.15,0.68,0.64,0.53,1.09c-0.09,0.25-0.28,0.44-0.53,0.53L41.19,33.13
			c-0.88,0.44-1.92,0.44-2.8,0L5.26,14.07c-0.45-0.15-0.69-0.64-0.53-1.08c0.09-0.25,0.28-0.45,0.53-0.53L26.42,0.17
			c0.88-0.45,1.92-0.45,2.8,0L62.35,19.3z"/>
		
			<linearGradient id="Trazado_2686_1_" gradientUnits="userSpaceOnUse" x1="-606.2181" y1="216.2342" x2="-605.2181" y2="216.2342" gradientTransform="matrix(46.92 0 0 -27.181 28516.3242 5893.6499)">
			<stop  offset="0.15" style="stop-color:#FF9800"/>
			<stop  offset="1" style="stop-color:#FFC107"/>
		</linearGradient>
		<path id="Trazado_2686" class="st74" d="M56.42,17.71L35.67,29.78L9.5,14.72L30.25,2.6L56.42,17.71z"/>
		<g id="Grupo_1154" transform="translate(42.018 23.189)">
			<path id="Trazado_2687" class="st42" d="M5.08,3.21c0.07,0,0.14-0.02,0.2-0.05l4.45-2.57c0.19-0.11,0.26-0.36,0.15-0.55
				S9.52-0.22,9.32-0.11l0,0L4.88,2.46C4.69,2.57,4.62,2.81,4.73,3c0,0,0,0,0,0.01C4.81,3.13,4.94,3.21,5.08,3.21z"/>
		</g>
	</g>
	<path id="Trazado_2688" class="st42" d="M59.21,14.59l-0.41-1.9c-0.2-1.59-1.31-2.91-2.84-3.37c-1.5-0.43-3.08-0.55-4.63-0.37
		c-2.82,0.14-5.65,0.29-8.47,0.44c-5.48,0.28-11.83,1.05-14.73,5.7c-2.02,3.24-1.77,7.61-4.15,10.59c-0.8,1-1.85,1.77-2.62,2.8
		c-2.01,2.7-1.6,6.48-0.66,9.72c0.21,1.06,0.73,2.03,1.5,2.78c1.42,1.16,3.57,0.7,5.14-0.25s2.88-2.33,4.57-3.02
		c2.67-1.09,5.79-0.32,8.53-1.23c5.39-1.79,7.19-9.14,12.45-11.28c1.66-0.67,3.58-0.79,4.98-1.9C60.3,21.36,59.87,17.62,59.21,14.59
		z"/>
	<path id="Trazado_2689" class="st57" d="M11.39,54.48c2.17-4.93,5.73-9.13,10.25-12.06l14.05-8.11l9.95,0.14
		c2,0.03,3.91,0.9,5.25,2.39l0,0c1.18,1.32,1.84,4.38,1.84,6.16v5.2l2.72,10.34c0.51,1.92,0.13,3.97-1.04,5.58l-1.8,2.62
		c-3.25,4.72-4.8,10.41-4.41,16.13l1.21,17.63c-7.59,15.4-40.61,1.8-40.61,1.8C12.09,77.91,4.43,72.65,11.39,54.48z"/>
	<path id="Trazado_2690" class="st75" d="M47.22,100.49L46,82.87c-0.39-5.72,1.16-11.4,4.41-16.13l1.8-2.62
		c1.16-1.61,1.54-3.66,1.04-5.59l-2.72-10.34v-5.2c0-1.78-0.66-4.84-1.84-6.16c-1.34-1.49-3.24-2.36-5.25-2.39l-7.8-0.11l0.05-0.03
		l9.95,0.14c2,0.03,3.91,0.9,5.25,2.39c1.18,1.32,1.84,4.38,1.84,6.16v5.2l2.72,10.34c0.51,1.92,0.13,3.97-1.04,5.58l-1.8,2.62
		c-3.25,4.72-4.8,10.41-4.41,16.13l1.21,17.63c-2.89,5.87-9.48,7.52-16.53,7.32C39.08,107.62,44.63,105.75,47.22,100.49z"/>
	<g id="Grupo_1157" transform="translate(22.273 19.518)">
		<g id="Grupo_1156">
			<path id="Trazado_2691" class="st69" d="M9.58,27.02c-2.71,0-4.9-2.19-4.9-4.9V4.74c0-2.71,2.19-4.9,4.89-4.91
				c2.71,0,4.9,2.19,4.91,4.89c0,0.01,0,0.01,0,0.02v17.38C14.48,24.82,12.29,27.02,9.58,27.02C9.58,27.02,9.58,27.02,9.58,27.02z"
				/>
		</g>
	</g>
	<g id="Grupo_1158" transform="translate(24.904 8.365)">
		<path id="Rectngulo_1505" class="st69" d="M12.66-0.16l19.96,6.12l0,0l-6.5,21.2c-0.82,2.68-3.65,4.18-6.33,3.36L4.68,25.88l0,0
			L12.66-0.16L12.66-0.16z"/>
	</g>
	<path id="Trazado_2692" class="st76" d="M36.04,105.2l2.95,2.2c-5.56,0.96-12.12,0.07-17.74-1.24C9.86,92.17,7.4,72.93,14.9,56.53
		c1.28-2.76,5.39,4.45,5.39,4.45C13.19,76.35,22.48,95.05,36.04,105.2z"/>
	<g id="Grupo_1159" transform="translate(6.411 50.852)">
		<path id="Trazado_2693" class="st69" d="M31.16,64.81c2.73,0.27,5.16-1.72,5.44-4.45c0.16-1.58-0.45-3.14-1.64-4.2l-9.51-8.47
			c-11.41-10.25-14.16-27.06-6.6-40.41C20.21,4.89,19.39,1.86,17,0.5c-2.38-1.36-5.42-0.53-6.78,1.85
			C0.36,19.77,3.94,41.72,18.84,55.1l9.51,8.47C29.13,64.27,30.12,64.7,31.16,64.81z"/>
	</g>
	<g id="Grupo_1160" transform="translate(5.679 48.855)">
		<path id="Trazado_2694" class="st57" d="M10.8,25.9c2.76-0.14,5.05-2.18,5.5-4.91c0.75-4.35,2.26-8.53,4.45-12.37
			c1.61-2.81,0.63-6.4-2.18-8.01c-2.81-1.61-6.4-0.63-8.01,2.18C7.71,7.78,5.75,13.22,4.77,18.87c-0.61,3.21,1.49,6.31,4.7,6.92
			C9.9,25.88,10.35,25.91,10.8,25.9L10.8,25.9z"/>
	</g>
	<path id="Trazado_2695" class="st42" d="M15.86,59.54c-1.47-0.02-2.94,0.27-4.29,0.86c-1.25,0.55-2.55,1.36-3.88,1.02
		c-1.79-0.45-2.39-2.63-2.69-4.45c-0.36-1.56-0.41-3.17-0.14-4.75c0.48-2.04,1.97-3.67,3.13-5.42c1.69-2.56,2.74-5.49,3.06-8.55
		c0.23-2.3,0.05-4.62,0.3-6.91c0.3-2.69,1.52-4.45,2.86-6.66c1.61-2.63,2.07-5.77,3.76-8.34c1.66-2.54,4.54-4.25,6.4-6.7
		c1.99-2.62,3.1-4.33,6.09-6c2.24-1.25,4.34-3.13,6.92-3.68c2.05-0.43,3.7,0.39,5.63,0.65c1.98,0.26,3.94,0.01,5.95,0.46
		c4,0.85,7.64,2.9,10.43,5.89c2.18,2.41,2.71,5.46-0.5,7.16c-3.61,1.91-6.85,0.46-10.58,0.25c-0.68-0.08-1.37,0.06-1.97,0.39
		c-1.55,0.98-0.85,4.91-1.28,6.61c-0.4,1.82-1.39,3.46-2.82,4.65c-1.38,0.88-2.88,1.56-4.45,2.01c-1.58,0.46-2.95,1.47-3.86,2.84
		c-1.46,2.68,0.41,5.94,0.33,8.99c-0.06,1.84-0.83,3.58-2.15,4.85c-0.98,0.73-1.88,1.56-2.67,2.49c-0.58,1.1-0.9,2.32-0.94,3.56
		c-0.15,1.64-0.51,3.25-1.07,4.8c-0.99,3.02-3.98,4.91-7.13,4.52c-1.26-0.07-2.49-0.39-3.75-0.5
		C16.31,59.56,16.09,59.54,15.86,59.54z"/>
	<g id="Grupo_1161" transform="translate(33.769 106.94)">
		<path id="Trazado_2696" class="st69" d="M6.55-0.16l7.33,6.82c0.55,0.51,0.58,1.37,0.07,1.92c-0.01,0.01-0.03,0.03-0.04,0.04l0,0
			c-0.52,0.51-1.34,0.52-1.88,0.03L4.68,1.9L6.55-0.16z"/>
	</g>
	<g id="Grupo_1162" transform="translate(27.425 104.288)">
		<path id="Trazado_2697" class="st69" d="M5.09-0.16l10.98,1.61c0.82,0.12,1.39,0.89,1.27,1.71c0,0.02-0.01,0.04-0.01,0.06l0,0
			c-0.15,0.79-0.89,1.33-1.69,1.21L4.67,2.9L5.09-0.16z"/>
	</g>
	<g id="Grupo_1163" transform="translate(38.045 64.031)">
		<path id="Trazado_2698" class="st69" d="M9.38,38.81c1.21,0.05,2.4-0.35,3.33-1.13C23.23,28.95,28.6,15.47,26.97,1.9
			c-0.32-2.68-2.05-2.1-4.75-1.77c-2.69,0.32-5.3,0.22-4.98,2.91c1.23,10.28-2.83,20.49-10.8,27.11c-2.08,1.74-2.35,4.83-0.62,6.9
			C6.71,38.12,8,38.75,9.38,38.81L9.38,38.81z"/>
	</g>
	<g id="Grupo_1164" transform="translate(36.729 89.565)">
		<path id="Trazado_2699" class="st69" d="M15.92,2.49L6.34,4.86C5.62,5.04,4.9,4.6,4.72,3.88c0-0.02-0.01-0.04-0.01-0.05l0,0
			C4.56,3.13,5,2.44,5.69,2.26l9.54-2.43L15.92,2.49z"/>
	</g>
	<g id="Grupo_1165" transform="translate(41.165 96.003)">
		<path id="Trazado_2700" class="st69" d="M13.23,1.53l-6.17,7.7C6.6,9.8,5.76,9.9,5.19,9.44C5.17,9.42,5.15,9.41,5.14,9.4l0,0
			C4.6,8.93,4.52,8.12,4.97,7.55l6.11-7.72L13.23,1.53z"/>
	</g>
	<g id="Grupo_1166" transform="translate(38.072 95.589)">
		<path id="Trazado_2701" class="st69" d="M13.23,1.53l-6.17,7.7C6.6,9.8,5.76,9.9,5.18,9.44C5.17,9.43,5.15,9.41,5.14,9.4l0,0
			C4.6,8.93,4.52,8.12,4.97,7.56l6.1-7.72L13.23,1.53z"/>
	</g>
	<g id="Grupo_1167" transform="translate(35.327 94.799)">
		<path id="Trazado_2702" class="st69" d="M13.23,1.52l-6.17,7.7C6.61,9.8,5.77,9.9,5.19,9.44C5.17,9.43,5.16,9.41,5.14,9.4l0,0
			C4.6,8.93,4.52,8.12,4.97,7.56l6.11-7.72L13.23,1.52z"/>
	</g>
	<g id="Grupo_1168" transform="translate(34.309 92.534)">
		<path id="Trazado_2703" class="st69" d="M14.24,1.85L6.92,8.46c-0.55,0.5-1.4,0.45-1.89-0.09C5.01,8.35,5,8.33,4.99,8.32l0,0
			c-0.46-0.55-0.4-1.36,0.13-1.84l7.27-6.64L14.24,1.85z"/>
	</g>
</g>
<g id="Grupo_1174" transform="translate(393.856)">
	<g id="Grupo_1171" transform="translate(26.34 29.384)">
		<g id="Grupo_1170">
			<path id="Trazado_2704" class="st42" d="M16.96,32.56c0.67-1.64,1.06-3.38,1.17-5.15c0.14-1.12-0.14-2.26-0.78-3.18
				c-0.58-0.65-1.58-0.74-2.26-0.19c-1.72,0.97-3.41,3.86-5.06,8.67l-4.74-1.92c1.11-3.36,2.6-6.58,4.42-9.61
				c1.45-2.38,3.48-4.35,5.89-5.73c2.36-1.32,4.39-1.28,6.1,0.14c1.71,1.42,2.5,4.2,2.37,8.36c-0.09,2.42-0.52,4.82-1.27,7.13
				c-1.19,3.49-2.59,6.89-4.21,10.2l-5.17,11.02l10.78-6.05l-0.27,8.82L4.68,65.88l0.22-7.31l8.41-17.73
				C15,37.28,16.22,34.52,16.96,32.56z"/>
			<path id="Trazado_2705" class="st42" d="M39,27.88l0.23-7.69l5.86-3.29l-0.23,7.69l3.09-1.73l-0.26,8.51L44.6,33.1l-0.32,10.53
				l-5.86,3.29l0.32-10.53l-10.98,6.17l0.23-7.5L38.52,3.57l6.64-3.73L35.13,30.06L39,27.88z"/>
		</g>
	</g>
	<g id="Grupo_1173" transform="translate(73.117 26.77)">
		<g id="Grupo_1172">
			<path id="Trazado_2706" class="st42" d="M6.94,9.87l-0.2,6.44l-2.06,1.16L5.18,1l2.06-1.16L7.06,5.7C7.49,4.6,8.24,3.66,9.2,2.99
				c0.59-0.46,1.45-0.36,1.92,0.23c0.59,0.92,0.84,2.02,0.69,3.1l-0.22,7.26l-2.06,1.16l0.2-6.53c0.05-1.84-0.34-2.52-1.17-2.05
				c-0.49,0.32-0.87,0.78-1.1,1.32C7.12,8.24,6.94,9.05,6.94,9.87z"/>
		</g>
	</g>
	
		<linearGradient id="Trazado_2707_1_" gradientUnits="userSpaceOnUse" x1="-561.7383" y1="707.7167" x2="-560.7383" y2="707.7167" gradientTransform="matrix(102.479 0 0 -122.5941 57571.0586 86823.0313)">
		<stop  offset="0.15" style="stop-color:#FF9800"/>
		<stop  offset="1" style="stop-color:#FFC107"/>
	</linearGradient>
	<path id="Trazado_2707" class="st77" d="M107.15,34.45L97,29.55l-7.77,13.47l4.2,2.42l2.07-3.59c-2.9,26.73-21.52,56.86-44,69.84
		c-11.35,6.55-21.93,7.66-29.79,3.13S9.52,100.57,9.52,87.46c0-28.27,19.92-62.77,44.4-76.91c9.26-5.34,17.99-7.09,25.27-5.03
		c5.46,1.6,10.02,5.38,12.6,10.45l4.27-2.31C92.86,7.44,87.24,2.8,80.51,0.86c-8.56-2.42-18.59-0.52-29.01,5.5
		C25.68,21.26,4.67,57.65,4.67,87.47c0,14.91,5.19,26.12,14.61,31.56c4.01,2.28,8.55,3.45,13.16,3.4c6.65,0,13.96-2.19,21.48-6.53
		c25.27-14.59,45.91-49.73,46.79-79.16l4.33,2.08L107.15,34.45z"/>
</g>
<g id="Grupo_1178" transform="translate(296.078 337.846)">
	<path id="Trazado_2708" class="st78" d="M21.24,80.58l25.81-14.87L79.24,84.3l-25.8,14.87L21.24,80.58z"/>
	<path id="Trazado_2709" class="st79" d="M67.83,98.25l-16.25,8.72L50.1,84.68h14.33l-0.03,8.31l1.58,0.44L67.83,98.25z"/>
	<path id="Trazado_2710" class="st80" d="M118.31,68.98l-16.04,9.64l-1.68-23.21h14.33l0.73,6.52l0.83,2.23L118.31,68.98z"/>
	<path id="Trazado_2711" class="st42" d="M97.05,77.96l-6.41-3.73V59.39l6.41,3.3V77.96z"/>
	<path id="Trazado_2712" class="st42" d="M101.63,60.58c-4.23,2.77-6.9,7.39-7.18,12.44c0,4.56,3.23,6.5,7.18,4.31
		s7.18-7.79,7.18-12.44S105.58,58.3,101.63,60.58z"/>
	<path id="Trazado_2713" class="st79" d="M104.87,81.87l-4.45-2.59c-1.21-0.71-1.96-2.01-1.96-3.41V63.3l6.41,3.3V81.87z"/>
	<path id="Trazado_2714" class="st42" d="M109.45,64.49c-4.23,2.77-6.9,7.39-7.18,12.44c0,4.56,3.23,6.5,7.18,4.31
		s7.18-7.79,7.18-12.44S113.4,62.21,109.45,64.49z"/>
	<path id="Trazado_2715" class="st57" d="M109.44,68.27c-2.31,1.52-3.77,4.04-3.93,6.8c0,2.49,1.77,3.55,3.93,2.36
		c2.33-1.5,3.8-4.03,3.93-6.8C113.38,68.09,111.61,67.02,109.44,68.27z"/>
	<path id="Trazado_2716" class="st81" d="M115.01,63.49l0.06,0.26c1.32,1.32,2,3.13,1.89,4.99c0,0.36-0.02,0.73-0.05,1.1l2.84-1.89
		v-7.44L115.01,63.49z"/>
	
		<linearGradient id="Trazado_2717_1_" gradientUnits="userSpaceOnUse" x1="-465.3642" y1="370.5607" x2="-464.3642" y2="370.5607" gradientTransform="matrix(39.551 0 0 -29.295 18470.0195 10940.1084)">
		<stop  offset="0.479" style="stop-color:#FFC107"/>
		<stop  offset="0.996" style="stop-color:#FF9800"/>
	</linearGradient>
	<path id="Trazado_2717" class="st82" d="M101.91,78.49c-0.06-0.43-0.09-0.87-0.09-1.31c0.09-2.57,0.82-5.08,2.13-7.3L64.4,92.86
		v0.22c1.31,1.32,2,3.13,1.89,4.99c0,0.36-0.02,0.73-0.05,1.1L101.91,78.49z"/>
	<g id="Grupo_1175" transform="translate(23.073)">
		<path id="Trazado_2718" class="st83" d="M4.68,26.39l46-26.55l46,26.55l-46,26.56L4.68,26.39z"/>
		<path id="Trazado_2719" class="st84" d="M4.68,26.39v35.89l46,26.56V52.95L4.68,26.39z"/>
		<path id="Trazado_2720" class="st83" d="M7.95,31.64v12.11l10.48,6.05V37.69L7.95,31.64z"/>
		<path id="Trazado_2721" class="st42" d="M50.67,88.84l46-26.56V26.39l-46,26.56V88.84z"/>
		<path id="Trazado_2722" class="st57" d="M23.08,72.9V37.02l9.2,5.31v35.89L23.08,72.9z"/>
		<path id="Trazado_2723" class="st57" d="M23.08,37.01L69.1,10.57l9.52,5.17L32.28,42.33L23.08,37.01z"/>
		<path id="Trazado_2724" class="st57" d="M23.5,15.53l45.58,26.8l9.12-5.48L32.82,10.06L23.5,15.53z"/>
		<path id="Trazado_2725" class="st57" d="M69.07,42.33v35.89l9.12-5.27v-36.1L69.07,42.33z"/>
	</g>
	<path id="Trazado_2726" class="st79" d="M53.45,111.77l-6.41-3.73V93.2l6.41,3.3V111.77z"/>
	<path id="Trazado_2727" class="st85" d="M4.68,90.28v5.35l34,19.56v-5.41L4.68,90.28z"/>
	<path id="Trazado_2728" class="st86" d="M38.69,115.19l9.7-5.41v-5.61l-9.71,5.61L38.69,115.19z"/>
	
		<linearGradient id="Trazado_2729_1_" gradientUnits="userSpaceOnUse" x1="-465.8867" y1="370.2036" x2="-464.8867" y2="370.2036" gradientTransform="matrix(32.194 0 0 -48.326 15005.2393 17974.1328)">
		<stop  offset="0.479" style="stop-color:#FFC107"/>
		<stop  offset="0.996" style="stop-color:#FF9800"/>
	</linearGradient>
	<path id="Trazado_2729" class="st87" d="M6.48,59.5l32.19,18.59v29.74L6.48,89.24V59.5z"/>
	<path id="Trazado_2730" class="st45" d="M6.48,61.67L36.5,78.91v18.94L6.48,80.62V61.67z"/>
	<path id="Trazado_2731" class="st57" d="M30.28,96.96l7.07,4.06v4.46l-7.07-4.06V96.96z"/>
	<path id="Trazado_2732" class="st42" d="M16.35,89.76l12.45,7.44v1.68l-12.45-7.44V89.76z"/>
	<path id="Trazado_2733" class="st57" d="M7.9,83.89l7.07,4.06v4.46L7.9,88.35V83.89z"/>
	
		<linearGradient id="Trazado_2734_1_" gradientUnits="userSpaceOnUse" x1="-466.5815" y1="370.2245" x2="-465.5815" y2="370.2245" gradientTransform="matrix(25.809 0 0 -46.563 12080.6895 17325.2578)">
		<stop  offset="0.479" style="stop-color:#FFC107"/>
		<stop  offset="0.996" style="stop-color:#FF9800"/>
	</linearGradient>
	<path id="Trazado_2734" class="st88" d="M49.82,108.95c-0.08-0.49-0.11-0.99-0.11-1.49c0-5.26,3.73-11.72,8.29-14.35
		c2.57-1.49,4.88-1.42,6.41-0.11l0.09-29.77L38.68,78.08v31.7l9.71-5.61v5.61L49.82,108.95z"/>
	<path id="Trazado_2735" class="st42" d="M57.99,94.39c-4.23,2.77-6.9,7.39-7.18,12.44c0,4.56,3.23,6.5,7.18,4.31
		s7.18-7.79,7.18-12.44S61.94,92.11,57.99,94.39z"/>
	<path id="Trazado_2736" class="st57" d="M57.99,98.17c-2.32,1.51-3.77,4.04-3.93,6.8c0,2.49,1.77,3.55,3.93,2.36
		c2.33-1.5,3.8-4.03,3.93-6.8C61.92,97.98,60.16,96.93,57.99,98.17z"/>
	
		<linearGradient id="Trazado_2737_1_" gradientUnits="userSpaceOnUse" x1="-464.6369" y1="370.4479" x2="-463.6369" y2="370.4479" gradientTransform="matrix(58.003 0 0 -33.457 26956.8145 12455.4355)">
		<stop  offset="0.479" style="stop-color:#FFC107"/>
		<stop  offset="0.996" style="stop-color:#FF9800"/>
	</linearGradient>
	<path id="Trazado_2737" class="st89" d="M6.48,59.5l25.81-14.87l32.19,18.59L38.68,78.09L6.48,59.5z"/>
	<path id="Trazado_2738" class="st45" d="M40.91,80.1l21.35-12.05v12.3L51.61,86.5l-0.02,8.71l-10.59,6.12L40.91,80.1z"/>
	<path id="Trazado_2739" class="st62" d="M6.48,89.24l-1.81,1.04l34,19.5l1.83-1.05L6.48,89.24z"/>
	<path id="Trazado_2740" class="st62" d="M48.39,104.18l-1.54-0.91l-9.5,5.52l1.55,0.89L48.39,104.18z"/>
	<g id="Grupo_1176" transform="translate(1.807 65.875)">
		<path id="Trazado_2741" class="st90" d="M25.53,7.77l-2.8-1.6L10.7,18.2l2.8,1.61L25.53,7.77z"/>
		<path id="Trazado_2742" class="st90" d="M11.71-0.16L4.68,6.87v7.87l3.49,2L20.2,4.71L11.71-0.16z"/>
	</g>
	<g id="Grupo_1177" transform="translate(36.236 74.44)">
		<path id="Trazado_2743" class="st90" d="M14.98-0.16l-1.95,1.1l-8.3,16.89l0.01,2.85L14.98-0.16z"/>
		<path id="Trazado_2744" class="st90" d="M4.68,6.59l0.03,8.64l6.53-13.29L5.32,5.29L4.68,6.59z"/>
	</g>
</g>
<radialGradient id="Trazado_2745_1_" cx="-168.9662" cy="708.901" r="0.875" gradientTransform="matrix(36.651 0 0 -18.9597 6562.5444 28401.4961)" gradientUnits="userSpaceOnUse">
	<stop  offset="0" style="stop-color:#3C5185"/>
	<stop  offset="0.079" style="stop-color:#61729C"/>
	<stop  offset="0.182" style="stop-color:#8B97B6"/>
	<stop  offset="0.29" style="stop-color:#AFB7CD"/>
	<stop  offset="0.403" style="stop-color:#CCD1DF"/>
	<stop  offset="0.523" style="stop-color:#E2E5ED"/>
	<stop  offset="0.653" style="stop-color:#F2F3F7"/>
	<stop  offset="0.799" style="stop-color:#FCFCFD"/>
	<stop  offset="1" style="stop-color:#FFFFFF"/>
</radialGradient>
<path id="Trazado_2745" class="st91" d="M347.28,349.79c12.37-7.14,32.6-7.14,44.97,0s12.37,18.82,0,25.96s-32.6,7.14-44.97,0
	S334.92,356.92,347.28,349.79z"/>
<g id="Grupo_1180" transform="translate(343.864 279.961)">
	<g id="Grupo_1179">
		
			<linearGradient id="Trazado_2746_1_" gradientUnits="userSpaceOnUse" x1="-512.6677" y1="427.586" x2="-513.2267" y2="428.595" gradientTransform="matrix(34.984 0 0 -48.8254 17967.1875 20943.5879)">
			<stop  offset="0" style="stop-color:#FFC107"/>
			<stop  offset="0.85" style="stop-color:#FF9800"/>
		</linearGradient>
		<path id="Trazado_2746" class="st92" d="M5.46,21.22L5.46,21.22c3.16-3.53,8.35-4.38,12.47-2.05l17.61,9.93
			c2.43,1.56,3.96,4.19,4.12,7.07v23.26c0,4.01-3.25,7.26-7.26,7.26c-0.15,0-0.31,0-0.46-0.01l-0.77-0.05
			c-0.62-0.04-1.22-0.22-1.75-0.52L8.8,54.47c-2.43-1.56-3.96-4.19-4.12-7.07V23.27C4.68,22.51,4.96,21.78,5.46,21.22z"/>
		
			<linearGradient id="Trazado_2747_1_" gradientUnits="userSpaceOnUse" x1="-513.0871" y1="427.5798" x2="-513.967" y2="428.6208" gradientTransform="matrix(28.355 0 0 -44.876 14580.6592 19256.6797)">
			<stop  offset="0.15" style="stop-color:#FF9800"/>
			<stop  offset="1" style="stop-color:#FFC107"/>
		</linearGradient>
		<path id="Trazado_2747" class="st93" d="M4.68,24.38c0-2.61,1.86-3.69,4.12-2.41l20.11,11.38c2.43,1.56,3.96,4.19,4.12,7.07v22.94
			c0,2.61-1.86,3.69-4.12,2.41L8.8,54.39c-2.43-1.56-3.96-4.19-4.12-7.07V24.38z"/>
		<path id="Trazado_2748" class="st42" d="M18.85,35.35c-2.36-1.37-4.3-0.28-4.3,2.41c0.2,3.05,1.79,5.83,4.3,7.57
			c2.37,1.47,4.3,0.39,4.3-2.41C23,39.85,21.41,37.05,18.85,35.35z"/>
		<path id="Trazado_2749" class="st42" d="M31.57,30.33V19.89c0-10.08-2.23-16.48-6.62-19.02c-2.07-1.31-4.69-1.39-6.84-0.19
			c-1.69,0.97-4.51,3.67-4.51,10.82v10.23h0.05c0.04,0.32,0.25,0.59,0.54,0.72c0.82,0.41,1.79,0.41,2.62,0
			c0.29-0.13,0.49-0.4,0.53-0.72h0.05V11.5c0-3.77,0.98-6.59,2.62-7.54c0.97-0.5,2.14-0.43,3.05,0.19
			c3.05,1.76,4.72,7.35,4.72,15.73v10.41c0.01,0.35,0.23,0.66,0.55,0.8c0.84,0.43,1.84,0.43,2.68,0
			C31.33,30.97,31.55,30.67,31.57,30.33z"/>
		<path id="Trazado_2750" class="st42" d="M16.26,38v11.99l5.19,3V41L16.26,38z"/>
	</g>
</g>
</svg>
