<?xml version="1.0" encoding="utf-8"?>
<!-- Generator: Adobe Illustrator 24.1.0, SVG Export Plug-In . SVG Version: 6.00 Build 0)  -->
<svg version="1.1" id="Capa_1" xmlns="http://www.w3.org/2000/svg" xmlns:xlink="http://www.w3.org/1999/xlink" x="0px" y="0px"
	 viewBox="0 0 1030 580" style="enable-background:new 0 0 1030 580;" xml:space="preserve">
<style type="text/css">
	.st0{fill:#FFFFFF;}
	.st1{fill:none;stroke:#707070;}
	.st2{fill:url(#Trazado_6392_1_);}
</style>
<g id="Rectángulo_1562" transform="translate(0 1.57)">
	<rect y="0.05" class="st0" width="1030" height="579.38"/>
	<rect x="0.54" y="0.59" class="st1" width="1028.93" height="578.3"/>
</g>
<linearGradient id="Trazado_6392_1_" gradientUnits="userSpaceOnUse" x1="-166.3716" y1="770.2245" x2="-166.8577" y2="769.2278" gradientTransform="matrix(557.7568 0 0 -476.6821 93642.5313 367133.625)">
	<stop  offset="0" style="stop-color:#FF1A00"/>
	<stop  offset="1" style="stop-color:#8F33AC"/>
</linearGradient>
<path id="Trazado_6392" class="st2" d="M454.77,238.17c-18.87-16.99,6.61-31.14,6.61-31.14s40.29-20.92,101.65-49.5
	c23.98-11.17,29.79-40.97,3.68-51.53c-28.71-18.45-86.25-35.02-118.92-56.46c-19.7-12.93-21.69-31.5-5.92-47.31
	c247.98-4.93,587.84-0.41,587.84-0.41l0.08,353.72L837.41,492.92c0,0-60.85,41.53-141.44,0S537.12,403.5,537.12,403.5
	s-31.54-22.78,9.34-47.3c13.33-8,31.11-18.11,31.11-18.11s16.04-12.97,0.33-21.65c-12.24-6.76-36.01-21.31-64.16-39.56
	C488.3,260.37,468.88,247.81,454.77,238.17z"/>
</svg>
