<?xml version="1.0" encoding="utf-8"?>
<!-- Generator: Adobe Illustrator 24.1.0, SVG Export Plug-In . SVG Version: 6.00 Build 0)  -->
<svg version="1.1" id="Capa_1" xmlns="http://www.w3.org/2000/svg" xmlns:xlink="http://www.w3.org/1999/xlink" x="0px" y="0px"
	 viewBox="0 0 294 217" style="enable-background:new 0 0 294 217;" xml:space="preserve">
<style type="text/css">
	.st0{fill:#FFFFFF;}
	.st1{fill:#D3DAED;}
	.st2{fill:url(#Rectángulo_1522_1_);}
	.st3{opacity:0.3;}
	.st4{fill:#414042;}
	.st5{fill:#E6E7E8;}
	.st6{fill:#4C5159;}
	.st7{fill:#E5E9F4;}
	.st8{fill:url(#Trazado_6331_1_);}
	.st9{fill:#FFC107;}
</style>
<g id="Grupo_3565" transform="translate(0.091 41.025)">
	<path id="Rectángulo_1520" class="st0" d="M60.39,17.27h173.52c0.77,0,1.39,0.62,1.39,1.39v107.33c0,0.77-0.62,1.39-1.39,1.39
		H60.39c-0.77,0-1.39-0.62-1.39-1.39V18.66C59,17.89,59.62,17.27,60.39,17.27z"/>
</g>
<g id="Grupo_3566" transform="translate(0.091 41.025)">
	<path id="Rectángulo_1521" class="st1" d="M60.39,17.27h173.52c0.77,0,1.39,0.62,1.39,1.39c0,0,0,0,0,0v84.85l0,0H59l0,0V18.66
		C59,17.89,59.62,17.27,60.39,17.27z"/>
</g>
<g id="Grupo_3567" transform="translate(9.259 49.08)">
	
		<linearGradient id="Rectángulo_1522_1_" gradientUnits="userSpaceOnUse" x1="-9.0527" y1="711.7019" x2="-9.0527" y2="710.7019" gradientTransform="matrix(157.766 0 0 -78.181 1566.0895 55658.8359)">
		<stop  offset="0.021" style="stop-color:#FFC107"/>
		<stop  offset="0.319" style="stop-color:#FFAF03"/>
		<stop  offset="0.71" style="stop-color:#FF9E01"/>
		<stop  offset="1" style="stop-color:#FF9800"/>
	</linearGradient>
	<rect id="Rectángulo_1522" x="59" y="17.27" class="st2" width="157.77" height="78.18"/>
</g>
<g id="Grupo_3568" transform="translate(23.248 41.025)" class="st3">
	<path id="Trazado_6328" class="st4" d="M59,17.27l5.54,85.76h119.51l5.54-85.76L59,17.27z"/>
</g>
<g id="Grupo_3569" transform="translate(44.541 151.133)">
	<rect id="Rectángulo_1523" x="59" y="17.27" class="st0" width="85.72" height="28.15"/>
</g>
<g id="Grupo_3570" transform="translate(44.541 151.133)">
	<rect id="Rectángulo_1524" x="59" y="17.27" class="st5" width="85.72" height="11.05"/>
</g>
<g id="Grupo_3571" transform="translate(42.153 151.494)">
	<rect id="Rectángulo_1525" x="59" y="17.27" class="st6" width="4.03" height="28.25"/>
</g>
<g id="Grupo_3572" transform="translate(128.254 151.494)">
	<rect id="Rectángulo_1526" x="59" y="17.27" class="st6" width="4.03" height="28.25"/>
</g>
<g id="Grupo_3573" transform="translate(28.79 177.736)">
	<rect id="Rectángulo_1527" x="59" y="17.27" class="st6" width="117.79" height="4.03"/>
</g>
<g id="Grupo_3574" transform="translate(28.789 1.481)">
	<path id="Trazado_6329" class="st7" d="M177.77,17.27H59.76c-0.42,0-0.76,0.34-0.76,0.76c0,0,0,0,0,0v124.55h119.52V18.03
		C178.52,17.61,178.18,17.27,177.77,17.27z"/>
</g>
<g id="Grupo_3575" transform="translate(134.878 1.481)">
	<path id="Trazado_6330" class="st5" d="M71.68,17.27H59c0.42,0,0.76,0.34,0.76,0.76c0,0,0,0,0,0v124.55h12.67V18.03
		C72.43,17.61,72.09,17.27,71.68,17.27L71.68,17.27z"/>
</g>
<linearGradient id="Trazado_6331_1_" gradientUnits="userSpaceOnUse" x1="-0.7556" y1="761.804" x2="0.4644" y2="763.466" gradientTransform="matrix(119.5266 0 0 -20.011 172.3572 15288.2305)">
	<stop  offset="0" style="stop-color:#3C5185"/>
	<stop  offset="0.128" style="stop-color:#41578D"/>
	<stop  offset="0.695" style="stop-color:#5572B0"/>
	<stop  offset="1" style="stop-color:#5D7DBE"/>
</linearGradient>
<path id="Trazado_6331" class="st8" d="M206.55,18.75H88.55c-0.48,0.07-0.81,0.51-0.76,0.99v19.02h119.52V19.74
	C207.36,19.26,207.03,18.82,206.55,18.75z"/>
<g id="Grupo_3576" transform="translate(28.354)">
	<path id="Trazado_6332" class="st6" d="M138.19,40.77H59V20.01c0-1.52,1.23-2.74,2.74-2.74h114.9c1.52,0,2.75,1.23,2.75,2.74v18.75
		h-4.02V21.29H63.03v15.46h75.16L138.19,40.77z"/>
</g>
<g id="Grupo_3577" transform="translate(40.562 10.444)">
	<rect id="Rectángulo_1528" x="59" y="17.27" class="st0" width="3.96" height="4.03"/>
</g>
<g id="Grupo_3578" transform="translate(50.065 10.444)">
	<rect id="Rectángulo_1529" x="59" y="17.27" class="st0" width="3.96" height="4.03"/>
</g>
<g id="Grupo_3579" transform="translate(59.569 10.444)">
	<rect id="Rectángulo_1530" x="59" y="17.27" class="st0" width="3.96" height="4.03"/>
</g>
<g id="Grupo_3580" transform="translate(112.953 19.48)">
	<rect id="Rectángulo_1531" x="59" y="17.27" class="st6" width="6.44" height="4.03"/>
</g>
<g id="Grupo_3581" transform="translate(116.352 52.14)">
	<rect id="Rectángulo_1532" x="59" y="17.27" class="st6" width="17.14" height="4.03"/>
</g>
<g id="Grupo_3582" transform="translate(116.352 68.897)">
	<rect id="Rectángulo_1533" x="59" y="17.27" class="st6" width="17.14" height="4.03"/>
</g>
<g id="Grupo_3583" transform="translate(105.634 85.655)">
	<rect id="Rectángulo_1534" x="59" y="17.27" class="st6" width="27.85" height="4.03"/>
</g>
<g id="Grupo_3584" transform="translate(84.633 102.414)">
	<rect id="Rectángulo_1535" x="59" y="17.27" class="st6" width="48.86" height="4.03"/>
</g>
<g id="Grupo_3585" transform="translate(0 125.146)">
	<path id="Trazado_6333" class="st6" d="M229.44,45.04H65.02c-3.32,0-6.01-2.7-6.02-6.02V17.27h176.46v21.75
		C235.46,42.35,232.77,45.04,229.44,45.04z M63.03,21.29v17.73c0,1.1,0.89,1.99,1.99,1.99l0,0h164.42c1.1,0,2-0.89,2-1.99V21.29
		H63.03z"/>
</g>
<g id="Grupo_3586" transform="translate(57.502 52.086)">
	<circle id="Elipse_287" class="st9" cx="77.11" cy="35.38" r="18.11"/>
</g>
<g id="Grupo_3590" transform="translate(43.846 38.441)">
	<g id="Grupo_3587" transform="translate(27.821 26.945)">
		
			<rect id="Rectángulo_1536" x="68.66" y="14.45" transform="matrix(0.7071 -0.7071 0.7071 0.7071 0.236 58.4502)" class="st6" width="4.02" height="28.99"/>
	</g>
	<g id="Grupo_3588" transform="translate(26.685 25.811)">
		<path id="Trazado_6334" class="st6" d="M63.03,36.16H59V17.27H77.9v4.02H63.03V36.16z"/>
	</g>
	<g id="Grupo_3589">
		<path id="Trazado_6335" class="st6" d="M87.5,80.97c-2.83-0.29-5.61-0.96-8.26-1.98l1.45-3.76c2.33,0.89,4.76,1.48,7.24,1.73
			L87.5,80.97z M71.78,74.9c-2.29-1.69-4.34-3.68-6.11-5.91l3.16-2.5c1.54,1.95,3.34,3.69,5.34,5.16L71.78,74.9z M61.32,61.7
			c-1.13-2.62-1.9-5.38-2.28-8.2l3.98-0.54c0.34,2.46,1.01,4.87,1.99,7.16L61.32,61.7z M118.68,46.73
			c-0.21-2.48-0.75-4.92-1.61-7.26l3.78-1.39c0.98,2.67,1.6,5.46,1.84,8.3L118.68,46.73z M62.99,45.53L59,45
			c0.37-2.82,1.11-5.58,2.19-8.21l3.72,1.54C63.96,40.64,63.32,43.05,62.99,45.53L62.99,45.53z M113.61,32.9
			c-1.44-2.03-3.15-3.86-5.07-5.44l2.56-3.11c2.2,1.81,4.14,3.9,5.79,6.22L113.61,32.9z M68.65,31.92l-3.18-2.47
			c1.75-2.25,3.79-4.25,6.07-5.96l2.41,3.22C71.96,28.21,70.18,29.95,68.65,31.92L68.65,31.92z M102.21,23.55
			c-2.27-1.01-4.67-1.72-7.13-2.1l0.62-3.98c2.81,0.44,5.55,1.25,8.15,2.41L102.21,23.55z M80.44,23.08l-1.48-3.74
			c2.65-1.05,5.42-1.74,8.26-2.06l0.44,4C85.18,21.55,82.75,22.15,80.44,23.08L80.44,23.08z"/>
	</g>
</g>
</svg>
