<?xml version="1.0" encoding="utf-8"?>
<!-- Generator: Adobe Illustrator 24.1.0, SVG Export Plug-In . SVG Version: 6.00 Build 0)  -->
<svg version="1.1" id="Capa_1" xmlns="http://www.w3.org/2000/svg" xmlns:xlink="http://www.w3.org/1999/xlink" x="0px" y="0px"
	 viewBox="0 0 294 217" style="enable-background:new 0 0 294 217;" xml:space="preserve">
<style type="text/css">
	.st0{fill:url(#Rectángulo_1537_1_);}
	.st1{fill:#E5E9F4;}
	.st2{fill:#4C5159;}
	.st3{opacity:0.2;}
	.st4{fill:#FFFFFF;}
	.st5{fill:#414042;}
	.st6{opacity:0.3;}
	.st7{fill:url(#Trazado_6340_1_);}
	.st8{fill:url(#Trazado_6342_1_);}
	.st9{fill:url(#Trazado_6344_1_);}
</style>
<g id="Grupo_3592" transform="translate(22.147 2.001)">
	
		<linearGradient id="Rectángulo_1537_1_" gradientUnits="userSpaceOnUse" x1="-22.4556" y1="758.3428" x2="-22.4556" y2="757.3428" gradientTransform="matrix(105.601 0 0 -177.668 2496.2441 134750.5625)">
		<stop  offset="0.038" style="stop-color:#99A7D8"/>
		<stop  offset="0.66" style="stop-color:#D3DAED"/>
		<stop  offset="0.848" style="stop-color:#B0BBE0"/>
		<stop  offset="1" style="stop-color:#99A7D8"/>
	</linearGradient>
	<path id="Rectángulo_1537" class="st0" d="M74.34,17.31h101.14c1.23,0,2.23,1,2.23,2.23v173.21c0,1.23-1,2.23-2.23,2.23H74.34
		c-1.23,0-2.23-1-2.23-2.23V19.54C72.11,18.31,73.11,17.31,74.34,17.31z"/>
</g>
<rect id="Rectángulo_1538" x="94.26" y="46.24" class="st1" width="105.6" height="124.15"/>
<g id="Grupo_3593" transform="translate(64.582 14.081)">
	<rect id="Rectángulo_1539" x="72.11" y="17.31" class="st2" width="22.23" height="4"/>
</g>
<g id="Grupo_3594" transform="translate(89.428 14.081)">
	<rect id="Rectángulo_1540" x="72.11" y="17.31" class="st2" width="6.67" height="4"/>
</g>
<g id="Grupo_3595" transform="translate(110.421 2.001)" class="st3">
	<path id="Trazado_6336" class="st4" d="M80.52,17.31h-8.41c4.92,0,8.92,3.99,8.92,8.92v159.83c0,4.92-3.99,8.92-8.91,8.92
		c0,0,0,0,0,0h8.41c4.92,0,8.92-3.99,8.92-8.91c0,0,0,0,0-0.01V26.23C89.44,21.3,85.45,17.31,80.52,17.31z"/>
</g>
<g id="Grupo_3596" transform="translate(22.146 2.001)" class="st3">
	<path id="Trazado_6337" class="st5" d="M81.03,17.31h8.41c-4.93,0-8.92,3.99-8.92,8.92v159.83c0,4.93,3.99,8.92,8.92,8.92
		c0,0,0,0,0,0h-8.41c-4.93,0-8.92-3.99-8.92-8.92c0,0,0,0,0,0V26.23C72.12,21.3,76.11,17.31,81.03,17.31z"/>
</g>
<g id="Grupo_3597" transform="translate(20.145)">
	<path id="Trazado_6338" class="st2" d="M170.8,198.98H83.04c-6.03-0.01-10.91-4.89-10.92-10.92V28.24
		c0.01-6.03,4.89-10.92,10.92-10.92h87.76c6.03,0.01,10.91,4.89,10.92,10.92v159.82C181.71,194.09,176.83,198.97,170.8,198.98z
		 M83.04,21.31c-3.82,0-6.92,3.1-6.92,6.92v159.83c0.01,3.82,3.1,6.91,6.92,6.92h87.76c3.82,0,6.91-3.1,6.92-6.92V28.24
		c0-3.82-3.1-6.92-6.92-6.92L83.04,21.31z"/>
</g>
<g id="Grupo_3598" transform="translate(22.146 52.074)" class="st6">
	<path id="Trazado_6339" class="st5" d="M177.71,17.31H72.11V46.3c3.96-1.61,6.58-5.43,6.66-9.71c0,5.93,5.15,10.73,11.5,10.73
		s11.49-4.81,11.49-10.73c0,5.93,5.15,10.73,11.49,10.73s11.5-4.81,11.5-10.73c0,5.93,5.15,10.73,11.49,10.73s11.5-4.81,11.5-10.73
		c0,5.93,5.15,10.73,11.49,10.73s11.49-4.81,11.5-10.73c0.08,4.41,2.84,8.32,6.97,9.87L177.71,17.31z"/>
</g>
<g id="Grupo_3599" transform="translate(5.813 44.07)">
	
		<linearGradient id="Trazado_6340_1_" gradientUnits="userSpaceOnUse" x1="-12.6186" y1="717.9648" x2="-12.6186" y2="716.9648" gradientTransform="matrix(22.995 0 0 -30.021 373.7749 21571.332)">
		<stop  offset="0.021" style="stop-color:#FFC107"/>
		<stop  offset="0.319" style="stop-color:#FFAF03"/>
		<stop  offset="0.71" style="stop-color:#FF9E01"/>
		<stop  offset="1" style="stop-color:#FF9800"/>
	</linearGradient>
	<path id="Trazado_6340" class="st7" d="M72.11,17.31V36.6c0,5.93,5.15,10.73,11.5,10.73s11.49-4.81,11.49-10.73V17.31H72.11z"/>
</g>
<g id="Grupo_3600" transform="translate(28.806 44.07)">
	<path id="Trazado_6341" class="st4" d="M72.11,17.31V36.6c0,5.93,5.15,10.73,11.5,10.73s11.49-4.81,11.49-10.73V17.31H72.11z"/>
</g>
<g id="Grupo_3601" transform="translate(51.799 44.07)">
	
		<linearGradient id="Trazado_6342_1_" gradientUnits="userSpaceOnUse" x1="-58.6046" y1="717.9648" x2="-58.6046" y2="716.9648" gradientTransform="matrix(22.995 0 0 -30.021 1431.2228 21571.332)">
		<stop  offset="0.021" style="stop-color:#FFC107"/>
		<stop  offset="0.319" style="stop-color:#FFAF03"/>
		<stop  offset="0.71" style="stop-color:#FF9E01"/>
		<stop  offset="1" style="stop-color:#FF9800"/>
	</linearGradient>
	<path id="Trazado_6342" class="st8" d="M72.11,17.31V36.6c0,5.93,5.15,10.73,11.49,10.73s11.5-4.81,11.5-10.73V17.31H72.11z"/>
</g>
<g id="Grupo_3602" transform="translate(74.792 44.07)">
	<path id="Trazado_6343" class="st4" d="M72.11,17.31V36.6c0,5.93,5.15,10.73,11.49,10.73s11.5-4.81,11.5-10.73V17.31H72.11z"/>
</g>
<g id="Grupo_3603" transform="translate(97.786 44.07)">
	
		<linearGradient id="Trazado_6344_1_" gradientUnits="userSpaceOnUse" x1="-104.5923" y1="717.9648" x2="-104.5923" y2="716.9648" gradientTransform="matrix(22.993 0 0 -30.021 2488.5002 21571.332)">
		<stop  offset="0.021" style="stop-color:#FFC107"/>
		<stop  offset="0.319" style="stop-color:#FFAF03"/>
		<stop  offset="0.71" style="stop-color:#FF9E01"/>
		<stop  offset="1" style="stop-color:#FF9800"/>
	</linearGradient>
	<path id="Trazado_6344" class="st9" d="M72.11,17.31V36.6c0,5.93,5.15,10.73,11.49,10.73s11.5-4.81,11.5-10.73V17.31H72.11z"/>
</g>
<g id="Grupo_3604" transform="translate(120.779 44.07)">
	<path id="Trazado_6345" class="st4" d="M72.11,17.31V36.6c0,5.93,5.14,10.73,11.49,10.73S95.1,42.53,95.1,36.6V17.31H72.11z"/>
</g>
<g id="Grupo_3611" transform="translate(3.811 47.319)">
	<g id="Grupo_3605">
		<path id="Trazado_6346" class="st2" d="M85.61,46.08c-7.45-0.01-13.49-6.05-13.5-13.5V17.32h4v15.27
			c-0.16,5.24,3.96,9.63,9.2,9.79c5.24,0.16,9.63-3.96,9.79-9.2c0.01-0.19,0.01-0.39,0-0.58V17.32h4v15.27
			C99.09,40.04,93.06,46.07,85.61,46.08z"/>
	</g>
	<g id="Grupo_3606" transform="translate(22.993)">
		<path id="Trazado_6347" class="st2" d="M85.61,46.08c-7.45-0.01-13.49-6.05-13.5-13.5V17.32h4v15.27
			c-0.16,5.24,3.96,9.63,9.2,9.79c5.24,0.16,9.63-3.96,9.79-9.2c0.01-0.19,0.01-0.39,0-0.58V17.32h4v15.27
			C99.09,40.04,93.06,46.07,85.61,46.08z"/>
	</g>
	<g id="Grupo_3607" transform="translate(45.987)">
		<path id="Trazado_6348" class="st2" d="M85.61,46.08c-7.45-0.01-13.49-6.05-13.5-13.5V17.32h4v15.27
			c-0.16,5.24,3.96,9.63,9.2,9.79c5.24,0.16,9.63-3.96,9.79-9.2c0.01-0.19,0.01-0.39,0-0.58V17.32h4v15.27
			C99.09,40.04,93.06,46.07,85.61,46.08z"/>
	</g>
	<g id="Grupo_3608" transform="translate(68.98)">
		<path id="Trazado_6349" class="st2" d="M85.61,46.08c-7.45-0.01-13.49-6.05-13.5-13.5V17.32h4v15.27
			c-0.16,5.24,3.96,9.63,9.2,9.79c5.24,0.16,9.63-3.96,9.79-9.2c0.01-0.19,0.01-0.39,0-0.58V17.32h4v15.27
			C99.09,40.04,93.06,46.07,85.61,46.08z"/>
	</g>
	<g id="Grupo_3609" transform="translate(91.973)">
		<path id="Trazado_6350" class="st2" d="M85.61,46.08c-7.45-0.01-13.49-6.05-13.5-13.5V17.32h4v15.27
			c-0.05,5.24,4.15,9.54,9.4,9.59s9.54-4.15,9.59-9.4c0-0.07,0-0.13,0-0.2V17.32h4v15.27C99.09,40.04,93.05,46.07,85.61,46.08z"/>
	</g>
	<g id="Grupo_3610" transform="translate(115.623)">
		<path id="Trazado_6351" class="st2" d="M85.61,46.08c-7.45-0.01-13.49-6.05-13.5-13.5V17.32h4v15.27
			c-0.16,5.24,3.96,9.63,9.2,9.79c5.24,0.16,9.63-3.96,9.79-9.2c0.01-0.19,0.01-0.39,0-0.58V17.32h4v15.27
			C99.09,40.04,93.06,46.07,85.61,46.08z"/>
	</g>
</g>
<g id="Grupo_3615" transform="translate(60.724 83.854)">
	<g id="Grupo_3612" transform="translate(0 6.915)">
		<path id="Trazado_6352" class="st4" d="M90.92,55.56H73.04v-4h17.88c3.62,0,6.56-2.94,6.55-6.57c0-3.62-2.94-6.55-6.55-6.55h-8.25
			c-5.83,0-10.57-4.72-10.57-10.55c0-5.83,4.72-10.57,10.55-10.57c0.01,0,0.01,0,0.02,0h17.3v4h-17.3c-3.62,0-6.56,2.93-6.57,6.55
			s2.93,6.56,6.55,6.57c0,0,0.01,0,0.01,0h8.25c5.83,0,10.56,4.74,10.55,10.57C101.47,50.83,96.75,55.56,90.92,55.56z"/>
	</g>
	<g id="Grupo_3613" transform="translate(13.11)">
		<rect id="Rectángulo_1541" x="72.11" y="17.31" class="st4" width="4" height="8.92"/>
	</g>
	<g id="Grupo_3614" transform="translate(13.11 43.072)">
		<rect id="Rectángulo_1542" x="72.11" y="17.31" class="st4" width="4" height="8.29"/>
	</g>
</g>
<g id="Grupo_3616" transform="translate(0 42.07)">
	<rect id="Rectángulo_1543" x="72.11" y="17.31" class="st2" width="150.24" height="4"/>
</g>
</svg>
