<?xml version="1.0" encoding="utf-8"?>
<!-- Generator: Adobe Illustrator 24.1.0, SVG Export Plug-In . SVG Version: 6.00 Build 0)  -->
<svg version="1.1" id="Capa_1" xmlns="http://www.w3.org/2000/svg" xmlns:xlink="http://www.w3.org/1999/xlink" x="0px" y="0px"
	 viewBox="0 0 294 217" style="enable-background:new 0 0 294 217;" xml:space="preserve">
<style type="text/css">
	.st0{fill:url(#Elipse_289_1_);}
	.st1{fill:#FFDA6A;}
	.st2{fill:#4C5159;}
	.st3{fill:#F1F2F2;}
	.st4{opacity:0.3;}
	.st5{fill:#414042;}
	.st6{fill:#EDEDED;}
	.st7{fill:#E5E9F4;}
	.st8{fill:url(#Trazado_6369_1_);}
	.st9{fill:url(#Trazado_6372_1_);}
	.st10{fill:url(#Trazado_6374_1_);}
	.st11{fill:url(#Trazado_6376_1_);}
	.st12{fill:url(#Trazado_6377_1_);}
</style>
<g id="dinero" transform="translate(0)">
	<g id="Grupo_3663" transform="translate(-113.306 -87.774)">
		<g id="Grupo_3632" transform="translate(242.392 149.255)">
			
				<linearGradient id="Elipse_289_1_" gradientUnits="userSpaceOnUse" x1="-131.7205" y1="699.6868" x2="-131.7205" y2="698.6868" gradientTransform="matrix(56.99 0 0 -56.99 7562.7212 39887)">
				<stop  offset="0.021" style="stop-color:#FFC107"/>
				<stop  offset="0.319" style="stop-color:#FFAF03"/>
				<stop  offset="0.71" style="stop-color:#FF9E01"/>
				<stop  offset="1" style="stop-color:#FF9800"/>
			</linearGradient>
			<circle id="Elipse_289" class="st0" cx="55.97" cy="40.34" r="28.5"/>
		</g>
		<g id="Grupo_3633" transform="translate(249.107 149.255)">
			<path id="Trazado_6359" class="st1" d="M49.26,11.84c-8.4-0.01-16.38,3.71-21.78,10.14c12.02-10.15,29.99-8.63,40.13,3.39
				c8.96,10.61,8.96,26.13,0,36.75c12.03-10.13,13.58-28.1,3.45-40.13C65.65,15.55,57.67,11.84,49.26,11.84z"/>
		</g>
		<g id="Grupo_3637" transform="translate(260.899 160.608)">
			<g id="Grupo_3634" transform="translate(0 4.239)">
				<path id="Trazado_6360" class="st2" d="M40.41,38.13H28.48V34.7h11.93c2.21,0,4-1.79,4-4s-1.79-4-4-4H34.9
					c-4.1,0.05-7.47-3.24-7.51-7.34s3.24-7.47,7.34-7.51c0.06,0,0.12,0,0.17,0h11.55v3.43H34.9c-2.21,0-4,1.79-4,4s1.79,4,4,4h5.51
					c4.1,0,7.43,3.32,7.43,7.43C47.84,34.8,44.51,38.12,40.41,38.13L40.41,38.13z"/>
			</g>
			<g id="Grupo_3635" transform="translate(8.751)">
				<rect id="Rectángulo_1550" x="27.48" y="11.84" class="st2" width="3.43" height="5.95"/>
			</g>
			<g id="Grupo_3636" transform="translate(8.751 28.748)">
				<rect id="Rectángulo_1551" x="27.48" y="11.84" class="st2" width="3.43" height="5.54"/>
			</g>
		</g>
		<g id="Grupo_3638" transform="translate(326.065 233.23)">
			<path id="Trazado_6361" class="st3" d="M45.49,62.49L45.49,62.49c-9.95,0-18.01-8.07-18.01-18.01v0V29.86
				c0-9.95,8.07-18.01,18.01-18.01l0,0l0,0c9.95,0,18.01,8.07,18.01,18.01v14.62C63.5,54.43,55.44,62.49,45.49,62.49z"/>
		</g>
		<g id="Grupo_3639" transform="translate(330.31 234.617)" class="st4">
			<path id="Trazado_6362" class="st5" d="M48.16,11.84c2.73,3.21,4.23,7.28,4.25,11.49v14.62c0.01,9.94-8.04,18.01-17.99,18.01
				c-2.38,0-4.74-0.47-6.94-1.39c6.3,7.64,17.61,8.73,25.26,2.43c4.15-3.42,6.55-8.53,6.53-13.91V28.47
				C59.26,21.2,54.88,14.64,48.16,11.84z"/>
		</g>
		<g id="Grupo_3640" transform="translate(324.352 231.517)">
			<path id="Trazado_6363" class="st2" d="M47.2,65.92c-10.89-0.01-19.71-8.84-19.72-19.73V31.57c0-10.89,8.83-19.73,19.73-19.73
				c10.89,0,19.73,8.83,19.73,19.73l0,0v14.62C66.91,57.08,58.09,65.91,47.2,65.92z M47.2,15.27c-9,0.01-16.29,7.3-16.3,16.3v14.62
				c0,9,7.3,16.3,16.3,16.3c9,0,16.3-7.3,16.3-16.3V31.57C63.49,22.57,56.2,15.28,47.2,15.27L47.2,15.27z"/>
		</g>
		<g id="Grupo_3641" transform="translate(326.064 252.677)">
			<rect id="Rectángulo_1552" x="27.48" y="11.84" class="st2" width="36.03" height="3.43"/>
		</g>
		<g id="Grupo_3642" transform="translate(342.364 240.206)">
			<rect id="Rectángulo_1553" x="27.48" y="11.84" class="st2" width="3.43" height="7.73"/>
		</g>
		<g id="Grupo_3643" transform="translate(269.745 197.591)">
			<path id="Trazado_6364" class="st2" d="M46.21,70.35c-10.34-0.01-18.72-8.39-18.73-18.73V25.74h3.43v25.87
				c0,8.45,6.85,15.31,15.31,15.31s15.31-6.85,15.31-15.31l0,0V32.85c0-11.6,9.4-21,21-21c0.09,0,0.18,0,0.26,0
				c11.48,0.18,20.7,9.52,20.74,21v14.64h-3.43V32.85c0-9.71-7.87-17.58-17.58-17.58s-17.58,7.87-17.58,17.58v18.77
				C64.93,61.96,56.55,70.34,46.21,70.35z"/>
		</g>
		<g id="Grupo_3644" transform="translate(229.911 136.774)">
			<path id="Trazado_6365" class="st2" d="M46.1,87.2c-1-0.65-1.97-1.34-2.91-2.08l2.11-2.7c0.86,0.67,1.75,1.31,2.66,1.9L46.1,87.2
				z M91.38,86.82l-1.92-2.84c0.6-0.4,1.19-0.83,1.76-1.26l2.08,2.72C92.67,85.92,92.03,86.38,91.38,86.82L91.38,86.82z
				 M96.04,83.15l-2.31-2.54c0.81-0.73,1.59-1.5,2.33-2.31l2.52,2.32C97.77,81.51,96.92,82.35,96.04,83.15L96.04,83.15z M40.48,82.8
				c-0.87-0.81-1.7-1.66-2.5-2.55l2.55-2.3c0.73,0.81,1.5,1.59,2.3,2.34L40.48,82.8z M100.89,77.9l-2.71-2.1
				c0.67-0.86,1.3-1.75,1.89-2.67l2.88,1.85C102.31,75.99,101.62,76.96,100.89,77.9L100.89,77.9z M35.7,77.49
				c-0.72-0.95-1.39-1.93-2.02-2.94l2.9-1.82c0.59,0.93,1.2,1.83,1.86,2.7L35.7,77.49z M104.76,71.89l-3.03-1.59
				c0.5-0.96,0.97-1.95,1.39-2.96l3.16,1.32C105.82,69.77,105.31,70.85,104.76,71.89L104.76,71.89z M31.91,71.44
				c-0.54-1.06-1.04-2.14-1.48-3.25l3.18-1.29c0.41,1.02,0.86,2.01,1.36,2.98L31.91,71.44z M107.52,65.3l-3.27-1.04
				c0.33-1.04,0.62-2.09,0.86-3.16l3.35,0.75C108.2,63.02,107.88,64.18,107.52,65.3L107.52,65.3z M29.24,64.82
				c-0.35-1.13-0.64-2.29-0.89-3.46l3.35-0.71c0.23,1.07,0.5,2.13,0.82,3.17L29.24,64.82z M109.09,58.33l-3.39-0.45
				c0.14-1.08,0.24-2.16,0.3-3.26l3.42,0.16C109.35,55.98,109.24,57.17,109.09,58.33L109.09,58.33z M27.76,57.84
				c-0.14-1.17-0.24-2.36-0.28-3.56l3.42-0.12c0.04,1.1,0.13,2.19,0.26,3.26L27.76,57.84z M106,51.34c-0.04-1.1-0.13-2.19-0.26-3.26
				l3.4-0.43c0.15,1.17,0.24,2.36,0.29,3.56L106,51.34z M30.93,50.88L27.5,50.7c0.06-1.2,0.17-2.39,0.34-3.56l3.39,0.48
				C31.08,48.7,30.98,49.78,30.93,50.88L30.93,50.88z M105.18,44.84c-0.23-1.07-0.51-2.13-0.83-3.17l3.27-1.01
				c0.35,1.13,0.65,2.29,0.9,3.46L105.18,44.84z M31.82,44.4l-3.34-0.76c0.27-1.17,0.58-2.32,0.95-3.45l3.26,1.05
				C32.36,42.28,32.07,43.34,31.82,44.4L31.82,44.4z M103.25,38.6c-0.41-1.01-0.87-2-1.37-2.97l3.05-1.57
				c0.55,1.05,1.04,2.14,1.49,3.25L103.25,38.6z M33.84,38.18l-3.15-1.34c0.47-1.1,0.98-2.18,1.54-3.23l3.02,1.6
				C34.73,36.18,34.26,37.17,33.84,38.18L33.84,38.18z M100.25,32.78c-0.58-0.93-1.2-1.82-1.86-2.69l2.73-2.08
				c0.72,0.95,1.4,1.93,2.04,2.94L100.25,32.78z M36.91,32.4l-2.87-1.86c0.65-1,1.34-1.97,2.07-2.91l2.7,2.11
				C38.13,30.59,37.5,31.48,36.91,32.4L36.91,32.4z M96.29,27.57c-0.73-0.81-1.5-1.58-2.31-2.33l2.33-2.51
				c0.87,0.81,1.71,1.66,2.52,2.55L96.29,27.57z M40.93,27.23l-2.51-2.33c0.82-0.87,1.66-1.71,2.55-2.51l2.3,2.55
				C42.45,25.67,41.67,26.44,40.93,27.23L40.93,27.23z M91.49,23.12c-0.86-0.67-1.76-1.3-2.68-1.9l1.86-2.88
				c1,0.65,1.98,1.34,2.92,2.07L91.49,23.12z M45.79,22.84l-2.07-2.73c0.95-0.72,1.93-1.4,2.94-2.03l1.83,2.9
				C47.55,21.57,46.65,22.19,45.79,22.84L45.79,22.84z M85.99,19.57c-0.97-0.51-1.95-0.97-2.96-1.4l1.33-3.16
				c1.1,0.47,2.18,0.98,3.23,1.53L85.99,19.57z M51.32,19.36l-1.56-3.05c1.06-0.54,2.14-1.04,3.24-1.49L54.3,18
				C53.28,18.41,52.29,18.87,51.32,19.36L51.32,19.36z M79.96,17.03c-1.03-0.33-2.08-0.62-3.15-0.86l0.76-3.34
				c1.17,0.27,2.32,0.58,3.45,0.94L79.96,17.03z M57.39,16.9l-1.01-3.27c1.13-0.35,2.29-0.65,3.46-0.9l0.72,3.35
				C59.48,16.31,58.42,16.58,57.39,16.9L57.39,16.9z M73.58,15.59c-1.08-0.15-2.16-0.25-3.27-0.3l0.17-3.42
				c1.2,0.06,2.39,0.17,3.56,0.33L73.58,15.59z M63.78,15.53l-0.42-3.4c1.18-0.15,2.36-0.24,3.56-0.29l0.13,3.42
				C65.94,15.31,64.85,15.4,63.78,15.53L63.78,15.53z"/>
		</g>
	</g>
	<g id="Grupo_3678" transform="translate(-323.264 -423.583)">
		<g id="Grupo_3664" transform="translate(323.264 436.385)">
			<path id="Trazado_6366" class="st6" d="M153.89,125.11l-40.32-13.64V94.4c4.65-2.47,8.64-7.16,9.03-12.41l1.45-17.24l1.43-17.03
				l0.27-3.16c0-18.06-14.64-32.71-32.71-32.71c-18.07,0-30.85,14.65-30.85,32.71l0.41,3.03l2.23,16.63l2.38,17.77
				c0.39,5.29,3.49,10.01,8.19,12.47l0.22,3.23v13.17l-41.47,14.23c-3.89,1.39-6.48,5.07-6.5,9.2l-0.17,32.8h132.84l0.17-32.66
				C160.5,130.23,157.85,126.48,153.89,125.11z"/>
		</g>
		<g id="Grupo_3665" transform="translate(323.264 436.385)">
			<path id="Trazado_6367" class="st7" d="M153.89,125.11l-40.32-13.64V94.4c4.65-2.47,8.64-7.16,9.03-12.41l1.45-17.24l1.43-17.03
				l0.27-3.16c0-18.06-14.64-32.71-32.71-32.71c-18.07,0-30.85,14.65-30.85,32.71l0.41,3.03l2.23,16.63l2.38,17.77
				c0.39,5.29,3.49,10.01,8.19,12.47l0.22,3.23v13.17l-41.47,14.23c-3.89,1.39-6.48,5.07-6.5,9.2l-0.17,32.8h132.84l0.17-32.66
				C160.5,130.23,157.85,126.48,153.89,125.11z"/>
		</g>
		<g id="Grupo_3666" transform="translate(383.181 436.385)" class="st4">
			<path id="Trazado_6368" class="st5" d="M93.97,125.11l-40.32-13.64V94.4c4.65-2.47,8.64-7.16,9.03-12.41l1.45-17.24l1.43-17.03
				l0.27-3.16c0-18.06-14.64-32.71-32.71-32.71c-1.89,0.01-3.78,0.19-5.64,0.53c15.61,2.76,26.99,16.33,27,32.18l-0.27,3.16
				l-1.43,17.03l-1.45,17.24c-0.39,5.26-4.38,15.61-9.03,18.08v28.42l40.32,13.64c3.96,1.37,6.62,5.11,6.6,9.31l-0.17,15.65h11.34
				l0.17-32.66C100.58,130.23,97.93,126.49,93.97,125.11z"/>
		</g>
		<g id="Grupo_3667" transform="translate(323.264 535.387)">
			
				<linearGradient id="Trazado_6369_1_" gradientUnits="userSpaceOnUse" x1="-0.2715" y1="649.3795" x2="-0.2715" y2="648.3795" gradientTransform="matrix(133.0101 0 0 -56.235 130.0899 36529.6914)">
				<stop  offset="0.021" style="stop-color:#FFC107"/>
				<stop  offset="0.319" style="stop-color:#FFAF03"/>
				<stop  offset="0.71" style="stop-color:#FF9E01"/>
				<stop  offset="1" style="stop-color:#FF9800"/>
			</linearGradient>
			<path id="Trazado_6369" class="st8" d="M113.56,12.47l40.32,13.64c3.96,1.37,6.62,5.11,6.6,9.31l-0.17,32.66H27.48l0.17-32.8
				c0.02-4.13,2.61-7.81,6.5-9.2l41.47-14.23l18.02,31.92L113.56,12.47z"/>
		</g>
		<g id="Grupo_3668" transform="translate(401.209 536.011)">
			<path id="Trazado_6370" class="st1" d="M75.94,25.49L35.62,11.84l-8.14,12.93l33.9,11.47c3.33,1.15,5.56,4.3,5.55,7.83
				l-0.14,23.39h15.58l0.17-32.66C82.56,30.6,79.91,26.86,75.94,25.49z"/>
		</g>
		<g id="Grupo_3669" transform="translate(356.575 433.251)">
			<path id="Trazado_6371" class="st2" d="M66.48,107.76H55.18L39.34,97.34c-5.09-2.68-8.42-7.81-8.81-13.55l-3.06-38.14
				C27.3,27.07,42.22,11.86,60.8,11.68C79.39,11.5,94.6,26.42,94.78,45.01c0,0.16,0,0.33,0,0.49l-0.01,0.15L91.71,83.8
				c-0.41,5.8-3.8,10.96-8.96,13.63L66.48,107.76z M56.31,103.98h9.06l15.48-9.82c4.06-2.06,6.75-6.1,7.08-10.65L91,45.43
				c-0.11-16.5-13.58-29.78-30.08-29.67c-16.37,0.11-29.6,13.37-29.67,29.74l3.05,38c0.31,4.5,2.94,8.51,6.95,10.58L56.31,103.98z"
				/>
		</g>
		
			<linearGradient id="Trazado_6372_1_" gradientUnits="userSpaceOnUse" x1="312.5186" y1="1185.6102" x2="313.5186" y2="1185.6102" gradientTransform="matrix(20.061 0 0 -26.335 -5862.5708 31813.3359)">
			<stop  offset="0" style="stop-color:#6874E7"/>
			<stop  offset="0.476" style="stop-color:#737EE8"/>
			<stop  offset="0.985" style="stop-color:#858EEC"/>
		</linearGradient>
		<path id="Trazado_6372" class="st9" d="M423.81,577.13l3.12,26.34h-20.06l4.01-26.34H423.81z"/>
		<g id="Grupo_3670" transform="translate(343.08 579.779)">
			<path id="Trazado_6373" class="st2" d="M51.6,23.11h-3.78v-7.48H27.47v-3.78h24.12L51.6,23.11z"/>
		</g>
		<g id="Grupo_3671" transform="translate(356.232 570.312)">
			<rect id="Rectángulo_1554" x="27.48" y="11.84" class="st2" width="3.78" height="11.36"/>
		</g>
		
			<linearGradient id="Trazado_6374_1_" gradientUnits="userSpaceOnUse" x1="312.9854" y1="1186.4336" x2="313.9854" y2="1186.4336" gradientTransform="matrix(20.8912 0 0 -19.8634 -6131.7319 24133.8477)">
			<stop  offset="0" style="stop-color:#6874E7"/>
			<stop  offset="0.476" style="stop-color:#737EE8"/>
			<stop  offset="0.985" style="stop-color:#858EEC"/>
		</linearGradient>
		<path id="Trazado_6374" class="st10" d="M410.88,577.13l-3.98-12.23c-0.01-0.04,0-0.08,0.03-0.1l10.33-7.5
			c0.05-0.04,0.12-0.04,0.16,0l10.33,7.5c0.03,0.02,0.05,0.06,0.03,0.1l-3.98,12.23H410.88z"/>
		<g id="Grupo_3672" transform="translate(383.448 563.396)">
			<rect id="Rectángulo_1555" x="27.48" y="11.84" class="st2" width="12.95" height="3.78"/>
		</g>
		<g id="Grupo_3673" transform="translate(347.289 423.583)">
			<path id="Trazado_6375" class="st2" d="M112.44,59h-3.79v-4.67c0.01-21.37-17.31-38.71-38.68-38.72
				C48.6,15.6,31.27,32.92,31.26,54.29c0,0.01,0,0.02,0,0.03V59h-3.78v-4.67c0-23.46,19.02-42.48,42.48-42.48
				c23.46,0,42.48,19.02,42.48,42.48L112.44,59z"/>
		</g>
		
			<linearGradient id="Trazado_6376_1_" gradientUnits="userSpaceOnUse" x1="308.3263" y1="1185.5428" x2="309.3263" y2="1185.5428" gradientTransform="matrix(14.7841 0 0 -27.0565 -4185.2207 32569.0723)">
			<stop  offset="0" style="stop-color:#6874E7"/>
			<stop  offset="0.476" style="stop-color:#737EE8"/>
			<stop  offset="0.985" style="stop-color:#858EEC"/>
		</linearGradient>
		<path id="Trazado_6376" class="st11" d="M387.88,505.84L387.88,505.84c-7.46,0.68-14.05-4.82-14.73-12.27c0,0,0,0,0,0l0,0
			c-0.68-7.45,4.81-14.05,12.26-14.73c0,0,0,0,0.01,0l0,0L387.88,505.84z"/>
		
			<linearGradient id="Trazado_6377_1_" gradientUnits="userSpaceOnUse" x1="308.3258" y1="1185.5428" x2="309.3258" y2="1185.5428" gradientTransform="matrix(14.7836 0 0 -27.0561 -4110.7505 32568.5664)">
			<stop  offset="0" style="stop-color:#6874E7"/>
			<stop  offset="0.476" style="stop-color:#737EE8"/>
			<stop  offset="0.985" style="stop-color:#858EEC"/>
		</linearGradient>
		<path id="Trazado_6377" class="st12" d="M447.41,505.84L447.41,505.84c7.46,0.68,14.05-4.82,14.73-12.27l0,0
			c0.68-7.45-4.81-14.05-12.27-14.73l0,0L447.41,505.84z"/>
		<g id="Grupo_3674" transform="translate(343.723 464.947)">
			<path id="Trazado_6378" class="st2" d="M42.9,42.84c-8.53-0.02-15.43-6.95-15.42-15.48c0.02-7.97,6.1-14.63,14.04-15.35
				l1.88-0.17l2.8,30.76l-1.88,0.17C43.85,42.82,43.37,42.84,42.9,42.84z M40,16.11c-6.23,1.62-9.98,7.98-8.36,14.21
				c0.61,2.36,1.95,4.47,3.83,6.04c1.87,1.57,4.19,2.51,6.63,2.68L40,16.11z"/>
		</g>
		<g id="Grupo_3675" transform="translate(417.876 464.947)">
			<path id="Trazado_6379" class="st2" d="M30.79,42.84c-0.47,0-0.95-0.02-1.42-0.07l-1.88-0.17l2.79-30.76l1.88,0.17
				c8.5,0.78,14.75,8.29,13.98,16.79C45.41,36.74,38.76,42.83,30.79,42.84L30.79,42.84z M33.69,16.11L31.6,39.03
				c5.7-0.42,10.25-4.89,10.78-10.58C42.89,22.77,39.21,17.55,33.69,16.11z"/>
		</g>
		<g id="Grupo_3676" transform="translate(391.55 490.442)">
			<path id="Trazado_6380" class="st2" d="M64.3,35.76H27.48v-3.79H62.2l2.2-3.53v-16.6h3.78v17.69L64.3,35.76z"/>
		</g>
		<g id="Grupo_3677" transform="translate(369.606 518.515)">
			<path id="Trazado_6381" class="st2" d="M38.89,48.44L27.48,30.45V11.84h3.78v17.51l8.53,13.45l7.84-6.45l8.38,6.57l8.61-11.78
				v-19.3h3.78v20.53L56.76,48.31l-9.07-7.11L38.89,48.44z"/>
		</g>
	</g>
</g>
</svg>
