<?xml version="1.0" encoding="utf-8"?>
<!-- Generator: Adobe Illustrator 24.1.0, SVG Export Plug-In . SVG Version: 6.00 Build 0)  -->
<svg version="1.1" id="Capa_1" xmlns="http://www.w3.org/2000/svg" xmlns:xlink="http://www.w3.org/1999/xlink" x="0px" y="0px"
	 viewBox="0 0 1366 768" style="enable-background:new 0 0 1366 768;" xml:space="preserve">
<style type="text/css">
	.st0{opacity:0.3;}
	.st1{fill:#3C5185;fill-opacity:0;}
	.st2{opacity:0.024;fill:#3C5185;enable-background:new    ;}
	.st3{opacity:0.049;fill:#3C5185;enable-background:new    ;}
	.st4{opacity:0.073;fill:#3C5185;enable-background:new    ;}
	.st5{opacity:0.098;fill:#3C5185;enable-background:new    ;}
	.st6{opacity:0.122;fill:#3C5185;enable-background:new    ;}
	.st7{opacity:0.146;fill:#3C5185;enable-background:new    ;}
	.st8{opacity:0.171;fill:#3C5185;enable-background:new    ;}
	.st9{opacity:0.195;fill:#3C5185;enable-background:new    ;}
	.st10{opacity:0.22;fill:#3C5185;enable-background:new    ;}
	.st11{opacity:0.244;fill:#3C5185;enable-background:new    ;}
	.st12{opacity:0.268;fill:#3C5185;enable-background:new    ;}
	.st13{opacity:0.293;fill:#3C5185;enable-background:new    ;}
	.st14{opacity:0.317;fill:#3C5185;enable-background:new    ;}
	.st15{opacity:0.341;fill:#3C5185;enable-background:new    ;}
	.st16{opacity:0.366;fill:#3C5185;enable-background:new    ;}
	.st17{opacity:0.39;fill:#3C5185;enable-background:new    ;}
	.st18{opacity:0.415;fill:#3C5185;enable-background:new    ;}
	.st19{opacity:0.439;fill:#3C5185;enable-background:new    ;}
	.st20{opacity:0.463;fill:#3C5185;enable-background:new    ;}
	.st21{opacity:0.488;fill:#3C5185;enable-background:new    ;}
	.st22{opacity:0.512;fill:#3C5185;enable-background:new    ;}
	.st23{opacity:0.537;fill:#3C5185;enable-background:new    ;}
	.st24{opacity:0.561;fill:#3C5185;enable-background:new    ;}
	.st25{opacity:0.585;fill:#3C5185;enable-background:new    ;}
	.st26{opacity:0.61;fill:#3C5185;enable-background:new    ;}
	.st27{opacity:0.634;fill:#3C5185;enable-background:new    ;}
	.st28{opacity:0.659;fill:#3C5185;enable-background:new    ;}
	.st29{opacity:0.683;fill:#3C5185;enable-background:new    ;}
	.st30{opacity:0.707;fill:#3C5185;enable-background:new    ;}
	.st31{opacity:0.732;fill:#3C5185;enable-background:new    ;}
	.st32{opacity:0.756;fill:#3C5185;enable-background:new    ;}
	.st33{opacity:0.78;fill:#3C5185;enable-background:new    ;}
	.st34{opacity:0.805;fill:#3C5185;enable-background:new    ;}
	.st35{opacity:0.829;fill:#3C5185;enable-background:new    ;}
	.st36{opacity:0.854;fill:#3C5185;enable-background:new    ;}
	.st37{opacity:0.878;fill:#3C5185;enable-background:new    ;}
	.st38{opacity:0.902;fill:#3C5185;enable-background:new    ;}
	.st39{opacity:0.927;fill:#3C5185;enable-background:new    ;}
	.st40{opacity:0.951;fill:#3C5185;enable-background:new    ;}
	.st41{opacity:0.976;fill:#3C5185;enable-background:new    ;}
	.st42{fill:#3C5185;}
	.st43{fill:url(#Trazado_2634_1_);}
	.st44{fill:#F3F8FE;}
	.st45{fill:#A5CBEF;}
	.st46{fill:url(#Trazado_2638_1_);}
	.st47{fill:url(#Trazado_2639_1_);}
	.st48{fill:url(#Trazado_2640_1_);}
	.st49{fill:url(#Trazado_2641_1_);}
	.st50{fill:url(#Trazado_2642_1_);}
	.st51{fill:url(#Trazado_2643_1_);}
	.st52{fill:url(#Trazado_2644_1_);}
	.st53{opacity:0.3;fill:#3C5185;enable-background:new    ;}
	.st54{fill:url(#Trazado_2646_1_);}
	.st55{fill:url(#Trazado_2648_1_);}
	.st56{fill:url(#Trazado_2650_1_);}
	.st57{fill:#FFFFFF;}
	.st58{fill:url(#Trazado_2653_1_);}
	.st59{fill:#7EA7DF;}
	.st60{fill:#4A65A3;}
	.st61{fill:url(#Trazado_2659_1_);}
	.st62{fill:#5D7DBE;}
	.st63{fill:#FEFEFF;}
	.st64{opacity:0.5;fill:url(#Trazado_2665_1_);enable-background:new    ;}
	.st65{opacity:0.5;fill:url(#Trazado_2666_1_);enable-background:new    ;}
	.st66{fill:url(#Trazado_2668_1_);}
	.st67{fill:url(#Trazado_2669_1_);}
	.st68{fill:url(#Trazado_2670_1_);}
	.st69{fill:#F2B1B5;}
	.st70{opacity:0.3;fill:#EF9EA3;enable-background:new    ;}
	.st71{fill:url(#Trazado_2682_1_);}
	.st72{opacity:0.15;fill:#EF9EA3;enable-background:new    ;}
	.st73{fill:#D1E1F2;}
	.st74{fill:url(#Trazado_2686_1_);}
	.st75{opacity:0.15;fill:#7EA7DF;enable-background:new    ;}
	.st76{opacity:0.33;fill:#7EA7DF;enable-background:new    ;}
	.st77{fill:url(#Trazado_2707_1_);}
	.st78{fill:#BF9105;}
	.st79{fill:#2D3D64;}
	.st80{fill:#363650;}
	.st81{fill:#FFCD39;}
	.st82{fill:url(#Trazado_2717_1_);}
	.st83{fill:#63749D;}
	.st84{fill:#4F6291;}
	.st85{fill:#6785C2;}
	.st86{fill:#7D97CB;}
	.st87{fill:url(#Trazado_2729_1_);}
	.st88{fill:url(#Trazado_2734_1_);}
	.st89{fill:url(#Trazado_2737_1_);}
	.st90{fill:#C9E0F5;}
	.st91{opacity:0.5;fill:url(#Trazado_2745_1_);enable-background:new    ;}
	.st92{fill:url(#Trazado_2746_1_);}
	.st93{fill:url(#Trazado_2747_1_);}
</style>
<g id="Grupo_1126" transform="translate(0 276.105)">
	<g id="Grupo_1122" transform="translate(0 14.15)" class="st0">
		<path id="Trazado_2592" class="st1" d="M1002.69,185.93l-1.23-2.52c-0.83-1.61-2.01-3-3.45-4.09c-0.26-0.24-0.58-0.46-0.88-0.7
			c-0.18-0.12-0.32-0.29-0.5-0.4l-0.32-0.19c-0.36-0.25-0.66-0.52-1.06-0.75L779.52,52.74c-7.85-4.53-20.7-4.53-28.55,0
			L339.82,290.11c-4.82,2.78-6.65,6.65-5.55,10.27l-0.33,0.2v7.84c0,8.22,4.39,15.82,11.52,19.93l210.09,120.93
			c7.85,4.53,20.7,4.53,28.55,0l410.48-236.91C1003.8,207.05,1007.34,195.5,1002.69,185.93z"/>
		<path id="Trazado_2593" class="st2" d="M1001.19,185.76l-1.22-2.51c-0.82-1.6-2-2.99-3.43-4.07c-0.26-0.24-0.58-0.46-0.88-0.69
			c-0.18-0.12-0.32-0.29-0.5-0.4l-0.32-0.18c-0.36-0.25-0.65-0.51-1.05-0.75L779.2,53.27c-7.81-4.51-20.59-4.51-28.4,0
			L341.13,289.85c-4.79,2.77-6.61,6.62-5.52,10.22l-0.34,0.2v7.8c0,8.18,4.37,15.74,11.46,19.82l208.98,120.28
			c7.81,4.5,20.59,4.5,28.4,0l409.01-236.12C1002.3,206.76,1005.82,195.28,1001.19,185.76z"/>
		<path id="Trazado_2594" class="st3" d="M999.69,185.58l-1.21-2.5c-0.82-1.59-1.99-2.97-3.42-4.04c-0.26-0.24-0.57-0.46-0.87-0.69
			c-0.18-0.12-0.31-0.29-0.5-0.39l-0.32-0.18c-0.35-0.25-0.65-0.51-1.05-0.74L778.89,53.81c-7.77-4.48-20.48-4.48-28.25,0
			L342.44,289.6c-4.77,2.75-6.58,6.58-5.49,10.16l-0.33,0.2v7.76c0,8.14,4.35,15.66,11.4,19.72l207.86,119.63
			c7.77,4.48,20.48,4.48,28.25,0l407.54-235.32C1000.79,206.48,1004.29,195.06,999.69,185.58z"/>
		<path id="Trazado_2595" class="st4" d="M998.19,185.41l-1.21-2.48c-0.81-1.58-1.98-2.95-3.4-4.02c-0.26-0.24-0.57-0.46-0.86-0.69
			c-0.18-0.12-0.31-0.29-0.5-0.39l-0.32-0.18c-0.36-0.24-0.65-0.51-1.04-0.74L778.57,54.34c-7.73-4.46-20.37-4.46-28.09,0
			l-406.72,235c-4.74,2.74-6.55,6.55-5.46,10.11l-0.33,0.2v7.72c0,8.09,4.33,15.57,11.34,19.61l206.75,119
			c7.73,4.46,20.37,4.46,28.09,0l406.07-234.55C999.28,206.19,1002.77,194.84,998.19,185.41z"/>
		<path id="Trazado_2596" class="st5" d="M996.69,185.24l-1.2-2.46c-0.81-1.57-1.97-2.94-3.38-4c-0.26-0.24-0.57-0.46-0.86-0.68
			c-0.18-0.12-0.31-0.29-0.5-0.39l-0.32-0.18c-0.35-0.24-0.64-0.51-1.03-0.73L778.26,54.88c-7.68-4.44-20.26-4.44-27.94,0
			l-405.26,234.2c-4.71,2.72-6.51,6.51-5.43,10.05l-0.33,0.2v7.67c0,8.05,4.3,15.49,11.28,19.51l205.63,118.35
			c7.69,4.43,20.26,4.43,27.95,0l404.6-233.75C997.78,205.91,1001.24,194.61,996.69,185.24z"/>
		<path id="Trazado_2597" class="st6" d="M995.19,185.06l-1.2-2.45c-0.81-1.56-1.95-2.92-3.36-3.98c-0.26-0.23-0.57-0.45-0.86-0.68
			c-0.18-0.12-0.31-0.29-0.49-0.39l-0.32-0.18c-0.35-0.24-0.64-0.5-1.03-0.73l-210-121.24c-7.64-4.41-20.15-4.41-27.79,0
			L346.37,288.82c-4.69,2.71-6.48,6.48-5.41,10l-0.32,0.2v7.63c0,8.01,4.28,15.4,11.21,19.4l204.52,117.71
			c7.64,4.41,20.15,4.41,27.79,0l403.13-232.95C996.27,205.63,999.72,194.39,995.19,185.06z"/>
		<path id="Trazado_2598" class="st7" d="M993.69,184.89l-1.18-2.44c-0.8-1.55-1.95-2.91-3.34-3.96c-0.25-0.23-0.56-0.45-0.85-0.68
			c-0.18-0.11-0.31-0.28-0.49-0.39l-0.32-0.18c-0.35-0.24-0.63-0.5-1.02-0.73L777.63,55.94c-7.6-4.39-20.04-4.39-27.64,0
			l-402.3,232.62c-4.67,2.7-6.44,6.44-5.38,9.95l-0.32,0.19v7.59c0,7.97,4.25,15.32,11.16,19.3l203.4,117.07
			c7.6,4.39,20.04,4.39,27.64,0l401.65-232.17C994.76,205.34,998.19,194.16,993.69,184.89z"/>
		<path id="Trazado_2599" class="st8" d="M992.19,184.72l-1.18-2.43c-0.8-1.55-1.93-2.89-3.32-3.93c-0.25-0.23-0.56-0.45-0.85-0.67
			c-0.17-0.11-0.3-0.28-0.48-0.39l-0.31-0.18c-0.35-0.24-0.63-0.5-1.02-0.72L777.31,56.48c-7.56-4.36-19.93-4.36-27.49,0L349,288.31
			c-4.64,2.68-6.4,6.41-5.34,9.89l-0.32,0.19v7.55c0,7.92,4.23,15.24,11.09,19.19L556.7,441.56c7.56,4.36,19.93,4.36,27.49,0
			l400.18-231.38C993.26,205.06,996.67,193.94,992.19,184.72z"/>
		<path id="Trazado_2600" class="st9" d="M990.68,184.55l-1.17-2.41c-0.79-1.54-1.93-2.87-3.31-3.91c-0.25-0.23-0.55-0.45-0.84-0.67
			c-0.18-0.11-0.3-0.28-0.48-0.38l-0.31-0.18c-0.35-0.23-0.63-0.5-1.02-0.72L776.99,57.01c-7.52-4.34-19.82-4.34-27.34,0
			L350.31,288.05c-4.62,2.66-6.37,6.37-5.32,9.84l-0.32,0.19v7.5c0,7.88,4.21,15.15,11.03,19.09l201.17,115.79
			c7.52,4.34,19.82,4.34,27.34,0l398.71-230.58C991.75,204.77,995.14,193.72,990.68,184.55z"/>
		<path id="Trazado_2601" class="st10" d="M989.18,184.38l-1.17-2.4c-0.79-1.53-1.91-2.86-3.28-3.89c-0.25-0.23-0.55-0.44-0.84-0.66
			c-0.17-0.11-0.3-0.28-0.48-0.38l-0.31-0.18c-0.34-0.23-0.63-0.49-1.01-0.71L776.68,57.55c-7.48-4.32-19.71-4.32-27.19,0
			L351.62,287.79c-4.59,2.65-6.33,6.34-5.29,9.78l-0.32,0.19v7.46c0,7.84,4.18,15.08,10.97,18.99l200.05,115.14
			c7.48,4.31,19.71,4.31,27.18,0l397.24-229.79C990.24,204.49,993.61,193.5,989.18,184.38z"/>
		<path id="Trazado_2602" class="st11" d="M987.69,184.21l-1.16-2.39c-0.78-1.52-1.9-2.84-3.27-3.87c-0.25-0.23-0.55-0.44-0.83-0.66
			c-0.17-0.11-0.3-0.28-0.48-0.38l-0.3-0.18c-0.34-0.23-0.62-0.49-1-0.71L776.36,58.08c-7.43-4.29-19.6-4.29-27.03,0l-396.4,229.45
			c-4.56,2.64-6.3,6.3-5.26,9.73l-0.32,0.18v7.43c0,7.79,4.16,14.98,10.91,18.87l198.93,114.5c7.43,4.29,19.6,4.29,27.03,0
			l395.77-229C988.74,204.2,992.09,193.27,987.69,184.21z"/>
		<path id="Trazado_2603" class="st12" d="M986.19,184.03l-1.16-2.38c-0.78-1.51-1.89-2.82-3.25-3.84
			c-0.25-0.23-0.55-0.44-0.83-0.66c-0.17-0.11-0.3-0.28-0.48-0.38l-0.3-0.18c-0.34-0.23-0.62-0.49-1-0.71L776.05,58.62
			c-7.39-4.27-19.49-4.27-26.88,0L354.24,287.28c-4.54,2.62-6.27,6.27-5.23,9.68l-0.32,0.18v7.38c0,7.75,4.14,14.9,10.85,18.76
			l197.82,113.86c7.39,4.27,19.49,4.27,26.88,0l394.3-228.21C987.23,203.92,990.57,193.05,986.19,184.03z"/>
		<path id="Trazado_2604" class="st13" d="M984.69,183.86l-1.15-2.36c-0.78-1.5-1.88-2.81-3.23-3.83c-0.25-0.23-0.54-0.43-0.82-0.65
			c-0.17-0.11-0.29-0.27-0.47-0.38l-0.3-0.17c-0.34-0.23-0.61-0.48-0.99-0.7L775.73,59.15c-7.35-4.24-19.38-4.24-26.73,0
			L355.55,287.02c-4.51,2.6-6.23,6.23-5.2,9.62l-0.31,0.18v7.34c0,7.7,4.11,14.82,10.79,18.66l196.71,113.22
			c7.35,4.24,19.38,4.24,26.73,0l392.83-227.43C985.73,203.63,989.04,192.82,984.69,183.86z"/>
		<path id="Trazado_2605" class="st14" d="M983.18,183.69l-1.14-2.35c-0.77-1.49-1.87-2.79-3.22-3.8c-0.24-0.22-0.54-0.43-0.82-0.65
			c-0.17-0.11-0.3-0.27-0.47-0.37l-0.3-0.18c-0.34-0.23-0.61-0.48-0.98-0.7L775.42,59.69c-7.31-4.22-19.27-4.22-26.58,0
			L356.86,286.76c-4.49,2.59-6.19,6.2-5.17,9.57l-0.31,0.18v7.3c0,7.66,4.09,14.73,10.73,18.55L557.7,434.94
			c7.31,4.22,19.27,4.22,26.58,0L975.63,208.3C984.22,203.35,987.51,192.6,983.18,183.69z"/>
		<path id="Trazado_2606" class="st15" d="M981.68,183.51l-1.13-2.34c-0.77-1.48-1.86-2.78-3.2-3.78c-0.25-0.22-0.54-0.43-0.82-0.64
			c-0.17-0.11-0.29-0.27-0.47-0.37l-0.3-0.17c-0.34-0.23-0.61-0.48-0.98-0.7L775.1,60.22c-7.27-4.2-19.16-4.2-26.43,0L358.18,286.5
			c-4.46,2.58-6.16,6.16-5.14,9.51l-0.31,0.18v7.25c0,7.61,4.07,14.65,10.67,18.45l194.47,111.93c7.27,4.2,19.16,4.2,26.43,0
			l389.89-225.84C982.71,203.06,985.99,192.38,981.68,183.51z"/>
		<path id="Trazado_2607" class="st16" d="M980.18,183.34l-1.13-2.32c-0.76-1.48-1.85-2.76-3.18-3.76
			c-0.24-0.22-0.53-0.43-0.81-0.64c-0.17-0.11-0.29-0.27-0.47-0.37l-0.3-0.17c-0.33-0.23-0.6-0.48-0.97-0.69L774.79,60.76
			c-7.23-4.17-19.05-4.17-26.27,0L359.48,286.25c-4.44,2.56-6.12,6.12-5.11,9.45l-0.31,0.18v7.22c0,7.57,4.04,14.57,10.61,18.34
			l193.36,111.29c7.23,4.17,19.05,4.17,26.27,0l388.42-225.05C981.2,202.78,984.46,192.16,980.18,183.34z"/>
		<path id="Trazado_2608" class="st17" d="M978.68,183.17l-1.12-2.31c-0.76-1.47-1.84-2.75-3.16-3.74c-0.24-0.22-0.53-0.43-0.8-0.64
			c-0.16-0.11-0.29-0.27-0.46-0.37l-0.3-0.17c-0.33-0.23-0.6-0.47-0.97-0.69L774.47,61.29c-7.18-4.15-18.94-4.15-26.12,0
			L360.8,285.99c-4.41,2.54-6.09,6.08-5.08,9.4l-0.31,0.18v7.18c0,7.53,4.02,14.48,10.55,18.23l192.24,110.65
			c7.18,4.15,18.94,4.15,26.13,0l386.94-224.26C979.7,202.5,982.94,191.93,978.68,183.17z"/>
		<path id="Trazado_2609" class="st18" d="M977.18,183l-1.12-2.3c-0.75-1.46-1.83-2.73-3.14-3.71c-0.24-0.22-0.53-0.43-0.8-0.64
			c-0.17-0.11-0.29-0.27-0.46-0.36l-0.3-0.17c-0.33-0.23-0.59-0.47-0.96-0.68L774.15,61.83c-7.15-4.13-18.83-4.13-25.97,0
			L362.1,285.73c-4.38,2.53-6.05,6.05-5.05,9.35l-0.3,0.18v7.13c0,7.48,4,14.4,10.48,18.13l191.13,110c7.14,4.12,18.83,4.12,25.97,0
			L969.8,207.05C978.19,202.21,981.41,191.71,977.18,183z"/>
		<path id="Trazado_2610" class="st19" d="M975.68,182.83l-1.11-2.29c-0.75-1.45-1.82-2.72-3.13-3.7c-0.23-0.21-0.52-0.42-0.79-0.63
			c-0.16-0.11-0.28-0.27-0.46-0.36l-0.29-0.17c-0.33-0.22-0.59-0.47-0.96-0.68L773.84,62.37c-7.1-4.1-18.72-4.1-25.82,0
			l-384.6,223.11c-4.36,2.52-6.02,6.01-5.02,9.29l-0.3,0.18v7.09c0,7.44,3.97,14.31,10.42,18.02l190,109.36
			c7.1,4.1,18.72,4.1,25.82,0l384-222.68C976.68,201.93,979.89,191.49,975.68,182.83z"/>
		<path id="Trazado_2611" class="st20" d="M974.18,182.65l-1.1-2.27c-0.75-1.44-1.81-2.7-3.11-3.68c-0.24-0.21-0.52-0.42-0.79-0.63
			c-0.16-0.11-0.28-0.27-0.45-0.36l-0.29-0.17c-0.33-0.22-0.59-0.46-0.95-0.68L773.52,62.9c-7.06-4.07-18.61-4.07-25.67,0
			L364.73,285.22c-4.34,2.5-5.98,5.98-5,9.23l-0.3,0.18v7.05c0,7.4,3.95,14.23,10.36,17.92l188.89,108.73
			c7.06,4.07,18.61,4.07,25.67,0l382.53-221.9C975.18,201.64,978.36,191.26,974.18,182.65z"/>
		<path id="Trazado_2612" class="st21" d="M972.68,182.48l-1.1-2.25c-0.74-1.44-1.79-2.68-3.09-3.65c-0.23-0.21-0.52-0.41-0.78-0.62
			c-0.16-0.11-0.28-0.26-0.45-0.36l-0.29-0.17c-0.32-0.22-0.59-0.46-0.95-0.67L773.21,63.43c-7.02-4.05-18.5-4.05-25.52,0
			L366.04,284.96c-4.31,2.48-5.95,5.94-4.96,9.18l-0.3,0.18v7.01c0,7.35,3.93,14.15,10.3,17.81l187.78,108.08
			c7.02,4.05,18.5,4.05,25.52,0l381.06-221.1C973.67,201.36,976.84,191.04,972.68,182.48z"/>
		<path id="Trazado_2613" class="st22" d="M971.18,182.31l-1.09-2.24c-0.74-1.43-1.79-2.67-3.07-3.63
			c-0.23-0.21-0.52-0.41-0.78-0.62c-0.16-0.11-0.28-0.26-0.45-0.36l-0.28-0.16c-0.32-0.22-0.58-0.46-0.94-0.67L772.9,63.97
			c-6.98-4.02-18.39-4.02-25.37,0L367.35,284.7c-4.29,2.47-5.91,5.91-4.93,9.13l-0.3,0.18v6.97c0,7.31,3.9,14.06,10.23,17.71
			l186.67,107.44c6.98,4.03,18.39,4.03,25.36,0L963.97,205.8C972.17,201.07,975.31,190.81,971.18,182.31z"/>
		<path id="Trazado_2614" class="st23" d="M969.68,182.13l-1.08-2.23c-0.73-1.42-1.77-2.65-3.05-3.61
			c-0.23-0.21-0.51-0.41-0.77-0.62c-0.16-0.1-0.28-0.26-0.45-0.36l-0.28-0.16c-0.32-0.22-0.58-0.46-0.93-0.66l-190.52-110
			c-6.93-4-18.28-4-25.21,0L368.66,284.44c-4.25,2.46-5.88,5.87-4.9,9.07l-0.3,0.18v6.92c0,7.26,3.88,13.97,10.18,17.6l185.55,106.8
			c6.93,4,18.28,4,25.21,0l378.12-219.52C970.66,200.79,973.78,190.59,969.68,182.13z"/>
		<path id="Trazado_2615" class="st24" d="M968.18,181.96l-1.07-2.21c-0.73-1.41-1.76-2.63-3.03-3.59
			c-0.23-0.21-0.51-0.41-0.77-0.61c-0.16-0.1-0.28-0.26-0.44-0.35l-0.28-0.16c-0.32-0.21-0.58-0.45-0.93-0.66L772.26,65.04
			c-6.89-3.98-18.17-3.98-25.06,0L369.97,284.19c-4.23,2.44-5.84,5.84-4.88,9.02l-0.29,0.18v6.88c0,7.22,3.85,13.9,10.11,17.5
			l184.43,106.15c6.89,3.98,18.17,3.98,25.06,0l376.65-218.74C969.15,200.5,972.26,190.37,968.18,181.96z"/>
		<path id="Trazado_2616" class="st25" d="M966.68,181.79l-1.07-2.2c-0.72-1.4-1.75-2.62-3.01-3.56c-0.23-0.21-0.51-0.41-0.77-0.61
			c-0.16-0.11-0.28-0.26-0.44-0.35l-0.28-0.16c-0.32-0.22-0.57-0.45-0.92-0.66L771.95,65.57c-6.85-3.95-18.06-3.95-24.91,0
			L371.29,283.93c-4.21,2.43-5.8,5.8-4.85,8.96l-0.29,0.17v6.84c0,7.18,3.83,13.81,10.05,17.39L559.52,422.8
			c6.85,3.95,18.06,3.95,24.91,0L959.6,204.86C967.65,200.22,970.73,190.15,966.68,181.79z"/>
		<path id="Trazado_2617" class="st26" d="M965.18,181.62l-1.06-2.19c-0.72-1.39-1.74-2.61-3-3.54c-0.23-0.21-0.5-0.41-0.76-0.61
			c-0.16-0.11-0.27-0.25-0.44-0.35l-0.28-0.16c-0.32-0.21-0.57-0.45-0.92-0.65L771.63,66.11c-6.81-3.93-17.95-3.93-24.76,0
			L372.59,283.67c-4.18,2.41-5.77,5.77-4.82,8.91l-0.29,0.17v6.8c0,7.13,3.81,13.72,9.99,17.28l182.2,104.87
			c6.81,3.93,17.95,3.93,24.76,0l373.7-217.15C966.14,199.94,969.21,189.93,965.18,181.62z"/>
		<path id="Trazado_2618" class="st27" d="M963.68,181.44l-1.06-2.17c-0.71-1.39-1.73-2.59-2.98-3.52c-0.23-0.21-0.5-0.4-0.75-0.6
			c-0.16-0.1-0.28-0.25-0.44-0.34l-0.28-0.16c-0.31-0.21-0.57-0.45-0.91-0.65L771.32,66.64c-6.77-3.91-17.84-3.91-24.6,0
			L373.91,283.41c-4.16,2.4-5.73,5.73-4.79,8.85l-0.29,0.17v6.76c0,7.09,3.79,13.64,9.93,17.18L559.85,420.6
			c6.77,3.9,17.84,3.9,24.6,0l372.23-216.37C964.63,199.65,967.69,189.7,963.68,181.44z"/>
		<path id="Trazado_2619" class="st28" d="M962.18,181.27l-1.05-2.16c-0.71-1.37-1.72-2.57-2.96-3.5c-0.23-0.21-0.5-0.4-0.75-0.6
			c-0.16-0.1-0.27-0.25-0.43-0.34l-0.28-0.16c-0.31-0.21-0.56-0.44-0.91-0.64L771,67.18c-6.72-3.88-17.73-3.88-24.45,0
			L375.21,283.15c-4.13,2.38-5.7,5.7-4.75,8.8l-0.29,0.17v6.72c0,7.05,3.76,13.55,9.87,17.07l179.97,103.59
			c6.73,3.88,17.73,3.88,24.46,0l370.76-215.57C963.13,199.36,966.16,189.48,962.18,181.27z"/>
		<path id="Trazado_2620" class="st29" d="M960.67,181.1l-1.04-2.14c-0.7-1.37-1.71-2.56-2.94-3.48c-0.23-0.21-0.5-0.39-0.75-0.59
			c-0.15-0.1-0.27-0.25-0.43-0.34l-0.27-0.16c-0.31-0.21-0.56-0.44-0.9-0.64L770.69,67.71c-6.68-3.86-17.62-3.86-24.3,0
			L376.53,282.9c-4.1,2.37-5.66,5.66-4.73,8.75l-0.29,0.16v6.68c0,7,3.74,13.47,9.81,16.96l178.85,102.95
			c6.68,3.86,17.62,3.86,24.3,0l369.29-214.78C961.62,199.08,964.63,189.25,960.67,181.1z"/>
		<path id="Trazado_2621" class="st30" d="M959.17,180.93l-1.03-2.13c-0.7-1.36-1.7-2.54-2.92-3.46c-0.22-0.21-0.49-0.39-0.74-0.59
			c-0.16-0.1-0.27-0.25-0.43-0.34l-0.27-0.16c-0.3-0.21-0.55-0.44-0.9-0.64L770.38,68.25c-6.64-3.83-17.51-3.83-24.15,0
			L377.84,282.64c-4.08,2.35-5.63,5.63-4.7,8.69l-0.28,0.16v6.63c0,6.96,3.72,13.39,9.75,16.86l177.74,102.3
			c6.64,3.84,17.51,3.84,24.15,0L952.31,203.3C960.11,198.8,963.11,189.03,959.17,180.93z"/>
		<path id="Trazado_2622" class="st31" d="M957.67,180.76l-1.03-2.12c-0.7-1.35-1.69-2.52-2.91-3.43c-0.22-0.2-0.49-0.39-0.74-0.59
			c-0.15-0.1-0.27-0.25-0.43-0.34l-0.27-0.16c-0.3-0.21-0.55-0.43-0.89-0.63L770.06,68.78c-6.6-3.81-17.4-3.81-24,0l-366.91,213.6
			c-4.05,2.34-5.59,5.59-4.67,8.64l-0.28,0.16v6.59c0,6.92,3.69,13.3,9.69,16.75l176.62,101.66c6.6,3.81,17.4,3.81,24,0
			l366.35-213.2C958.61,198.51,961.59,188.81,957.67,180.76z"/>
		<path id="Trazado_2623" class="st32" d="M956.17,180.58l-1.02-2.11c-0.69-1.34-1.68-2.51-2.88-3.41c-0.22-0.2-0.49-0.39-0.73-0.58
			c-0.15-0.1-0.27-0.24-0.43-0.33l-0.27-0.16c-0.3-0.21-0.55-0.43-0.88-0.63L769.74,69.32c-6.56-3.79-17.29-3.79-23.85,0
			l-365.43,212.8c-4.03,2.32-5.56,5.55-4.64,8.58l-0.28,0.16v6.55c0,6.87,3.67,13.22,9.63,16.65l175.5,101.02
			c6.56,3.78,17.29,3.78,23.85,0L949.4,202.67C957.1,198.23,960.06,188.58,956.17,180.58z"/>
		<path id="Trazado_2624" class="st33" d="M954.67,180.41l-1.02-2.1c-0.69-1.33-1.67-2.49-2.87-3.39c-0.22-0.2-0.48-0.38-0.73-0.58
			c-0.15-0.1-0.26-0.24-0.42-0.33l-0.27-0.16c-0.3-0.2-0.54-0.43-0.88-0.62L769.43,69.85c-6.52-3.76-17.18-3.76-23.7,0
			L381.77,281.87c-4,2.31-5.52,5.52-4.61,8.53l-0.28,0.16v6.5c0,6.83,3.65,13.14,9.57,16.54l174.39,100.38
			c6.52,3.76,17.18,3.76,23.7,0l363.4-211.61C955.6,197.94,958.53,188.36,954.67,180.41z"/>
		<path id="Trazado_2625" class="st34" d="M953.17,180.24l-1.01-2.08c-0.68-1.32-1.66-2.48-2.85-3.37c-0.22-0.2-0.48-0.38-0.73-0.57
			c-0.15-0.1-0.26-0.24-0.41-0.33l-0.27-0.15c-0.3-0.2-0.54-0.43-0.87-0.62L769.11,70.39c-6.48-3.74-17.07-3.74-23.54,0
			L383.08,281.61c-3.98,2.29-5.48,5.48-4.58,8.47l-0.28,0.16v6.47c0,6.78,3.62,13.05,9.5,16.43L561,412.88
			c6.48,3.74,17.07,3.74,23.55,0l361.94-210.83C954.09,197.66,957.01,188.14,953.17,180.24z"/>
		<path id="Trazado_2626" class="st35" d="M951.67,180.06l-1-2.07c-0.68-1.32-1.65-2.46-2.83-3.35c-0.22-0.2-0.48-0.38-0.72-0.57
			c-0.15-0.1-0.26-0.24-0.41-0.33l-0.27-0.15c-0.3-0.2-0.54-0.43-0.87-0.62L768.79,70.92c-6.43-3.71-16.96-3.71-23.39,0
			L384.39,281.35c-3.95,2.28-5.45,5.45-4.55,8.42l-0.27,0.16v6.43c0,6.74,3.6,12.97,9.44,16.33l172.16,99.09
			c6.43,3.71,16.96,3.71,23.4,0l360.46-210.04C952.58,197.37,955.48,187.91,951.67,180.06z"/>
		<path id="Trazado_2627" class="st36" d="M950.17,179.89l-1-2.05c-0.67-1.31-1.63-2.45-2.81-3.33c-0.21-0.2-0.47-0.38-0.72-0.57
			c-0.15-0.1-0.26-0.24-0.41-0.33l-0.27-0.15c-0.29-0.2-0.53-0.42-0.86-0.61L768.48,71.46c-6.39-3.69-16.85-3.69-23.24,0
			L385.7,281.09c-3.92,2.27-5.41,5.41-4.52,8.36l-0.27,0.16V296c0,6.7,3.58,12.88,9.38,16.23l171.04,98.45
			c6.39,3.69,16.85,3.69,23.24,0l358.99-209.25C951.08,197.09,953.96,187.69,950.17,179.89z"/>
		<path id="Trazado_2628" class="st37" d="M948.67,179.72l-0.99-2.04c-0.67-1.3-1.62-2.43-2.79-3.3c-0.22-0.2-0.47-0.38-0.71-0.57
			c-0.15-0.09-0.26-0.23-0.41-0.32l-0.26-0.15c-0.29-0.2-0.53-0.42-0.86-0.61L768.16,71.99c-6.35-3.67-16.74-3.67-23.09,0
			L387.02,280.83c-3.9,2.25-5.38,5.38-4.49,8.31l-0.27,0.16v6.34c0,6.65,3.55,12.8,9.32,16.12l169.93,97.8
			c6.35,3.66,16.74,3.66,23.09,0L942.11,201.1C949.57,196.8,952.43,187.46,948.67,179.72z"/>
		<path id="Trazado_2629" class="st38" d="M947.17,179.55l-0.98-2.03c-0.66-1.29-1.61-2.41-2.77-3.28c-0.21-0.2-0.47-0.38-0.71-0.56
			c-0.15-0.09-0.25-0.23-0.41-0.32l-0.26-0.15c-0.29-0.2-0.53-0.41-0.85-0.6L767.85,72.53c-6.31-3.64-16.63-3.64-22.94,0
			L388.32,280.58c-3.87,2.23-5.34,5.34-4.46,8.25l-0.27,0.16v6.3c0,6.61,3.53,12.72,9.26,16.02l168.81,97.16
			c6.31,3.64,16.63,3.64,22.94,0l356.05-207.67C948.06,196.52,950.91,187.24,947.17,179.55z"/>
		<path id="Trazado_2630" class="st39" d="M945.67,179.38l-0.98-2.02c-0.66-1.28-1.6-2.4-2.76-3.26c-0.21-0.19-0.47-0.37-0.7-0.55
			c-0.15-0.09-0.25-0.23-0.4-0.32l-0.26-0.15c-0.29-0.2-0.52-0.41-0.84-0.6l-172.2-99.42c-6.27-3.62-16.52-3.62-22.78,0
			L389.64,280.32c-3.85,2.22-5.31,5.31-4.43,8.2l-0.27,0.16v6.26c0,6.57,3.51,12.63,9.2,15.91l167.7,96.52
			c6.27,3.62,16.52,3.62,22.78,0L939.2,200.48C946.56,196.23,949.38,187.02,945.67,179.38z"/>
		<path id="Trazado_2631" class="st40" d="M944.17,179.21l-0.97-2c-0.66-1.27-1.59-2.38-2.74-3.24c-0.21-0.19-0.46-0.37-0.7-0.55
			c-0.15-0.09-0.25-0.23-0.4-0.32l-0.25-0.14c-0.29-0.2-0.52-0.41-0.84-0.6L767.22,73.6c-6.23-3.59-16.41-3.59-22.64,0
			L390.95,280.06c-3.82,2.21-5.27,5.27-4.4,8.15l-0.27,0.16v6.22c0,6.52,3.48,12.54,9.13,15.8L562,406.26
			c6.23,3.59,16.41,3.59,22.64,0l353.11-206.09C945.05,195.95,947.86,186.8,944.17,179.21z"/>
		<path id="Trazado_2632" class="st41" d="M942.67,179.03l-0.97-1.98c-0.65-1.26-1.58-2.36-2.72-3.22c-0.21-0.19-0.46-0.37-0.7-0.55
			c-0.14-0.09-0.25-0.23-0.4-0.32l-0.25-0.15c-0.28-0.2-0.52-0.41-0.83-0.59L766.9,74.13c-6.18-3.57-16.3-3.57-22.48,0L392.26,279.8
			c-3.8,2.19-5.24,5.24-4.37,8.09l-0.27,0.16v6.18c0,6.48,3.46,12.47,9.07,15.7l165.46,95.23c6.18,3.57,16.3,3.57,22.48,0
			l351.64-205.3C943.54,195.66,946.33,186.57,942.67,179.03z"/>
		<path id="Trazado_2633" class="st42" d="M941.17,178.86l-0.96-1.97c-0.65-1.26-1.57-2.35-2.7-3.2c-0.21-0.19-0.46-0.36-0.69-0.55
			c-0.15-0.09-0.25-0.23-0.4-0.31l-0.25-0.14c-0.28-0.2-0.52-0.41-0.83-0.59L766.59,74.67c-6.14-3.55-16.19-3.55-22.33,0
			L393.57,279.55c-3.77,2.18-5.2,5.2-4.34,8.03l-0.26,0.16v6.13c0,6.43,3.44,12.38,9.01,15.59l164.35,94.59
			c6.15,3.54,16.19,3.54,22.34,0l350.17-204.51C942.04,195.38,944.81,186.35,941.17,178.86z"/>
	</g>
	<g id="Grupo_1125" transform="translate(15.849)">
		<g id="Grupo_1124">
			
				<linearGradient id="Trazado_2634_1_" gradientUnits="userSpaceOnUse" x1="-14.8823" y1="492.9615" x2="-15.8773" y2="493.6925" gradientTransform="matrix(653.092 0 0 -392.1843 9960.8672 193393.5781)">
				<stop  offset="0.038" style="stop-color:#A5CBEF"/>
				<stop  offset="0.223" style="stop-color:#B9D6F2"/>
				<stop  offset="0.525" style="stop-color:#D3E6F7"/>
				<stop  offset="0.794" style="stop-color:#E4EFF9"/>
				<stop  offset="1" style="stop-color:#EAF3FB"/>
			</linearGradient>
			<path id="Trazado_2634" class="st43" d="M333.94,301.59v-7.63L741.09,54.79c7.65-4.41,16.64-7.11,24.28-2.69l213.76,122.72
				c2.04,1.17,3.68,2.93,4.71,5.05l1.19,2.46c4.53,9.32,1.08,20.56-7.9,25.75L577.5,438.72c-7.65,4.41-20.15,4.41-27.79,0
				L345.16,320.99C338.21,316.99,333.94,309.59,333.94,301.59z"/>
			<path id="Trazado_2635" class="st44" d="M339.67,299.81c-7.64-4.41-7.64-11.63,0-16.05l400.3-231.11
				c7.64-4.41,20.15-4.41,27.79,0l210.03,121.26c7.64,4.41,7.64,11.64,0,16.05l-400.3,231.11c-7.65,4.41-20.15,4.41-27.79,0
				L339.67,299.81z"/>
			<path id="Trazado_2636" class="st45" d="M348.5,299.2c-7.36-4.25-7.36-11.2,0-15.45L740,57.78c7.36-4.25,19.4-4.25,26.75,0
				l36.72,21.75c1.7,0.99,2.27,3.18,1.28,4.88c-0.26,0.44-0.61,0.82-1.03,1.12l-4.05,2.84c-1.94,1.13-2.61,3.61-1.48,5.55
				c0.36,0.61,0.87,1.12,1.48,1.48l99.91,57.33c2.66,1.54,5.92,1.59,8.62,0.13l8.68-4.68c1.99-1.07,4.39-1.04,6.35,0.09l45.73,26.23
				c7.36,4.25,7.36,11.2,0,15.45l-391.5,225.97c-7.36,4.25-19.4,4.25-26.75,0L348.5,299.2z"/>
			<g id="Grupo_1123" transform="translate(497.813 53.154)">
				<path id="Trazado_2637" class="st45" d="M379.23,77.19c-0.22,0-0.43-0.06-0.62-0.17l-44.06-25.38c-0.59-0.35-0.78-1.11-0.43-1.7
					c0.34-0.58,1.08-0.77,1.67-0.45l44.06,25.38c0.59,0.34,0.79,1.1,0.45,1.69C380.08,76.96,379.67,77.19,379.23,77.19L379.23,77.19
					z"/>
			</g>
		</g>
	</g>
</g>
<linearGradient id="Trazado_2638_1_" gradientUnits="userSpaceOnUse" x1="2.2812" y1="769.1033" x2="1.2252" y2="768.2623" gradientTransform="matrix(291.266 0 0 -231.709 181.081 178615.2813)">
	<stop  offset="0" style="stop-color:#4A65A3"/>
	<stop  offset="0.356" style="stop-color:#47619D"/>
	<stop  offset="0.783" style="stop-color:#40578F"/>
	<stop  offset="1" style="stop-color:#3C5185"/>
</linearGradient>
<path id="Trazado_2638" class="st46" d="M547.51,624.72l-4.33-7.24l83.99-50.25l15.26,8.81l74.88-42.05l-83.26-49.39l156.61-91.58
	l43.78,25.28l-4.22,7.31l-39.57-22.84l-139.91,81.93l83.44,49.49l-91.82,51.56l-15.12-8.72L547.51,624.72z"/>
<linearGradient id="Trazado_2639_1_" gradientUnits="userSpaceOnUse" x1="2.1739" y1="769.5926" x2="3.1739" y2="769.5926" gradientTransform="matrix(60.341 0 0 -34.836 369.233 27436.0293)">
	<stop  offset="0" style="stop-color:#4A65A3"/>
	<stop  offset="0.356" style="stop-color:#47619D"/>
	<stop  offset="0.783" style="stop-color:#40578F"/>
	<stop  offset="1" style="stop-color:#3C5185"/>
</linearGradient>
<path id="Trazado_2639" class="st47" d="M509.22,638.81c11.75,6.79,30.97,6.79,42.72,0c11.75-6.78,11.75-17.88,0-24.66
	s-30.97-6.79-42.72,0C497.47,620.93,497.47,632.03,509.22,638.81z"/>
<linearGradient id="Trazado_2640_1_" gradientUnits="userSpaceOnUse" x1="2.1739" y1="769.5927" x2="3.1739" y2="769.5927" gradientTransform="matrix(60.338 0 0 -34.8355 676.3365 27237.543)">
	<stop  offset="0" style="stop-color:#4A65A3"/>
	<stop  offset="0.356" style="stop-color:#47619D"/>
	<stop  offset="0.783" style="stop-color:#40578F"/>
	<stop  offset="1" style="stop-color:#3C5185"/>
</linearGradient>
<path id="Trazado_2640" class="st48" d="M816.32,440.72c11.75,6.78,30.97,6.78,42.72,0c11.75-6.78,11.75-17.88,0-24.66
	c-11.75-6.78-30.97-6.78-42.72,0C804.57,422.84,804.57,433.94,816.32,440.72z"/>
<g id="Grupo_1127" transform="translate(161.032 130.2)">
	
		<linearGradient id="Trazado_2641_1_" gradientUnits="userSpaceOnUse" x1="-135.0643" y1="638.9732" x2="-134.0643" y2="638.9732" gradientTransform="matrix(42.912 0 0 -56.5403 7130.396 36205.3711)">
		<stop  offset="0" style="stop-color:#3C5185"/>
		<stop  offset="0.128" style="stop-color:#41578D"/>
		<stop  offset="0.695" style="stop-color:#5572B0"/>
		<stop  offset="1" style="stop-color:#5D7DBE"/>
	</linearGradient>
	<path id="Trazado_2641" class="st49" d="M333.93,89.38c0-13.63,9.66-30.35,21.46-37.16c4.18-2.41,8.07-3.24,11.38-2.75l0.02-0.02
		l0.16,0.05c0.81,0.13,1.6,0.36,2.36,0.66l5.3,1.5l-1.66,1.04c2.45,2.61,3.89,6.66,3.89,11.91c0,13.63-9.66,30.36-21.46,37.17
		c-2.29,1.37-4.82,2.3-7.46,2.72l0.22,1.38l-4.65-1.42c-0.68-0.14-1.35-0.34-2-0.61l-0.12-0.04l-0.01-0.02
		C336.83,101.85,333.93,96.83,333.93,89.38z"/>
	
		<linearGradient id="Trazado_2642_1_" gradientUnits="userSpaceOnUse" x1="-145.9146" y1="627.0081" x2="-146.8916" y2="627.9861" gradientTransform="matrix(42.918 0 0 -55.3749 7137.3809 35462.6406)">
		<stop  offset="0" style="stop-color:#3C5185"/>
		<stop  offset="0.128" style="stop-color:#41578D"/>
		<stop  offset="0.695" style="stop-color:#5572B0"/>
		<stop  offset="1" style="stop-color:#5D7DBE"/>
	</linearGradient>
	<path id="Trazado_2642" class="st50" d="M361.42,53.99c11.8-6.81,21.46-1.24,21.46,12.39s-9.66,30.35-21.46,37.17
		s-21.46,1.24-21.46-12.39S349.61,60.81,361.42,53.99z"/>
	
		<linearGradient id="Trazado_2643_1_" gradientUnits="userSpaceOnUse" x1="38.6272" y1="639.5623" x2="39.6272" y2="639.5623" gradientTransform="matrix(24.5248 0 0 -30.1535 4203.0674 19363.8164)">
		<stop  offset="0.15" style="stop-color:#FF9800"/>
		<stop  offset="1" style="stop-color:#FFC107"/>
	</linearGradient>
	<path id="Trazado_2643" class="st51" d="M362.21,63.85l2.92,6.45l8.02-4.42c0.17-0.09,0.39-0.03,0.48,0.15
		c0.05,0.1,0.06,0.23,0,0.33l-5.32,10.08l1.65,8.56c0.06,0.32-0.15,0.62-0.46,0.68c-0.04,0.01-0.07,0.01-0.11,0.01l-6.71-0.66
		l-7.15,8.71c-0.13,0.15-0.35,0.16-0.5,0.03c-0.09-0.08-0.13-0.19-0.12-0.3l1.03-9.54l-6.63-3.72c-0.15-0.08-0.2-0.26-0.13-0.41
		c0.03-0.05,0.07-0.1,0.13-0.13l8.59-4.96l3.83-10.84c0.05-0.14,0.2-0.21,0.33-0.16C362.13,63.74,362.18,63.78,362.21,63.85z"/>
</g>
<g id="Grupo_1130" transform="translate(149.93 384.971)">
	<g id="Grupo_1128">
		
			<linearGradient id="Trazado_2644_1_" gradientUnits="userSpaceOnUse" x1="-146.6366" y1="381.7813" x2="-147.0576" y2="382.6552" gradientTransform="matrix(91.5663 0 0 -160.8791 13912.8174 61869.6406)">
			<stop  offset="0" style="stop-color:#FFC107"/>
			<stop  offset="0.85" style="stop-color:#FF9800"/>
		</linearGradient>
		<path id="Trazado_2644" class="st52" d="M346.68,81.96c0,9.77,2.34,20.29,6.38,30.5l-0.01-0.01l27.65,69.02h-7.41l8.21,28.74
			l15.85-8.47l34.11-41.26l0,0c3.32-3.99,5.48-8.81,6.23-13.95c0.44-3.89,0.62-7.81,0.53-11.73c0-29.07-20.6-64.75-45.77-79.28
			c-11.69-6.75-22.39-7.79-30.5-4.07l0,0l-0.02,0.01c-0.76,0.36-1.51,0.75-2.23,1.19l-13.02,6.97l4.5,2.14
			C348.29,67.02,346.68,73.82,346.68,81.96z M367.86,94.2c0-15.61,11.06-22,24.58-14.19s24.58,26.96,24.58,42.58
			s-11.06,22-24.58,14.19S367.86,109.81,367.86,94.2z"/>
		<path id="Trazado_2645" class="st53" d="M346.68,81.96c0,9.77,2.34,20.29,6.38,30.5l-0.01-0.01l27.65,69.02h-7.41l8.21,28.74
			l15.85-8.47l34.11-41.26l0,0c3.32-3.99,5.48-8.81,6.23-13.95c0.44-3.89,0.62-7.81,0.53-11.73c0-29.07-20.6-64.75-45.77-79.28
			c-11.69-6.75-22.39-7.79-30.5-4.07l0,0l-0.02,0.01c-0.76,0.36-1.51,0.75-2.23,1.19l-13.02,6.97l4.5,2.14
			C348.29,67.02,346.68,73.82,346.68,81.96z M367.86,94.2c0-15.61,11.06-22,24.58-14.19s24.58,26.96,24.58,42.58
			s-11.06,22-24.58,14.19S367.86,109.81,367.86,94.2z"/>
		
			<linearGradient id="Trazado_2646_1_" gradientUnits="userSpaceOnUse" x1="-148.8403" y1="383.7746" x2="-147.8403" y2="383.7746" gradientTransform="matrix(91.5471 0 0 -154.9873 13897.2148 59613.3281)">
			<stop  offset="0.15" style="stop-color:#FF9800"/>
			<stop  offset="1" style="stop-color:#FFC107"/>
		</linearGradient>
		<path id="Trazado_2646" class="st54" d="M340.32,119.26L340.32,119.26l38.08,90.13c0.44,1.04,1.64,1.52,2.67,1.08
			c0.3-0.13,0.57-0.33,0.78-0.58l37.44-45.39h-0.02c3.94-5.52,6.22-13.26,6.22-22.89c0-28.98-20.47-64.52-45.54-79.14
			c-26.21-15.29-45.96-4.15-46.01,26.2C333.92,98.47,336.26,109.02,340.32,119.26z"/>
	</g>
	<g id="Grupo_1129" transform="translate(30.867 31.405)">
		<path id="Trazado_2647" class="st42" d="M352.94,117.31l-18.19-10.27l-0.82-57.7l16.16,9.13c2.68,1.49,5.13,3.35,7.3,5.52
			c1.89,1.87,3.46,4.03,4.66,6.4c1.8,3.63,2.81,7.6,2.94,11.65c0.07,4.51-0.94,7.28-3.01,8.29c-0.46,0.27-0.95,0.47-1.46,0.61
			c-0.28,0.04-0.77,0.07-1.47,0.11c2.64,2.3,4.76,5.13,6.22,8.31c1.54,3.26,2.37,6.81,2.42,10.41c0.05,4.02-0.89,7.01-2.82,8.97
			C362.62,121,358.65,120.53,352.94,117.31z M343.54,77.94l4.39,2.49c2.58,1.45,4.48,2.15,5.72,2.08c1.23-0.07,1.83-1.38,1.8-3.93
			c0.09-2.16-0.54-4.29-1.8-6.05c-1.64-1.86-3.62-3.4-5.84-4.52l-4.46-2.52L343.54,77.94z M343.87,101.38l6.36,3.59
			c2.66,1.5,4.64,2.18,5.96,2.02c1.32-0.16,1.95-1.57,1.91-4.24c0.07-2.35-0.7-4.65-2.18-6.48c-1.96-2.06-4.24-3.78-6.76-5.09
			l-5.46-3.09L343.87,101.38z"/>
	</g>
</g>
<g id="Grupo_1134" transform="translate(451.853 200.332)">
	<g id="Grupo_1131">
		
			<linearGradient id="Trazado_2648_1_" gradientUnits="userSpaceOnUse" x1="-448.4858" y1="566.5134" x2="-448.9058" y2="567.3873" gradientTransform="matrix(82.0209 0 0 -144.1066 37242.4375 82036.2266)">
			<stop  offset="0" style="stop-color:#FFC107"/>
			<stop  offset="0.85" style="stop-color:#FF9800"/>
		</linearGradient>
		<path id="Trazado_2648" class="st55" d="M411.9,60.48l4.04-1.91l-11.66-6.24c-0.64-0.4-1.31-0.75-2-1.07l-0.01-0.01l0,0
			c-7.27-3.34-16.85-2.4-27.32,3.64c-22.55,13.02-41,44.98-41,71.02c-0.08,3.51,0.08,7.01,0.47,10.5c0.67,4.6,2.61,8.92,5.58,12.49
			l0,0l30.55,36.96l14.2,7.59l7.35-25.75h-6.64l24.77-61.82l-0.01,0.01c3.59-8.67,5.53-17.94,5.72-27.32
			C415.93,71.26,414.48,65.17,411.9,60.48z M374.93,127.66c-12.11,6.99-22.02,1.27-22.02-12.71s9.91-31.14,22.02-38.14
			s22.02-1.27,22.02,12.71S387.04,120.67,374.93,127.66L374.93,127.66z"/>
		<path id="Trazado_2649" class="st53" d="M411.9,60.48l4.04-1.91l-11.66-6.24c-0.64-0.4-1.31-0.75-2-1.07l-0.01-0.01l0,0
			c-7.27-3.34-16.85-2.4-27.32,3.64c-22.55,13.02-41,44.98-41,71.02c-0.08,3.51,0.08,7.01,0.47,10.5c0.67,4.6,2.61,8.92,5.58,12.49
			l0,0l30.55,36.96l14.2,7.59l7.35-25.75h-6.64l24.77-61.82l-0.01,0.01c3.59-8.67,5.53-17.94,5.72-27.32
			C415.93,71.26,414.48,65.17,411.9,60.48z M374.93,127.66c-12.11,6.99-22.02,1.27-22.02-12.71s9.91-31.14,22.02-38.14
			s22.02-1.27,22.02,12.71S387.04,120.67,374.93,127.66L374.93,127.66z"/>
		
			<linearGradient id="Trazado_2650_1_" gradientUnits="userSpaceOnUse" x1="-457.3992" y1="568.4421" x2="-456.3992" y2="568.4421" gradientTransform="matrix(82.004 0 0 -138.8301 37246.2734 79041.3125)">
			<stop  offset="0.15" style="stop-color:#FF9800"/>
			<stop  offset="1" style="stop-color:#FFC107"/>
		</linearGradient>
		<path id="Trazado_2650" class="st56" d="M427.35,84.56c-0.04-27.18-17.73-37.16-41.22-23.47c-22.45,13.1-40.79,44.93-40.79,70.89
			c0,8.63,2.04,15.56,5.57,20.51h-0.02l33.54,40.66c0.64,0.78,1.79,0.89,2.57,0.25c0.23-0.19,0.4-0.43,0.52-0.7l34.12-80.74
			l-0.01,0.01C425.27,102.8,427.36,93.34,427.35,84.56z"/>
	</g>
	<g id="Grupo_1133" transform="translate(36.859 32.974)">
		<g id="Grupo_1132">
			<path id="Trazado_2651" class="st42" d="M358.2,92.66l-2.37-8.54l-12.07,6.78l-2.98,11.55l-6.84,3.84l13.86-53.46l6.22-3.5
				l11.03,39.48L358.2,92.66z M350.5,64.9l-4.04,15.53l7.21-4.05L350.5,64.9z"/>
		</g>
	</g>
</g>
<g id="Grupo_1137" transform="translate(101.106 129.364)">
	<g id="Grupo_1136">
		<g id="Grupo_1135">
			<path id="Trazado_2652" class="st57" d="M551.97,59.07v99.11c0,6.15-3.28,11.83-8.6,14.91l-122.23,71.26l-20.78,37.74
				c-1.18,4.34-5.66,6.9-10.01,5.72c-0.54-0.15-1.06-0.35-1.56-0.6l-12.88-16.41l-27.32,16.18c-4.62,2.73-10.59,1.21-13.32-3.42
				c-0.89-1.5-1.36-3.21-1.36-4.95V178.06c0-6.15,3.28-11.84,8.61-14.91L537.39,50.65c4.65-2.68,10.6-1.09,13.28,3.56
				C551.52,55.69,551.97,57.37,551.97,59.07z"/>
		</g>
		
			<linearGradient id="Trazado_2653_1_" gradientUnits="userSpaceOnUse" x1="-99.7781" y1="639.2953" x2="-98.7781" y2="639.2953" gradientTransform="matrix(216.04 0 0 -238.9663 21889.998 152938.9063)">
			<stop  offset="0" style="stop-color:#7EA7DF"/>
			<stop  offset="1" style="stop-color:#FFFFFF"/>
		</linearGradient>
		<path id="Trazado_2653" class="st58" d="M343.75,288.33c-5.37,0.06-9.76-4.25-9.82-9.62c0-0.03,0-0.07,0-0.1V178.06
			c0-6.15,3.28-11.84,8.61-14.91L537.39,50.65c4.25-2.45,9.66-1.32,12.58,2.62c-1.67,0.01-3.32,0.45-4.77,1.29L350.36,167.05
			c-5.33,3.08-8.61,8.76-8.61,14.91v100.56C341.75,284.63,342.46,286.67,343.75,288.33z M379.17,268.88l-3.24,1.92l12.88,16.41
			c1.64,0.84,3.52,1.1,5.32,0.73L379.17,268.88z"/>
	</g>
	<path id="Trazado_2654" class="st59" d="M538.15,90.79l-175.9,103.66v7.52l175.9-103.33V90.79z"/>
	<path id="Trazado_2655" class="st59" d="M538.15,114.17l-175.9,103.66v7.52l175.9-103.33V114.17z"/>
	<path id="Trazado_2656" class="st59" d="M436.89,196.8l-75.51,44.31v7.52l75.51-43.98L436.89,196.8z"/>
</g>
<path id="Trazado_2657" class="st53" d="M653.08,188.44c0-3.81-2.25-7.26-5.74-8.79c-0.2-0.09-0.4-0.18-0.61-0.26
	c-0.97-0.39-2-0.61-3.05-0.66c-0.22-0.01-0.43,0.02-0.64,0.03c-0.56,0.02-1.12,0.08-1.68,0.2c-0.22,0.05-0.44,0.1-0.66,0.16
	c-0.77,0.21-1.51,0.51-2.21,0.91l-88.59,51.14v58.63v0.01c0,0.73,0.1,1.46,0.3,2.16c0.05,0.16,0.09,0.31,0.15,0.46
	c0.19,0.56,0.47,1.09,0.85,1.55l0.01,0.01c0.37,0.41,0.83,0.74,1.34,0.95c0.1,0.04,0.2,0.08,0.31,0.12
	c1.64,0.45,3.38,0.16,4.79-0.79l95.42-55.09V188.44z"/>
<g id="Grupo_1144" transform="translate(223.79 53.964)">
	<g id="Grupo_1138">
		<path id="Trazado_2658" class="st60" d="M341.69,132.71c-4.57,2.99-7.45,7.98-7.76,13.43v74.05c0,4.93,3.49,6.94,7.76,4.48
			l143.77-83c4.56-2.99,7.41-7.99,7.64-13.43l-0.95-73.37c-0.06-4.93-3.61-6.94-7.87-4.48L341.69,132.71z"/>
		
			<linearGradient id="Trazado_2659_1_" gradientUnits="userSpaceOnUse" x1="-228.7298" y1="714.7518" x2="-227.7298" y2="714.7518" gradientTransform="matrix(157.704 0 0 -176.3642 35397.9727 126194.1563)">
			<stop  offset="0" style="stop-color:#3C5185"/>
			<stop  offset="0.6" style="stop-color:#435B95"/>
			<stop  offset="1" style="stop-color:#4A65A3"/>
		</linearGradient>
		<path id="Trazado_2659" class="st61" d="M338.12,222.99v-74.05c0.31-5.46,3.19-10.44,7.76-13.43l142.59-82.33
			c0.96-0.59,2.04-0.94,3.16-1.02c-1.12-2.84-4-3.71-7.36-1.77l-142.59,82.32c-4.57,2.99-7.45,7.98-7.76,13.43v74.05
			c0,3.66,1.93,5.7,4.67,5.5C338.28,224.83,338.12,223.92,338.12,222.99z"/>
	</g>
	<g id="Grupo_1139" transform="translate(18.423 63.63)">
		<path id="Trazado_2660" class="st62" d="M333.93,99.16l77.82-44.78l0.01-5.04l-77.82,44.7L333.93,99.16z"/>
	</g>
	<g id="Grupo_1140" transform="translate(18.423 80.894)">
		<path id="Trazado_2661" class="st62" d="M333.93,99.02l77.83-44.65v-5.04l-77.82,44.7L333.93,99.02z"/>
	</g>
	<g id="Grupo_1141" transform="translate(20.794 118.087)">
		<path id="Trazado_2662" class="st62" d="M333.93,79.14l43.29-24.77v-5.04l-43.29,24.83V79.14z"/>
	</g>
	<g id="Grupo_1143" transform="translate(104.024 35.359)">
		<path id="Trazado_2663" class="st63" d="M357.11,52.48c12.74-7.36,23.17-1.34,23.17,13.38S369.85,98.64,357.11,106
			s-23.18,1.34-23.18-13.38S344.36,59.84,357.11,52.48z"/>
		<g id="Grupo_1142" transform="translate(20.551 13.446)">
			<path id="Trazado_2664" class="st60" d="M336.51,56.92c-0.54,0.42-1.3,0.42-1.85,0c-0.55-0.57-0.82-1.36-0.72-2.15
				c0.02-1.05,0.29-2.09,0.79-3.02c0.41-0.87,1.06-1.6,1.88-2.11c0.54-0.42,1.3-0.42,1.84,0c0.55,0.57,0.82,1.36,0.72,2.16
				c-0.03,1.05-0.3,2.09-0.8,3.01C337.97,55.69,337.32,56.42,336.51,56.92z M334.25,59.96l4.46-2.52l-0.32,22.24l-4.46,2.52
				L334.25,59.96z"/>
		</g>
	</g>
</g>
<radialGradient id="Trazado_2665_1_" cx="2.659" cy="769.7029" r="0.875" gradientTransform="matrix(61.1632 0 0 -31.6407 369.2669 39674.1094)" gradientUnits="userSpaceOnUse">
	<stop  offset="0" style="stop-color:#3C5185"/>
	<stop  offset="0.079" style="stop-color:#61729C"/>
	<stop  offset="0.182" style="stop-color:#8B97B6"/>
	<stop  offset="0.29" style="stop-color:#AFB7CD"/>
	<stop  offset="0.403" style="stop-color:#CCD1DF"/>
	<stop  offset="0.523" style="stop-color:#E2E5ED"/>
	<stop  offset="0.653" style="stop-color:#F2F3F7"/>
	<stop  offset="0.799" style="stop-color:#FCFCFD"/>
	<stop  offset="1" style="stop-color:#FFFFFF"/>
</radialGradient>
<path id="Trazado_2665" class="st64" d="M494.37,604.08c20.64-11.91,54.41-11.91,75.05,0c20.64,11.91,20.64,31.41,0,43.33
	c-20.64,11.92-54.41,11.91-75.05,0S473.74,616,494.37,604.08z"/>
<radialGradient id="Trazado_2666_1_" cx="2.659" cy="769.7029" r="0.875" gradientTransform="matrix(61.1626 0 0 -31.6407 674.5797 39387.1094)" gradientUnits="userSpaceOnUse">
	<stop  offset="0" style="stop-color:#3C5185"/>
	<stop  offset="0.079" style="stop-color:#61729C"/>
	<stop  offset="0.182" style="stop-color:#8B97B6"/>
	<stop  offset="0.29" style="stop-color:#AFB7CD"/>
	<stop  offset="0.403" style="stop-color:#CCD1DF"/>
	<stop  offset="0.523" style="stop-color:#E2E5ED"/>
	<stop  offset="0.653" style="stop-color:#F2F3F7"/>
	<stop  offset="0.799" style="stop-color:#FCFCFD"/>
	<stop  offset="1" style="stop-color:#FFFFFF"/>
</radialGradient>
<path id="Trazado_2666" class="st65" d="M799.69,406.25c20.64-11.91,54.41-11.91,75.04,0c20.64,11.91,20.64,31.41,0,43.33
	s-54.41,11.91-75.04,0C779.05,437.66,779.05,418.16,799.69,406.25z"/>
<path id="Trazado_2667" class="st53" d="M644.48,302.46c5.32-3.08,8.6-8.76,8.6-14.91v-38.85L615.1,270.6
	c-2.71,1.57-4.38,4.46-4.38,7.59v43.94L644.48,302.46z"/>
<g id="Grupo_1145" transform="translate(284.602 123.054)">
	
		<linearGradient id="Trazado_2668_1_" gradientUnits="userSpaceOnUse" x1="-283.2245" y1="645.6755" x2="-282.2245" y2="645.6755" gradientTransform="matrix(187.62 0 0 -165.8471 53472.5078 107215.6797)">
		<stop  offset="0" style="stop-color:#3C5185"/>
		<stop  offset="0.128" style="stop-color:#41578D"/>
		<stop  offset="0.695" style="stop-color:#5572B0"/>
		<stop  offset="1" style="stop-color:#5D7DBE"/>
	</linearGradient>
	<path id="Trazado_2668" class="st66" d="M521.56,54.29v50.46c0,3.13-1.67,6.02-4.38,7.59L341.41,214.5
		c-2.35,1.39-5.39,0.61-6.78-1.74c-0.45-0.76-0.69-1.63-0.69-2.52v-51.19c0-3.13,1.67-6.03,4.38-7.59L514.13,50.01
		c2.37-1.37,5.4-0.56,6.76,1.81C521.33,52.57,521.55,53.42,521.56,54.29z"/>
	
		<linearGradient id="Trazado_2669_1_" gradientUnits="userSpaceOnUse" x1="-299.8102" y1="645.6755" x2="-298.8102" y2="645.6755" gradientTransform="matrix(186.481 0 0 -165.8363 53149.4805 107208.7266)">
		<stop  offset="0" style="stop-color:#5D7DBE"/>
		<stop  offset="0.305" style="stop-color:#5572B0"/>
		<stop  offset="0.872" style="stop-color:#41578D"/>
		<stop  offset="1" style="stop-color:#3C5185"/>
	</linearGradient>
	<path id="Trazado_2669" class="st67" d="M337.63,212.09V160.9c0-3.13,1.67-6.03,4.38-7.59L517.82,51.85
		c0.79-0.46,1.68-0.69,2.59-0.66c-1.52-1.89-4.18-2.39-6.28-1.18L338.32,151.46c-2.71,1.57-4.38,4.46-4.38,7.59v51.19
		c0,2.69,2.14,4.88,4.83,4.95C338.03,214.32,337.63,213.22,337.63,212.09z"/>
	
		<linearGradient id="Trazado_2670_1_" gradientUnits="userSpaceOnUse" x1="-283.1862" y1="645.7864" x2="-282.1862" y2="645.7864" gradientTransform="matrix(170.364 0 0 -111.8321 48587.6758 72355.8359)">
		<stop  offset="0.021" style="stop-color:#FFC107"/>
		<stop  offset="0.319" style="stop-color:#FFAF03"/>
		<stop  offset="0.71" style="stop-color:#FF9E01"/>
		<stop  offset="1" style="stop-color:#FF9800"/>
	</linearGradient>
	<path id="Trazado_2670" class="st68" d="M505.58,81.31c-3.53,2.04-6.5,6.55-7.39,10.83l-35.05,20.26c-0.8-3.46-3.85-4.66-7.48-2.56
		s-6.69,6.82-7.48,11.21l-37.93,21.93c-1.16-2.56-3.91-3.27-7.11-1.42s-5.96,5.74-7.11,9.64l-38.92,22.5
		c-1.37-1.7-3.76-1.99-6.49-0.42c-4.54,2.97-7.4,7.91-7.7,13.33c0,4.89,3.46,6.89,7.7,4.45c3.67-2.12,6.75-6.91,7.51-11.33l37.84-22
		c1.11,2.71,3.9,3.5,7.17,1.61c3.29-1.9,6.09-5.95,7.19-9.95l38.66-22.48c1.32,1.94,3.81,2.36,6.68,0.7c3.1-2.02,5.45-4.99,6.7-8.47
		l36.32-21.11c1.25,2.24,3.86,2.8,6.9,1.05c4.54-2.97,7.4-7.91,7.7-13.33C513.28,80.86,509.82,78.86,505.58,81.31z"/>
</g>
<g id="Grupo_1169" transform="translate(418.58 390.742)">
	<g id="Grupo_1146" transform="translate(38.045 40.578)">
		<path id="Trazado_2671" class="st69" d="M338.63,111.77c1.21,0.05,2.4-0.35,3.33-1.13c17.14-14.27,19.46-39.73,5.2-56.86
			c-0.56-0.67-1.14-1.32-1.74-1.95l-0.91-0.95c-1.8-2.02-4.89-2.21-6.92-0.41s-2.21,4.89-0.41,6.92c0.07,0.08,0.14,0.15,0.22,0.23
			l0.91,0.96c11.63,12.25,11.12,31.61-1.13,43.23c-0.48,0.46-0.97,0.89-1.48,1.32c-2.08,1.74-2.35,4.83-0.62,6.9
			C335.96,111.07,337.25,111.71,338.63,111.77L338.63,111.77z"/>
	</g>
	<g id="Grupo_1147" transform="translate(39.245 39.458)">
		<path id="Trazado_2672" class="st57" d="M348.43,72.53c3-0.33,5.16-3.03,4.83-6.02c-0.06-0.57-0.21-1.13-0.45-1.65
			c-2.08-4.72-4.97-9.04-8.53-12.77l-1-1.06c-2.04-2.19-5.47-2.31-7.66-0.26s-2.31,5.47-0.26,7.66c0.02,0.02,0.03,0.04,0.05,0.05
			l1,1.06c2.71,2.85,4.91,6.15,6.49,9.75C343.84,71.46,346.08,72.77,348.43,72.53L348.43,72.53z"/>
	</g>
	<path id="Trazado_2673" class="st42" d="M405.93,225.27l23.26,13.61l0.01,2.37c0.01,2.11-1.08,4.07-2.88,5.17l-4.46,2.73
		c-1.24,0.76-2.79,0.76-4.03,0.01l-18.05-10.56c-1.75-1.07-2.82-2.97-2.82-5.03v-2.69L405.93,225.27z"/>
	<path id="Trazado_2674" class="st42" d="M411.46,226.16l15.3,8.84c2.4,1.45,3.18,4.58,1.72,6.98c-0.42,0.7-1,1.28-1.69,1.7
		l-4.09,2.5c-1.75,1.07-3.96,1.08-5.72,0.01l-17.3-10.11c-2.68-1.64-3.53-5.14-1.89-7.82c0.5-0.82,1.2-1.5,2.04-1.98l0.49-0.28
		C403.79,224.04,408.05,224.1,411.46,226.16z"/>
	<g id="Grupo_1148" transform="translate(66.695 176.464)">
		<path id="Trazado_2675" class="st69" d="M333.94,54.54c0.24-1.56,1.17-2.92,2.54-3.7l0.45-0.25c1.16-0.66,2.44-1.09,3.77-1.25
			c0.96,0.14,1.87,0.47,2.7,0.97l8.23,4.8c1.58,0.96,2.09,3.02,1.14,4.6c-0.28,0.46-0.66,0.84-1.12,1.12l-2.69,1.65
			c-1.16,0.71-2.62,0.71-3.77,0l-9.56-5.63C334.78,56.34,334.17,55.51,333.94,54.54z"/>
	</g>
	<path id="Trazado_2676" class="st42" d="M385.65,236.31l23.26,13.62l0.01,2.37c0.01,2.11-1.09,4.07-2.88,5.17l-4.46,2.73
		c-1.24,0.76-2.79,0.76-4.03,0l-18.05-10.56c-1.75-1.07-2.83-2.98-2.83-5.03v-2.69L385.65,236.31z"/>
	<path id="Trazado_2677" class="st42" d="M391.18,237.21l15.3,8.85c2.4,1.45,3.17,4.57,1.72,6.98c-0.42,0.7-1,1.28-1.7,1.71
		l-4.08,2.5c-1.75,1.08-3.97,1.08-5.72,0.01l-17.3-10.11c-2.68-1.63-3.53-5.13-1.9-7.81c0.5-0.83,1.21-1.51,2.05-1.99l0.48-0.28
		C383.5,235.09,387.76,235.15,391.18,237.21z"/>
	<g id="Grupo_1149" transform="translate(46.413 187.514)">
		<path id="Trazado_2678" class="st69" d="M333.93,54.54c0.23-1.56,1.17-2.93,2.54-3.71l0.45-0.25c1.16-0.66,2.45-1.08,3.78-1.25
			c0.96,0.14,1.87,0.47,2.7,0.97l8.23,4.8c1.58,0.96,2.09,3.02,1.14,4.6c-0.28,0.46-0.66,0.84-1.12,1.12l-2.7,1.65
			c-1.16,0.71-2.61,0.71-3.77,0l-9.55-5.64C334.77,56.34,334.16,55.51,333.93,54.54z"/>
	</g>
	<g id="Grupo_1151" transform="translate(66.417 143.444)">
		<g id="Grupo_1150">
			<path id="Trazado_2679" class="st69" d="M338.83,90.86c2.71,0,4.9-2.19,4.9-4.9V54.24c0-2.71-2.2-4.9-4.91-4.89
				c-2.7,0-4.89,2.19-4.89,4.89v31.73C333.93,88.67,336.13,90.86,338.83,90.86z"/>
		</g>
	</g>
	<path id="Trazado_2680" class="st70" d="M409.05,229.41v-31.73c0-2.49-1.88-4.57-4.35-4.84c0.18-0.03,0.37-0.05,0.55-0.05
		c2.71,0,4.9,2.19,4.9,4.9v31.73c0,2.71-2.19,4.9-4.9,4.9c-0.18-0.01-0.37-0.02-0.55-0.05
		C407.17,233.98,409.04,231.89,409.05,229.41z"/>
	<g id="Grupo_1153" transform="translate(46.163 139.858)">
		<g id="Grupo_1152">
			<path id="Trazado_2681" class="st69" d="M338.83,105.56c2.71,0,4.9-2.19,4.9-4.9V54.24c0-2.71-2.19-4.9-4.89-4.91
				c-2.71,0-4.9,2.19-4.91,4.89c0,0.01,0,0.01,0,0.02v46.42C333.93,103.37,336.13,105.56,338.83,105.56z"/>
		</g>
	</g>
	
		<linearGradient id="Trazado_2682_1_" gradientUnits="userSpaceOnUse" x1="-415.5709" y1="378.2257" x2="-414.5709" y2="378.2257" gradientTransform="matrix(73.3171 0 0 -81.3753 30883.834 30945.2051)">
		<stop  offset="0" style="stop-color:#5D7DBE"/>
		<stop  offset="0.305" style="stop-color:#5572B0"/>
		<stop  offset="0.872" style="stop-color:#41578D"/>
		<stop  offset="1" style="stop-color:#3C5185"/>
	</linearGradient>
	<path id="Trazado_2682" class="st71" d="M371.68,126.29l9.44,26.18l16.63,8.91c7.46,4.36,13.99,9.83,13.99,23.29
		c0,0,0.33,3.74,0.49,8.49c0.29,8.78-28.19,11.9-34.43,14.43c-3.2,1.29-4.07-14.72-4.07-14.72s-0.24-4.29-6.05-7.64l-19.59-11.29
		c-8.75-5.03-11.77-16.2-6.74-24.96c1.61-2.79,3.92-5.11,6.71-6.72L371.68,126.29z"/>
	<path id="Trazado_2683" class="st72" d="M410.03,193.16c-0.16-4.75-0.49-8.49-0.49-8.49c0-13.46-6.53-18.93-13.99-23.29
		l-16.64-8.91l-9.01-24.98l1.77-1.2l9.44,26.18l16.63,8.91c7.46,4.36,13.99,9.83,13.99,23.29c0,0,0.33,3.74,0.49,8.49
		c0.29,8.78-28.19,11.9-34.43,14.43c-0.43,0.16-0.9,0.01-1.17-0.36C384.48,204.76,410.31,201.53,410.03,193.16z"/>
	<g id="Grupo_1155" transform="translate(20.055 101.501)">
		<path id="Trazado_2684" class="st73" d="M392.18,69.59v0.72c0,0.38-0.2,0.73-0.53,0.92l-21.21,12.22c-0.88,0.44-1.92,0.44-2.8,0
			l-32.99-18.99c-0.42-0.24-0.68-0.7-0.68-1.18v-0.28l21.7-12.52c0.88-0.45,1.92-0.45,2.8,0L392.18,69.59z"/>
		<path id="Trazado_2685" class="st57" d="M391.61,68.8c0.45,0.15,0.68,0.64,0.53,1.09c-0.09,0.25-0.28,0.44-0.53,0.53l-21.16,12.21
			c-0.88,0.44-1.92,0.44-2.8,0l-33.13-19.06c-0.45-0.15-0.69-0.64-0.53-1.08c0.09-0.25,0.28-0.45,0.53-0.53l21.16-12.28
			c0.88-0.45,1.92-0.45,2.8,0L391.61,68.8z"/>
		
			<linearGradient id="Trazado_2686_1_" gradientUnits="userSpaceOnUse" x1="-434.7813" y1="277.6573" x2="-433.7813" y2="277.6573" gradientTransform="matrix(46.92 0 0 -27.181 20801.7617 7612.6909)">
			<stop  offset="0.15" style="stop-color:#FF9800"/>
			<stop  offset="1" style="stop-color:#FFC107"/>
		</linearGradient>
		<path id="Trazado_2686" class="st74" d="M385.68,67.21l-20.75,12.07l-26.17-15.05l20.75-12.13L385.68,67.21z"/>
		<g id="Grupo_1154" transform="translate(42.018 23.189)">
			<path id="Trazado_2687" class="st42" d="M334.34,52.71c0.07,0,0.14-0.02,0.2-0.05l4.45-2.57c0.19-0.11,0.26-0.36,0.15-0.55
				s-0.36-0.26-0.55-0.15l0,0l-4.44,2.57c-0.19,0.11-0.26,0.35-0.15,0.55c0,0,0,0,0,0.01C334.06,52.63,334.2,52.71,334.34,52.71z"/>
		</g>
	</g>
	<path id="Trazado_2688" class="st42" d="M388.47,64.09l-0.41-1.9c-0.2-1.59-1.31-2.91-2.84-3.37c-1.5-0.43-3.08-0.55-4.63-0.37
		c-2.82,0.14-5.65,0.29-8.47,0.44c-5.48,0.28-11.83,1.05-14.73,5.7c-2.02,3.24-1.77,7.61-4.15,10.59c-0.8,1-1.85,1.77-2.62,2.8
		c-2.01,2.7-1.6,6.48-0.66,9.72c0.21,1.06,0.73,2.03,1.5,2.78c1.42,1.16,3.57,0.7,5.14-0.25s2.88-2.33,4.57-3.02
		c2.67-1.09,5.79-0.32,8.53-1.23c5.39-1.79,7.19-9.14,12.45-11.28c1.66-0.67,3.58-0.79,4.98-1.9
		C389.55,70.86,389.12,67.12,388.47,64.09z"/>
	<path id="Trazado_2689" class="st57" d="M340.65,103.98c2.17-4.93,5.73-9.13,10.25-12.06l14.05-8.11l9.95,0.14
		c2,0.03,3.91,0.9,5.25,2.39l0,0c1.18,1.32,1.84,4.38,1.84,6.16v5.2l2.72,10.34c0.51,1.92,0.13,3.97-1.04,5.58l-1.8,2.62
		c-3.25,4.72-4.8,10.41-4.41,16.13l1.21,17.63c-7.59,15.4-40.61,1.8-40.61,1.8C341.35,127.41,333.69,122.15,340.65,103.98z"/>
	<path id="Trazado_2690" class="st75" d="M376.47,149.99l-1.21-17.63c-0.39-5.72,1.16-11.4,4.41-16.13l1.8-2.62
		c1.16-1.61,1.54-3.66,1.04-5.59l-2.72-10.34v-5.2c0-1.78-0.66-4.84-1.84-6.16c-1.34-1.49-3.24-2.36-5.25-2.39l-7.8-0.11l0.05-0.03
		l9.95,0.14c2,0.03,3.91,0.9,5.25,2.39c1.18,1.32,1.84,4.38,1.84,6.16v5.2l2.72,10.34c0.51,1.92,0.13,3.97-1.04,5.58l-1.8,2.62
		c-3.25,4.72-4.8,10.41-4.41,16.13l1.21,17.63c-2.89,5.87-9.48,7.52-16.53,7.32C368.34,157.12,373.89,155.25,376.47,149.99z"/>
	<g id="Grupo_1157" transform="translate(22.273 19.518)">
		<g id="Grupo_1156">
			<path id="Trazado_2691" class="st69" d="M338.83,76.52c-2.71,0-4.9-2.19-4.9-4.9V54.24c0-2.71,2.19-4.9,4.89-4.91
				c2.71,0,4.9,2.19,4.91,4.89c0,0.01,0,0.01,0,0.02v17.38C343.73,74.32,341.54,76.52,338.83,76.52
				C338.83,76.52,338.83,76.52,338.83,76.52z"/>
		</g>
	</g>
	<g id="Grupo_1158" transform="translate(24.904 8.365)">
		<path id="Rectngulo_1505" class="st69" d="M341.92,49.34l19.96,6.12l0,0l-6.5,21.2c-0.82,2.68-3.65,4.18-6.33,3.36l-15.12-4.63
			l0,0L341.92,49.34L341.92,49.34z"/>
	</g>
	<path id="Trazado_2692" class="st76" d="M365.3,154.7l2.95,2.2c-5.56,0.96-12.12,0.07-17.74-1.24
		c-11.39-13.98-13.85-33.22-6.34-49.63c1.28-2.76,5.39,4.45,5.39,4.45C342.44,125.85,351.73,144.55,365.3,154.7z"/>
	<g id="Grupo_1159" transform="translate(6.411 50.852)">
		<path id="Trazado_2693" class="st69" d="M360.42,114.31c2.73,0.27,5.16-1.72,5.44-4.45c0.16-1.58-0.45-3.14-1.64-4.2l-9.51-8.47
			c-11.41-10.25-14.16-27.06-6.6-40.41c1.36-2.38,0.53-5.42-1.85-6.78c-2.38-1.36-5.42-0.53-6.78,1.85
			c-9.87,17.43-6.28,39.37,8.62,52.76l9.51,8.47C358.39,113.77,359.37,114.2,360.42,114.31z"/>
	</g>
	<g id="Grupo_1160" transform="translate(5.679 48.855)">
		<path id="Trazado_2694" class="st57" d="M340.06,75.4c2.76-0.14,5.05-2.18,5.5-4.91c0.75-4.35,2.26-8.53,4.45-12.37
			c1.61-2.81,0.63-6.4-2.18-8.01c-2.81-1.61-6.4-0.63-8.01,2.18c-2.85,4.98-4.81,10.42-5.79,16.07c-0.61,3.21,1.49,6.31,4.7,6.92
			C339.16,75.38,339.61,75.41,340.06,75.4L340.06,75.4z"/>
	</g>
	<path id="Trazado_2695" class="st42" d="M345.12,109.04c-1.47-0.02-2.94,0.27-4.29,0.86c-1.25,0.55-2.55,1.36-3.88,1.02
		c-1.79-0.45-2.39-2.63-2.69-4.45c-0.36-1.56-0.41-3.17-0.14-4.75c0.48-2.04,1.97-3.67,3.13-5.42c1.69-2.56,2.74-5.49,3.06-8.55
		c0.23-2.3,0.05-4.62,0.3-6.91c0.3-2.69,1.52-4.45,2.86-6.66c1.61-2.63,2.07-5.77,3.76-8.34c1.66-2.54,4.54-4.25,6.4-6.7
		c1.99-2.62,3.1-4.33,6.09-6c2.24-1.25,4.34-3.13,6.92-3.68c2.05-0.43,3.7,0.39,5.63,0.65c1.98,0.26,3.94,0.01,5.95,0.46
		c4,0.85,7.64,2.9,10.43,5.89c2.18,2.41,2.71,5.46-0.5,7.16c-3.61,1.91-6.85,0.46-10.58,0.25c-0.68-0.08-1.37,0.06-1.97,0.39
		c-1.55,0.98-0.85,4.91-1.28,6.61c-0.4,1.82-1.39,3.46-2.82,4.65c-1.38,0.88-2.88,1.56-4.45,2.01c-1.58,0.46-2.95,1.47-3.86,2.84
		c-1.46,2.68,0.41,5.94,0.33,8.99c-0.06,1.84-0.83,3.58-2.15,4.85c-0.98,0.73-1.88,1.56-2.67,2.49c-0.58,1.1-0.9,2.32-0.94,3.56
		c-0.15,1.64-0.51,3.25-1.07,4.8c-0.99,3.02-3.98,4.91-7.13,4.52c-1.26-0.07-2.49-0.39-3.75-0.5
		C345.57,109.06,345.34,109.04,345.12,109.04z"/>
	<g id="Grupo_1161" transform="translate(33.769 106.94)">
		<path id="Trazado_2696" class="st69" d="M335.8,49.34l7.33,6.82c0.55,0.51,0.58,1.37,0.07,1.92c-0.01,0.01-0.03,0.03-0.04,0.04
			l0,0c-0.52,0.51-1.34,0.52-1.88,0.03l-7.35-6.75L335.8,49.34z"/>
	</g>
	<g id="Grupo_1162" transform="translate(27.425 104.288)">
		<path id="Trazado_2697" class="st69" d="M334.34,49.34l10.98,1.61c0.82,0.12,1.39,0.89,1.27,1.71c0,0.02-0.01,0.04-0.01,0.06l0,0
			c-0.15,0.79-0.89,1.33-1.69,1.21l-10.97-1.54L334.34,49.34z"/>
	</g>
	<g id="Grupo_1163" transform="translate(38.045 64.031)">
		<path id="Trazado_2698" class="st69" d="M338.63,88.31c1.21,0.05,2.4-0.35,3.33-1.13c10.52-8.73,15.89-22.21,14.26-35.79
			c-0.32-2.68-2.05-2.1-4.75-1.77c-2.69,0.32-5.3,0.22-4.98,2.91c1.23,10.28-2.83,20.49-10.8,27.11c-2.08,1.74-2.35,4.83-0.62,6.9
			C335.97,87.62,337.26,88.25,338.63,88.31L338.63,88.31z"/>
	</g>
	<g id="Grupo_1164" transform="translate(36.729 89.565)">
		<path id="Trazado_2699" class="st69" d="M345.18,51.99l-9.58,2.37c-0.72,0.18-1.45-0.26-1.62-0.98c0-0.02-0.01-0.04-0.01-0.05l0,0
			c-0.14-0.7,0.29-1.39,0.98-1.57l9.54-2.43L345.18,51.99z"/>
	</g>
	<g id="Grupo_1165" transform="translate(41.165 96.003)">
		<path id="Trazado_2700" class="st69" d="M342.49,51.03l-6.17,7.7c-0.46,0.58-1.3,0.67-1.88,0.21c-0.02-0.01-0.03-0.03-0.05-0.04
			l0,0c-0.54-0.47-0.61-1.28-0.17-1.84l6.11-7.72L342.49,51.03z"/>
	</g>
	<g id="Grupo_1166" transform="translate(38.072 95.589)">
		<path id="Trazado_2701" class="st69" d="M342.49,51.03l-6.17,7.7c-0.46,0.58-1.31,0.67-1.89,0.21c-0.01-0.01-0.03-0.02-0.04-0.04
			l0,0c-0.54-0.47-0.61-1.28-0.17-1.84l6.1-7.72L342.49,51.03z"/>
	</g>
	<g id="Grupo_1167" transform="translate(35.327 94.799)">
		<path id="Trazado_2702" class="st69" d="M342.49,51.02l-6.17,7.7c-0.46,0.58-1.3,0.67-1.87,0.22c-0.02-0.01-0.03-0.03-0.05-0.04
			l0,0c-0.54-0.47-0.62-1.28-0.17-1.84l6.11-7.72L342.49,51.02z"/>
	</g>
	<g id="Grupo_1168" transform="translate(34.309 92.534)">
		<path id="Trazado_2703" class="st69" d="M343.5,51.35l-7.32,6.61c-0.55,0.5-1.4,0.45-1.89-0.09c-0.01-0.02-0.03-0.03-0.04-0.05
			l0,0c-0.46-0.55-0.4-1.36,0.13-1.84l7.27-6.64L343.5,51.35z"/>
	</g>
</g>
<g id="Grupo_1174" transform="translate(393.856)">
	<g id="Grupo_1171" transform="translate(26.34 29.384)">
		<g id="Grupo_1170">
			<path id="Trazado_2704" class="st42" d="M346.21,82.06c0.67-1.64,1.06-3.38,1.17-5.15c0.14-1.12-0.14-2.26-0.78-3.18
				c-0.58-0.65-1.58-0.74-2.26-0.19c-1.72,0.97-3.41,3.86-5.06,8.67l-4.74-1.92c1.11-3.36,2.6-6.58,4.42-9.61
				c1.45-2.38,3.48-4.35,5.89-5.73c2.36-1.32,4.39-1.28,6.1,0.14c1.71,1.42,2.5,4.2,2.37,8.36c-0.09,2.42-0.52,4.82-1.27,7.13
				c-1.19,3.49-2.59,6.89-4.21,10.2l-5.17,11.02l10.78-6.05l-0.27,8.82l-19.25,10.82l0.22-7.31l8.41-17.73
				C344.26,86.78,345.47,84.02,346.21,82.06z"/>
			<path id="Trazado_2705" class="st42" d="M368.25,77.38l0.23-7.69l5.86-3.29l-0.23,7.69l3.09-1.73l-0.26,8.51l-3.09,1.73
				l-0.32,10.53l-5.86,3.29L368,85.89l-10.98,6.17l0.23-7.5l10.52-31.49l6.64-3.73l-10.02,30.22L368.25,77.38z"/>
		</g>
	</g>
	<g id="Grupo_1173" transform="translate(73.117 26.77)">
		<g id="Grupo_1172">
			<path id="Trazado_2706" class="st42" d="M336.2,59.37l-0.2,6.44l-2.06,1.16l0.5-16.47l2.06-1.16l-0.18,5.86
				c0.43-1.1,1.18-2.04,2.14-2.71c0.59-0.46,1.45-0.36,1.92,0.23c0.59,0.92,0.84,2.02,0.69,3.1l-0.22,7.26l-2.06,1.16l0.2-6.53
				c0.05-1.84-0.34-2.52-1.17-2.05c-0.49,0.32-0.87,0.78-1.1,1.32C336.37,57.74,336.2,58.55,336.2,59.37z"/>
		</g>
	</g>
	
		<linearGradient id="Trazado_2707_1_" gradientUnits="userSpaceOnUse" x1="-392.1648" y1="768.8105" x2="-391.1648" y2="768.8105" gradientTransform="matrix(102.479 0 0 -122.5941 40522.5859 94362.2734)">
		<stop  offset="0.15" style="stop-color:#FF9800"/>
		<stop  offset="1" style="stop-color:#FFC107"/>
	</linearGradient>
	<path id="Trazado_2707" class="st77" d="M436.41,83.95l-10.15-4.9l-7.77,13.47l4.2,2.42l2.07-3.59c-2.9,26.73-21.52,56.86-44,69.84
		c-11.35,6.55-21.93,7.66-29.79,3.13s-12.19-14.26-12.19-27.36c0-28.27,19.92-62.77,44.4-76.91c9.26-5.34,17.99-7.09,25.27-5.03
		c5.46,1.6,10.02,5.38,12.6,10.45l4.27-2.31c-3.2-6.23-8.82-10.86-15.55-12.81c-8.56-2.42-18.59-0.52-29.01,5.5
		c-25.82,14.91-46.83,51.29-46.83,81.11c0,14.91,5.19,26.12,14.61,31.56c4.01,2.28,8.55,3.45,13.16,3.4
		c6.65,0,13.96-2.19,21.48-6.53c25.27-14.59,45.91-49.73,46.79-79.16l4.33,2.08L436.41,83.95z"/>
</g>
<g id="Grupo_1178" transform="translate(296.078 337.846)">
	<path id="Trazado_2708" class="st78" d="M350.5,130.08l25.81-14.87l32.19,18.59l-25.8,14.87L350.5,130.08z"/>
	<path id="Trazado_2709" class="st79" d="M397.09,147.75l-16.25,8.72l-1.48-22.29h14.33l-0.03,8.31l1.58,0.44L397.09,147.75z"/>
	<path id="Trazado_2710" class="st80" d="M447.57,118.48l-16.04,9.64l-1.68-23.21h14.33l0.73,6.52l0.83,2.23L447.57,118.48z"/>
	<path id="Trazado_2711" class="st42" d="M426.31,127.46l-6.41-3.73v-14.84l6.41,3.3V127.46z"/>
	<path id="Trazado_2712" class="st42" d="M430.88,110.08c-4.23,2.77-6.9,7.39-7.18,12.44c0,4.56,3.23,6.5,7.18,4.31
		s7.18-7.79,7.18-12.44S434.84,107.8,430.88,110.08z"/>
	<path id="Trazado_2713" class="st79" d="M434.13,131.37l-4.45-2.59c-1.21-0.71-1.96-2.01-1.96-3.41V112.8l6.41,3.3V131.37z"/>
	<path id="Trazado_2714" class="st42" d="M438.7,113.99c-4.23,2.77-6.9,7.39-7.18,12.44c0,4.56,3.23,6.5,7.18,4.31
		s7.18-7.79,7.18-12.44S442.66,111.71,438.7,113.99z"/>
	<path id="Trazado_2715" class="st57" d="M438.7,117.77c-2.31,1.52-3.77,4.04-3.93,6.8c0,2.49,1.77,3.55,3.93,2.36
		c2.33-1.5,3.8-4.03,3.93-6.8C442.63,117.59,440.86,116.52,438.7,117.77z"/>
	<path id="Trazado_2716" class="st81" d="M444.26,112.99l0.06,0.26c1.32,1.32,2,3.13,1.89,4.99c0,0.36-0.02,0.73-0.05,1.1l2.84-1.89
		v-7.44L444.26,112.99z"/>
	
		<linearGradient id="Trazado_2717_1_" gradientUnits="userSpaceOnUse" x1="-293.2871" y1="431.9533" x2="-292.2871" y2="431.9533" gradientTransform="matrix(39.551 0 0 -29.295 11993.4512 12788.1035)">
		<stop  offset="0.479" style="stop-color:#FFC107"/>
		<stop  offset="0.996" style="stop-color:#FF9800"/>
	</linearGradient>
	<path id="Trazado_2717" class="st82" d="M431.17,127.99c-0.06-0.43-0.09-0.87-0.09-1.31c0.09-2.57,0.82-5.08,2.13-7.3l-39.55,22.98
		v0.22c1.31,1.32,2,3.13,1.89,4.99c0,0.36-0.02,0.73-0.05,1.1L431.17,127.99z"/>
	<g id="Grupo_1175" transform="translate(23.073)">
		<path id="Trazado_2718" class="st83" d="M333.93,75.89l46-26.55l46,26.55l-46,26.56L333.93,75.89z"/>
		<path id="Trazado_2719" class="st84" d="M333.93,75.89v35.89l46,26.56v-35.89L333.93,75.89z"/>
		<path id="Trazado_2720" class="st83" d="M337.2,81.14v12.11l10.48,6.05V87.19L337.2,81.14z"/>
		<path id="Trazado_2721" class="st42" d="M379.93,138.34l46-26.56V75.89l-46,26.56V138.34z"/>
		<path id="Trazado_2722" class="st57" d="M352.33,122.4V86.52l9.2,5.31v35.89L352.33,122.4z"/>
		<path id="Trazado_2723" class="st57" d="M352.33,86.51l46.02-26.44l9.52,5.17l-46.33,26.58L352.33,86.51z"/>
		<path id="Trazado_2724" class="st57" d="M352.75,65.03l45.58,26.8l9.12-5.48l-45.38-26.78L352.75,65.03z"/>
		<path id="Trazado_2725" class="st57" d="M398.33,91.83v35.89l9.12-5.27v-36.1L398.33,91.83z"/>
	</g>
	<path id="Trazado_2726" class="st79" d="M382.71,161.27l-6.41-3.73V142.7l6.41,3.3V161.27z"/>
	<path id="Trazado_2727" class="st85" d="M333.93,139.78v5.35l34,19.56v-5.41L333.93,139.78z"/>
	<path id="Trazado_2728" class="st86" d="M367.94,164.69l9.7-5.41v-5.61l-9.71,5.61L367.94,164.69z"/>
	
		<linearGradient id="Trazado_2729_1_" gradientUnits="userSpaceOnUse" x1="-292.8778" y1="431.4416" x2="-291.8778" y2="431.4416" gradientTransform="matrix(32.194 0 0 -48.326 9764.6475 20983.0195)">
		<stop  offset="0.479" style="stop-color:#FFC107"/>
		<stop  offset="0.996" style="stop-color:#FF9800"/>
	</linearGradient>
	<path id="Trazado_2729" class="st87" d="M335.74,109l32.19,18.59v29.74l-32.19-18.59V109z"/>
	<path id="Trazado_2730" class="st45" d="M335.74,111.17l30.01,17.24v18.94l-30.01-17.24V111.17z"/>
	<path id="Trazado_2731" class="st57" d="M359.54,146.46l7.07,4.06v4.46l-7.07-4.06V146.46z"/>
	<path id="Trazado_2732" class="st42" d="M345.61,139.26l12.45,7.44v1.68l-12.45-7.44V139.26z"/>
	<path id="Trazado_2733" class="st57" d="M337.16,133.39l7.07,4.06v4.46l-7.07-4.06V133.39z"/>
	
		<linearGradient id="Trazado_2734_1_" gradientUnits="userSpaceOnUse" x1="-292.3335" y1="431.4714" x2="-291.3335" y2="431.4714" gradientTransform="matrix(25.809 0 0 -46.563 7912.7744 20226.5996)">
		<stop  offset="0.479" style="stop-color:#FFC107"/>
		<stop  offset="0.996" style="stop-color:#FF9800"/>
	</linearGradient>
	<path id="Trazado_2734" class="st88" d="M379.07,158.45c-0.08-0.49-0.11-0.99-0.11-1.49c0-5.26,3.73-11.72,8.29-14.35
		c2.57-1.49,4.88-1.42,6.41-0.11l0.09-29.77l-25.81,14.86v31.7l9.71-5.61v5.61L379.07,158.45z"/>
	<path id="Trazado_2735" class="st42" d="M387.25,143.89c-4.23,2.77-6.9,7.39-7.18,12.44c0,4.56,3.23,6.5,7.18,4.31
		s7.18-7.79,7.18-12.44S391.2,141.61,387.25,143.89z"/>
	<path id="Trazado_2736" class="st57" d="M387.25,147.67c-2.32,1.51-3.77,4.04-3.93,6.8c0,2.49,1.77,3.55,3.93,2.36
		c2.33-1.5,3.8-4.03,3.93-6.8C391.18,147.48,389.41,146.43,387.25,147.67z"/>
	
		<linearGradient id="Trazado_2737_1_" gradientUnits="userSpaceOnUse" x1="-293.8568" y1="431.7917" x2="-292.8568" y2="431.7917" gradientTransform="matrix(58.003 0 0 -33.457 17380.3125 14557.3125)">
		<stop  offset="0.479" style="stop-color:#FFC107"/>
		<stop  offset="0.996" style="stop-color:#FF9800"/>
	</linearGradient>
	<path id="Trazado_2737" class="st89" d="M335.74,109l25.81-14.87l32.19,18.59l-25.81,14.87L335.74,109z"/>
	<path id="Trazado_2738" class="st45" d="M370.17,129.6l21.35-12.05v12.3L380.86,136l-0.02,8.71l-10.59,6.12L370.17,129.6z"/>
	<path id="Trazado_2739" class="st62" d="M335.74,138.74l-1.81,1.04l34,19.5l1.83-1.05L335.74,138.74z"/>
	<path id="Trazado_2740" class="st62" d="M377.65,153.68l-1.54-0.91l-9.5,5.52l1.55,0.89L377.65,153.68z"/>
	<g id="Grupo_1176" transform="translate(1.807 65.875)">
		<path id="Trazado_2741" class="st90" d="M354.79,57.27l-2.8-1.6L339.96,67.7l2.8,1.61L354.79,57.27z"/>
		<path id="Trazado_2742" class="st90" d="M340.97,49.34l-7.03,7.03v7.87l3.49,2l12.03-12.03L340.97,49.34z"/>
	</g>
	<g id="Grupo_1177" transform="translate(36.236 74.44)">
		<path id="Trazado_2743" class="st90" d="M344.23,49.34l-1.95,1.1l-8.3,16.89l0.01,2.85L344.23,49.34z"/>
		<path id="Trazado_2744" class="st90" d="M333.93,56.09l0.03,8.64l6.53-13.29l-5.93,3.35L333.93,56.09z"/>
	</g>
</g>
<radialGradient id="Trazado_2745_1_" cx="3.4335" cy="770.5076" r="0.875" gradientTransform="matrix(36.651 0 0 -18.9597 573.1829 29619.0371)" gradientUnits="userSpaceOnUse">
	<stop  offset="0" style="stop-color:#3C5185"/>
	<stop  offset="0.079" style="stop-color:#61729C"/>
	<stop  offset="0.182" style="stop-color:#8B97B6"/>
	<stop  offset="0.29" style="stop-color:#AFB7CD"/>
	<stop  offset="0.403" style="stop-color:#CCD1DF"/>
	<stop  offset="0.523" style="stop-color:#E2E5ED"/>
	<stop  offset="0.653" style="stop-color:#F2F3F7"/>
	<stop  offset="0.799" style="stop-color:#FCFCFD"/>
	<stop  offset="1" style="stop-color:#FFFFFF"/>
</radialGradient>
<path id="Trazado_2745" class="st91" d="M676.54,399.29c12.37-7.14,32.6-7.14,44.97,0c12.37,7.14,12.37,18.82,0,25.96
	s-32.6,7.14-44.97,0C664.17,418.11,664.18,406.42,676.54,399.29z"/>
<g id="Grupo_1180" transform="translate(343.864 279.961)">
	<g id="Grupo_1179">
		
			<linearGradient id="Trazado_2746_1_" gradientUnits="userSpaceOnUse" x1="-340.0583" y1="488.8215" x2="-340.6173" y2="489.8305" gradientTransform="matrix(34.984 0 0 -48.8254 12257.8682 23982.9355)">
			<stop  offset="0" style="stop-color:#FFC107"/>
			<stop  offset="0.85" style="stop-color:#FF9800"/>
		</linearGradient>
		<path id="Trazado_2746" class="st92" d="M334.72,70.72L334.72,70.72c3.16-3.53,8.35-4.38,12.47-2.05l17.61,9.93
			c2.43,1.56,3.96,4.19,4.12,7.07v23.26c0,4.01-3.25,7.26-7.26,7.26c-0.15,0-0.31,0-0.46-0.01l-0.77-0.05
			c-0.62-0.04-1.22-0.22-1.75-0.52l-20.62-11.63c-2.43-1.56-3.96-4.19-4.12-7.07V72.77C333.93,72.01,334.21,71.28,334.72,70.72z"/>
		
			<linearGradient id="Trazado_2747_1_" gradientUnits="userSpaceOnUse" x1="-339.4001" y1="488.8361" x2="-340.2801" y2="489.8771" gradientTransform="matrix(28.355 0 0 -44.876 9985.0166 22055.1152)">
			<stop  offset="0.15" style="stop-color:#FF9800"/>
			<stop  offset="1" style="stop-color:#FFC107"/>
		</linearGradient>
		<path id="Trazado_2747" class="st93" d="M333.94,73.88c0-2.61,1.86-3.69,4.12-2.41l20.11,11.38c2.43,1.56,3.96,4.19,4.12,7.07
			v22.94c0,2.61-1.86,3.69-4.12,2.41l-20.11-11.38c-2.43-1.56-3.96-4.19-4.12-7.07V73.88z"/>
		<path id="Trazado_2748" class="st42" d="M348.11,84.85c-2.36-1.37-4.3-0.28-4.3,2.41c0.2,3.05,1.79,5.83,4.3,7.57
			c2.37,1.47,4.3,0.39,4.3-2.41C352.26,89.35,350.66,86.55,348.11,84.85z"/>
		<path id="Trazado_2749" class="st42" d="M360.83,79.83V69.39c0-10.08-2.23-16.48-6.62-19.02c-2.07-1.31-4.69-1.39-6.84-0.19
			c-1.69,0.97-4.51,3.67-4.51,10.82v10.23h0.05c0.04,0.32,0.25,0.59,0.54,0.72c0.82,0.41,1.79,0.41,2.62,0
			c0.29-0.13,0.49-0.4,0.53-0.72h0.05V61c0-3.77,0.98-6.59,2.62-7.54c0.97-0.5,2.14-0.43,3.05,0.19c3.05,1.76,4.72,7.35,4.72,15.73
			v10.41c0.01,0.35,0.23,0.66,0.55,0.8c0.84,0.43,1.84,0.43,2.68,0C360.59,80.47,360.8,80.17,360.83,79.83z"/>
		<path id="Trazado_2750" class="st42" d="M345.52,87.5v11.99l5.19,3V90.5L345.52,87.5z"/>
	</g>
</g>
</svg>
